<svg width="180" height="180" viewBox="0 0 180 180" fill="none" xmlns="http://www.w3.org/2000/svg">
<path d="M87.6782 20.5226C92.8203 23.3496 97.5426 26.7524 101.845 30.7311C106.253 34.6051 110.031 38.8979 113.179 43.6095C116.327 48.3212 118.741 53.2422 120.42 58.3726C122.204 63.503 123.096 68.6335 123.096 73.7639C123.096 79.5225 121.994 84.8624 119.79 89.7834C117.586 94.7044 114.491 98.9449 110.503 102.505C106.515 106.065 101.688 108.839 96.021 110.829C90.4591 112.818 84.2676 113.813 77.4464 113.813C73.4587 113.813 69.7333 113.603 66.2702 113.184C62.8072 112.661 59.5015 112.033 56.3533 111.3C53.31 110.462 50.3192 109.572 47.3808 108.63C44.5474 107.583 41.714 106.588 38.8806 105.646C34.8929 108.473 30.4329 110.567 25.5007 111.928C20.6734 113.184 15.2689 113.813 9.28728 113.813C5.92916 113.813 3.51552 113.446 2.04635 112.713C0.682116 111.876 0 110.776 0 109.415C0 108.054 0.472234 106.588 1.4167 105.018C2.46611 103.342 3.88282 101.824 5.66681 100.463C7.55575 99.1019 9.70704 98.0026 12.1207 97.1649C14.6393 96.2226 17.4202 95.7515 20.4635 95.7515C24.5562 95.7515 28.2816 96.1179 31.6397 96.8508C35.1028 97.5838 38.5133 98.5261 41.8714 99.6778C45.5444 95.4897 49.0074 89.8358 52.2606 82.716C55.5138 75.5962 58.9244 66.4871 62.4923 55.3886C64.5912 48.897 66.8474 43.1384 69.261 38.1127C71.7796 33.0869 74.6655 28.7418 77.9187 25.0772C73.721 22.9831 69.261 21.4126 64.5387 20.3656C59.9213 19.2138 55.094 18.638 50.0568 18.638C45.4394 18.638 41.3992 19.3185 37.9362 20.6797C34.578 22.0408 31.7446 23.8731 29.4359 26.1766C27.1272 28.48 25.2908 31.1499 23.9265 34.1863C22.5623 37.2227 21.6178 40.4161 21.0931 43.7666C20.8833 43.976 20.6209 44.0284 20.3061 43.9237C19.9913 43.819 19.8338 43.5572 19.8338 43.1384C20.2536 38.8456 21.408 34.8669 23.2969 31.2023C25.1858 27.433 27.7044 24.1872 30.8526 21.4649C34.1058 18.7427 37.9362 16.5963 42.3437 15.0257C46.7512 13.4552 51.7359 12.6699 57.2978 12.6699C62.1251 12.6699 66.7949 13.2458 71.3074 14.3975C75.8198 15.4445 80.1749 16.9627 84.3725 18.9521C87.101 16.7533 90.0393 14.921 93.1876 13.4552C96.4408 11.9893 100.061 10.8376 104.049 10C104.364 10 104.521 10.2094 104.521 10.6282C104.521 10.9423 104.364 11.2041 104.049 11.4135C97.8574 13.0887 92.4005 16.1251 87.6782 20.5226ZM14.6393 110.986C19.0468 110.986 22.9821 110.567 26.4451 109.729C30.0131 108.787 33.3188 107.164 36.362 104.861C32.899 103.814 29.331 102.924 25.6581 102.191C21.9851 101.458 17.9449 101.091 13.5374 101.091C11.1237 101.091 9.33975 101.51 8.18539 102.348C7.13599 103.185 6.61128 104.337 6.61128 105.803C6.61128 107.373 7.24093 108.63 8.50022 109.572C9.86445 110.515 11.9108 110.986 14.6393 110.986ZM85.1596 108.63C95.2339 108.63 102.632 106.012 107.355 100.777C112.077 95.4374 114.438 88.0558 114.438 78.6326C114.438 73.7116 113.651 68.7905 112.077 63.8695C110.503 58.9485 108.299 54.2369 105.466 49.7346C102.632 45.2324 99.2217 41.0443 95.2339 37.1703C91.2462 33.2963 86.7862 29.9458 81.854 27.1189C77.1316 33.5057 73.0914 41.8296 69.7333 52.0905C66.0603 63.7125 62.23 73.5021 58.2422 81.4595C54.3594 89.3122 49.8994 95.7515 44.8623 100.777C47.4858 101.72 50.1618 102.662 52.8902 103.604C55.7237 104.442 58.7669 105.279 62.0201 106.117C65.2733 106.85 68.7888 107.478 72.5667 108.002C76.3445 108.42 80.5422 108.63 85.1596 108.63Z" fill="#4F8E3F"/>
<path d="M154.027 67.8046C157.805 67.8046 161.268 68.014 164.416 68.4328C167.564 68.7469 170.293 69.2704 172.602 70.0033C174.91 70.7362 176.694 71.6262 177.954 72.6732C179.318 73.6156 180 74.7149 180 75.9714C180 76.809 179.79 77.9607 179.37 79.4266C178.951 80.7877 178.426 82.2535 177.796 83.8241C177.272 85.2899 176.642 86.7558 175.907 88.2216C175.173 89.6874 174.491 90.8392 173.861 91.6768C173.546 91.8862 173.126 91.8862 172.602 91.6768C172.182 91.3627 172.077 90.9439 172.287 90.4203C174.491 86.5463 174.963 83.5623 173.704 81.4683C172.339 79.2695 169.453 77.1755 165.046 75.1861C160.638 73.1968 155.181 72.2021 148.675 72.2021C140.49 72.2021 133.301 73.4585 127.11 75.9714C121.023 78.4842 115.934 82.0441 111.841 86.651C107.748 91.258 104.652 96.8596 102.554 103.456C100.56 110.052 99.5627 117.434 99.5627 125.6C99.5627 131.464 100.35 136.908 101.924 141.934C103.498 146.855 105.807 151.148 108.85 154.812C111.893 158.372 115.619 161.199 120.026 163.293C124.434 165.283 129.471 166.277 135.138 166.277C142.693 166.277 148.99 163.974 154.027 159.367C159.064 154.655 162.632 148.426 164.731 140.678C164.941 140.154 165.308 139.945 165.833 140.049C166.358 140.154 166.62 140.468 166.62 140.992C166.2 143.19 165.571 145.651 164.731 148.373C163.996 150.991 163.157 153.504 162.212 155.912C161.268 158.215 160.324 160.257 159.379 162.037C158.435 163.712 157.648 164.655 157.018 164.864C153.66 166.12 149.882 167.115 145.684 167.848C141.592 168.581 137.237 168.947 132.619 168.947C117.927 168.947 106.909 165.544 99.5627 158.739C92.2169 151.933 88.5439 142.51 88.5439 130.469C88.5439 121.569 90.1181 113.298 93.2663 105.655C96.5195 97.9066 101.032 91.258 106.804 85.7087C112.68 80.1595 119.606 75.8143 127.582 72.6732C135.557 69.4275 144.373 67.8046 154.027 67.8046Z" fill="#4F8E3F"/>
<path d="M50.7683 114.466C45.798 114.111 40.8696 115.585 36.9141 118.609C33.719 121.856 32.7514 126.63 29.5564 129.877C32.1853 129.54 34.7743 126.734 36.4489 124.962C34.0034 128.219 33.1502 130.227 35.4176 134.225C36.3871 135.743 36.9455 137.486 37.0382 139.284C37.1309 141.082 36.7548 142.873 35.9466 144.482C41.0104 141.636 42.4404 135.97 42.5149 130.734C42.3544 128.065 42.9051 125.401 44.1111 123.013C45.3171 120.625 47.1353 118.599 49.3808 117.139C40.149 117.832 41.9301 129.678 40.1199 135.713C39.9577 131.296 37.249 126.694 39.1097 122.381C40.9704 118.068 46.4754 115.826 51.5179 114.476L50.7683 114.466Z" fill="#4F8E3F"/>
<path d="M50.2766 112.139C43.3654 113.089 38.4159 113.168 33.4638 118.71C28.5117 124.251 22.8312 128.286 17.1135 124.389C21.9301 123.111 23.0013 116.317 26.8636 113.604C30.7259 110.89 36.4249 110.821 41.3026 110.516C35.5105 111.855 27.2118 115.479 24.3543 121.349C24.2826 121.124 23.9742 121.718 24.1284 121.421L24.0566 121.195C29.458 120.972 31.6057 117.561 35.5504 114.325C39.4951 111.089 43.9103 111.675 48.1819 111.81L50.2766 112.139Z" fill="#4F8E3F"/>
<path d="M48.2962 109.044C44.0777 105.168 38.6551 106.887 33.4185 106.065C28.182 105.243 25.3085 101.685 20.7391 101.396C23.2883 96.1203 30.6301 96.5234 35.7949 97.1202C38.5092 97.3212 41.1059 98.3082 43.2665 99.9601C45.4271 101.612 47.0577 103.857 47.9586 106.42C44.6944 103.98 41.7172 102.441 37.1984 103.874C41.6853 104.685 45.2074 104.81 48.0809 108.367L48.2962 109.044Z" fill="#4F8E3F"/>
<path d="M51.6242 106.996C50.0771 99.7913 47.4721 93.1705 54.1494 87.5787C60.8266 81.987 64.5321 85.0322 70.0876 84.5123C66.5736 89.1013 68.522 94.441 64.6385 98.6507C60.755 102.86 56.3185 103.77 52.8975 107.089C51.7704 101.985 54.1441 98.5022 57.0521 94.3535C54.5561 95.8893 50.9809 99.5049 51.4514 103.327L51.6242 106.996Z" fill="#4F8E3F"/>
<path d="M55.0532 108.391C58.8969 101.712 69.2982 103.131 72.8177 108.717C76.3371 114.304 70.9969 115.5 73.5407 121.147C69.9864 119.777 66.2698 118.869 62.4828 118.447C60.3241 117.931 58.345 116.843 56.7545 115.298C55.2048 113.556 55.3802 111.763 54.5801 110.03C58.8704 114.131 63.2563 111.5 67.9798 111.492C64.0484 108.518 59.0671 110.842 55.0532 108.391Z" fill="#4F8E3F"/>
<path d="M53.9926 114.436C56.0795 116.207 57.5422 118.599 58.1656 121.261C58.7891 123.923 58.5404 126.714 57.4563 129.225C55.0613 134.204 52.0204 137.153 52.0895 142.84C49.0237 139.559 47.2976 135.253 47.2504 130.767C47.2032 126.282 48.8381 121.94 51.8342 118.596C50.5185 121.495 48.5648 127.079 51.8183 130.267C51.9433 126.752 53.4026 124.304 53.897 121.169C54.3914 118.033 53.0676 116.219 51.7545 113.656L53.9926 114.436Z" fill="#4F8E3F"/>
<path d="M82.4853 98.4543C81.1695 101.354 78.8463 106.558 75.0159 107.028C73.8917 105.438 72.4123 104.132 70.6946 103.211C68.977 102.291 67.0683 101.782 65.1196 101.725C69.1972 99.6878 73.6523 102.744 77.1344 100.399C73.8383 100.202 70.5848 97.014 67.185 98.8363C69.1573 97.2182 70.1648 94.9131 73.0196 94.5046C75.8745 94.0961 83.2562 96.9688 82.4853 98.4543Z" fill="#4F8E3F"/>
<path d="M47.8789 101.481C47.1568 99.3782 45.7932 97.5537 43.9793 96.2634C42.3472 95.0432 40.242 95.4624 38.6816 94.4676C37.1213 93.4729 34.8751 87.9794 35.4519 84.3215C36.0287 80.6635 39.7049 80.4911 43.8118 81.6715C45.493 82.0467 47.0641 82.8059 48.4016 83.8894C49.7391 84.9728 50.8067 86.351 51.5205 87.9157C49.5481 89.5337 48.6337 90.5683 48.8996 92.9662C49.1654 95.3642 44.1973 91.4781 42.3392 90.3296C43.4769 94.6851 48.5487 96.5525 47.8789 101.481Z" fill="#4F8E3F"/>
</svg>
