<svg class="decoration" xmlns="http://www.w3.org/2000/svg" viewBox="0 0 150 150" style="enable-background:new 0 0 150 150;" xml:space="preserve">
<g class="top_right">
	<path fill="#80C56E" d="M119.8,13.3c0.7,1.8,8,23.4-7.1,48.8c-9.2,15.4-23.1,16.5-24.5,16.5C87.5,77.6,79.6,66,86,49.2
		C96.5,21.6,118,13.9,119.8,13.3z"/>
	<path fill="#66AD66" d="M119.8,13.3L88.3,78.7c1.4-0.1,15.3-1.1,24.5-16.5C127.8,36.7,120.5,15.2,119.8,13.3z"/>
</g>
<g class="top_left">
	<path fill="#80C56E" d="M30.2,13.3c-0.7,1.8-8,23.4,7.1,48.8c9.2,15.4,23.1,16.5,24.5,16.5c0.8-1.1,8.7-12.7,2.3-29.4
		C53.5,21.6,32,13.9,30.2,13.3z"/>
	<path fill="#66AD66" d="M64,49.2C53.5,21.6,32,13.9,30.2,13.3C48.9,49,58.9,71.8,61.8,78.6C62.9,77,70.2,65.6,64,49.2z"/>
</g>
<g id="center">
	<path fill="#80C56E" d="M75,0c-2.2,2.2-28.2,28.5-24.1,76.4c2.5,29.1,22.2,40.4,24.1,41.5c2-1.1,21.6-12.4,24.1-41.5
		C103.2,28.5,77.2,2.2,75,0z"/>
	<path fill="#66AD66" d="M75,0v117.8c2-1.1,21.6-12.4,24.1-41.5C103.2,28.5,77.2,2.2,75,0z"/>
</g>
<g class="bottom_right">
	<path fill="#80C56E" d="M130.7,73.3c4.9-16.8,3.2-32.4,3.2-32.4s-9.4,4.2-33.1,19.5C82.4,72.2,76.7,93.1,75,98.7h21.6
		C112.3,98.7,126.3,88.3,130.7,73.3z"/>
	<path fill="#66AD66" d="M133.9,40.8c0,0-24.3,48.1-58.9,57.8h21.6c15.7,0,29.6-10.3,34-25.4C135.5,56.4,133.9,40.8,133.9,40.8z"/>
</g>
<g class="bottom_left">
	<path fill="#80C56E" d="M19.3,73.3c-4.9-16.8-3.2-32.4-3.2-32.4s9.4,4.2,33.1,19.5C67.6,72.2,73.3,93.1,75,98.7H53.4
		C37.7,98.7,23.7,88.3,19.3,73.3z"/>
	<path fill="#66AD66" d="M75,98.7c-1.7-5.6-7.4-26.5-25.8-38.4C25.5,45,16.1,40.8,16.1,40.8S40.4,88.9,75,98.7z"/>
</g>
<g>
	<path fill="#FEC37D" d="M90.6,150H59.4c-8.3,0-15.4-5.9-16.9-14.1l-6.7-36.1h78.5l-6.7,36.1C106,144.1,98.9,150,90.6,150z"/>
	<path fill="#F9AE5D" d="M99.1,99.9l-6.7,36.1c-1.5,8.2-8.6,14.1-16.9,14.1h15.2c8.3,0,15.4-5.9,16.9-14.1l6.7-36.1L99.1,99.9
		L99.1,99.9z"/>
	<path fill="#F2A559" d="M115.6,108H34.4c-3.3,0-6-2.7-6-6c0-3.3,2.7-6,6-6h81.3c3.3,0,6,2.7,6,6C121.6,105.3,118.9,108,115.6,108z"/>
	<path fill="#EA8F3D" d="M115.6,96h-9.6V108h9.6c3.3,0,6-2.7,6-6C121.6,98.7,118.9,96,115.6,96z"/>
</g>
</svg>
