<svg width="150" height="150" viewBox="0 0 150 150" fill="none" xmlns="http://www.w3.org/2000/svg">
<path d="M119.797 13.3406C120.46 15.1529 127.824 36.7206 112.72 62.1541C103.546 77.6021 89.6163 78.6243 88.2522 78.6875C87.4533 77.5798 79.5892 66.0374 85.9779 49.2451C96.497 21.5979 117.965 13.9488 119.797 13.3406Z" fill="#80C56E"/>
<path d="M119.797 13.3406L88.2522 78.6875C89.6166 78.624 103.546 77.6021 112.72 62.1541C127.825 36.7206 120.46 15.1529 119.797 13.3406Z" fill="#66AD66"/>
<path d="M87.2773 80.7067L88.2521 78.6876C88.2315 78.6589 88.2052 78.6217 88.1753 78.5795C87.5724 79.9881 87.2773 80.7067 87.2773 80.7067Z" fill="white" stroke="black" stroke-width="15" stroke-miterlimit="10" stroke-linecap="round" stroke-linejoin="round"/>
<path d="M30.2033 13.3406C29.5403 15.1529 22.1756 36.7206 37.2799 62.1541C46.4542 77.6021 60.3837 78.6243 61.7478 78.6875C62.5467 77.5798 70.4109 66.0374 64.0218 49.2451C53.5031 21.5979 32.0346 13.9488 30.2033 13.3406Z" fill="#80C56E"/>
<path d="M64.0219 49.2451C53.5032 21.5979 32.0347 13.9488 30.2034 13.3406C48.8567 48.9685 58.9181 71.7896 61.8247 78.5794C62.9441 76.9792 70.2463 65.6044 64.0219 49.2451Z" fill="#66AD66"/>
<path d="M74.9999 0C72.7511 2.18232 46.7554 28.524 50.8898 76.3805C53.4008 105.448 73.0496 116.776 74.9999 117.832C76.9502 116.776 96.599 105.448 99.1101 76.3805C103.244 28.524 77.2488 2.18232 74.9999 0Z" fill="#80C56E"/>
<path d="M75 0V117.832C76.9503 116.776 96.5991 105.448 99.1102 76.3805C103.245 28.524 77.2488 2.18232 75 0Z" fill="#66AD66"/>
<path d="M130.654 73.2548C135.545 56.4446 133.89 40.8206 133.89 40.8206C133.89 40.8206 124.47 45.0165 100.799 60.3132C82.3992 72.2034 76.7062 93.0505 75 98.669H96.6249C112.344 98.669 126.262 88.3483 130.654 73.2548Z" fill="#80C56E"/>
<path d="M133.89 40.8202C133.89 40.8202 109.562 88.8797 75 98.6689H96.6249C112.344 98.6689 126.263 88.3482 130.654 73.2548C135.545 56.4445 133.89 40.8202 133.89 40.8202Z" fill="#66AD66"/>
<path d="M19.3459 73.2548C14.4548 56.4446 16.1104 40.8206 16.1104 40.8206C16.1104 40.8206 25.5296 45.0165 49.2009 60.3132C67.6008 72.2034 73.2938 93.0505 75 98.669H53.3751C37.6559 98.669 23.7375 88.3483 19.3459 73.2548Z" fill="#80C56E"/>
<path d="M75.0001 98.6689C73.2938 93.0504 67.6008 72.2033 49.2009 60.3129C25.5293 45.0161 16.1101 40.8202 16.1101 40.8202C16.1101 40.8202 40.4379 88.88 75.0001 98.6689Z" fill="#66AD66"/>
<path d="M90.6375 150H59.3624C51.067 150 43.9511 144.085 42.4344 135.93L35.7292 99.8733H114.271L107.566 135.93C106.049 144.085 98.9329 150 90.6375 150Z" fill="#FEC37D"/>
<path d="M99.0798 99.8736L92.3746 135.93C90.8579 144.085 83.7417 150 75.4463 150H90.6376C98.933 150 106.049 144.085 107.566 135.93L114.271 99.8733H99.0798V99.8736Z" fill="#F9AE5D"/>
<path d="M115.64 107.976H34.3599C31.0664 107.976 28.3962 105.306 28.3962 102.013C28.3962 98.7191 31.0664 96.049 34.3599 96.049H115.64C118.934 96.049 121.604 98.7191 121.604 102.013C121.604 105.306 118.934 107.976 115.64 107.976Z" fill="#F2A559"/>
<path d="M115.64 96.0487H106.085V107.976H115.64C118.934 107.976 121.604 105.306 121.604 102.012C121.604 98.7188 118.934 96.0487 115.64 96.0487Z" fill="#EA8F3D"/>
</svg>
