<svg width="150" height="150" viewBox="0 0 150 150" fill="none" xmlns="http://www.w3.org/2000/svg">
<path d="M36.8203 70.9453L26.2031 40.3594C25.754 38.5681 24.6448 37.0126 23.0976 36.0043C21.5504 34.996 19.6794 34.6094 17.8593 34.9219C16.926 35.1209 16.0427 35.5074 15.2632 36.0579C14.4837 36.6084 13.8241 37.3115 13.3244 38.1246C12.8247 38.9377 12.4954 39.8438 12.3564 40.7879C12.2173 41.7321 12.2715 42.6946 12.5156 43.6172L23.4375 77.3438L36.8203 70.9453Z" fill="#FFAC96"/>
<path d="M113.18 70.9453L123.797 40.3594C124.246 38.5681 125.355 37.0126 126.902 36.0043C128.449 34.996 130.32 34.6094 132.141 34.9219C133.074 35.1209 133.957 35.5074 134.737 36.0579C135.516 36.6084 136.176 37.3115 136.675 38.1246C137.175 38.9377 137.505 39.8438 137.644 40.7879C137.783 41.7321 137.728 42.6946 137.484 43.6172L126.562 77.3438L113.18 70.9453Z" fill="#FFAC96"/>
<path d="M58.7015 83.6297L37.9828 71.4844C36.5491 70.6564 34.8688 70.3619 33.2389 70.6532C31.6091 70.9444 30.1347 71.8025 29.0765 73.0758L21.5156 49.7344C21.0665 47.9431 19.9573 46.3876 18.4101 45.3793C16.8629 44.371 14.9919 43.9844 13.1718 44.2969C12.2385 44.4959 11.3552 44.8824 10.5757 45.4329C9.79618 45.9834 9.13657 46.6865 8.6369 47.4996C8.13722 48.3127 7.80788 49.2188 7.66885 50.1629C7.52982 51.1071 7.58399 52.0696 7.82807 52.9922L18.0234 91.0313C18.4911 92.8104 19.4784 94.4097 20.8593 95.625L36.7031 109.711C37.6916 110.591 38.4825 111.671 39.0238 112.879C39.5652 114.086 39.8446 115.395 39.8437 116.719V124.219H67.9687V99.8063C67.9689 96.5359 67.1138 93.3223 65.4881 90.4846C63.8624 87.6469 61.5228 85.2837 58.7015 83.6297Z" fill="#FFBCAB"/>
<path d="M136.828 44.2969C135.008 43.9844 133.137 44.371 131.59 45.3793C130.043 46.3876 128.933 47.9431 128.484 49.7344L120.914 73.0758C119.856 71.8025 118.381 70.9444 116.752 70.6532C115.122 70.3619 113.442 70.6564 112.008 71.4844L91.2891 83.6297C88.4695 85.2849 86.1318 87.6486 84.5078 90.4862C82.8838 93.3238 82.0301 96.5368 82.0313 99.8063V124.219H110.156V116.719C110.155 115.395 110.435 114.086 110.976 112.879C111.517 111.671 112.308 110.591 113.297 109.711L129.141 95.625C130.522 94.4097 131.509 92.8104 131.977 91.0313L142.172 52.9922C142.416 52.0696 142.47 51.1071 142.331 50.1629C142.192 49.2188 141.863 48.3127 141.363 47.4996C140.863 46.6865 140.204 45.9834 139.424 45.4329C138.645 44.8824 137.761 44.4959 136.828 44.2969Z" fill="#FFBCAB"/>
<path d="M79.6875 124.219V142.969H112.5V124.219H110.156H82.0312H79.6875Z" fill="#006DF0"/>
<path d="M70.3125 124.219H67.9688H39.8438H37.5V142.969H70.3125V124.219Z" fill="#006DF0"/>
<path d="M106.5 43.5L104.836 45.1641L75.0001 75L45.1642 45.1641L43.5001 43.5C41.4732 41.5566 39.8547 39.228 38.7395 36.6508C37.6244 34.0736 37.035 31.2997 37.006 28.4918C36.9771 25.6838 37.509 22.8983 38.5708 20.2987C39.6325 17.699 41.2026 15.3375 43.189 13.3527C45.1754 11.3678 47.5381 9.79959 50.1386 8.73991C52.7391 7.68023 55.525 7.15044 58.3329 7.18163C61.1408 7.21281 63.9143 7.80434 66.4906 8.92151C69.0669 10.0387 71.3942 11.659 73.3361 13.6875L75.0001 15.3516L76.6642 13.6875C78.606 11.659 80.9333 10.0387 83.5096 8.92151C86.0859 7.80434 88.8594 7.21281 91.6673 7.18163C94.4752 7.15044 97.2611 7.68023 99.8616 8.73991C102.462 9.79959 104.825 11.3678 106.811 13.3527C108.798 15.3375 110.368 17.699 111.429 20.2987C112.491 22.8983 113.023 25.6838 112.994 28.4918C112.965 31.2997 112.376 34.0736 111.261 36.6508C110.146 39.228 108.527 41.5566 106.5 43.5Z" fill="#D80027"/>
<path d="M106.5 13.6875C104.27 11.434 101.556 9.71829 98.5637 8.67091C95.5714 7.62353 92.3798 7.27199 89.2312 7.64299C93.1786 8.08046 96.922 9.62414 100.03 12.0962C103.139 14.5683 105.485 17.8681 106.8 21.6157C108.115 25.3632 108.344 29.4059 107.462 33.2782C106.58 37.1504 104.621 40.6945 101.812 43.5024L100.148 45.1664L72.6562 72.6563L75 75L104.836 45.1641L106.5 43.5C110.45 39.5449 112.669 34.1836 112.669 28.5938C112.669 23.0039 110.45 17.6426 106.5 13.6875Z" fill="#BD0022"/>
<path d="M79.6875 51.5625V42.1875H89.0625V32.8125H79.6875V23.4375H70.3125V32.8125H60.9375V42.1875H70.3125V51.5625H79.6875Z" fill="#F1F2F2"/>
<path d="M119.048 78.9844L103.383 87.6562C102.935 87.9155 102.603 88.3358 102.455 88.8314C102.306 89.327 102.352 89.8606 102.584 90.3234C102.707 90.5709 102.88 90.7904 103.092 90.9685C103.304 91.1466 103.55 91.2795 103.815 91.359C104.08 91.4385 104.358 91.4629 104.633 91.4307C104.908 91.3985 105.173 91.3104 105.413 91.1718L119.048 83.6719C120.472 82.8465 121.561 81.548 122.126 80.0024C122.691 78.4568 122.696 76.7621 122.14 75.2133C121.598 76.8018 120.5 78.141 119.048 78.9844Z" fill="#FFAC96"/>
<path d="M30.9516 78.9844L46.6173 87.6562C47.065 87.9155 47.397 88.3358 47.5455 88.8314C47.694 89.327 47.6479 89.8606 47.4165 90.3234C47.2928 90.5709 47.1198 90.7904 46.9081 90.9685C46.6963 91.1466 46.4504 91.2795 46.1854 91.359C45.9204 91.4385 45.6419 91.4629 45.3671 91.4307C45.0924 91.3985 44.8271 91.3104 44.5876 91.1718L30.9516 83.6719C29.528 82.8465 28.4389 81.548 27.874 80.0024C27.3091 78.4568 27.3043 76.7621 27.8602 75.2133C28.4025 76.8018 29.5003 78.141 30.9516 78.9844Z" fill="#FFAC96"/>
</svg>
