<svg xmlns="http://www.w3.org/2000/svg" viewBox="0 0 150 150" style="enable-background:new 0 0 150 150;" xml:space="preserve">
  <g id="health">
    <path fill="#D80027" d="M106.5,43.5l-1.7,1.7L75,75L45.2,45.2l-1.7-1.7c-2-1.9-3.6-4.3-4.8-6.8c-1.1-2.6-1.7-5.4-1.7-8.2
      c0-2.8,0.5-5.6,1.6-8.2c1.1-2.6,2.6-5,4.6-6.9c2-2,4.3-3.6,6.9-4.6c2.6-1.1,5.4-1.6,8.2-1.6c2.8,0,5.6,0.6,8.2,1.7
      c2.6,1.1,4.9,2.7,6.8,4.8l1.7,1.7l1.7-1.7c1.9-2,4.3-3.6,6.8-4.8c2.6-1.1,5.3-1.7,8.2-1.7c2.8,0,5.6,0.5,8.2,1.6
      c2.6,1.1,5,2.6,6.9,4.6c2,2,3.6,4.3,4.6,6.9c1.1,2.6,1.6,5.4,1.6,8.2c0,2.8-0.6,5.6-1.7,8.2C110.1,39.2,108.5,41.6,106.5,43.5z"/>
    <path fill="#BD0022" d="M106.5,13.7c-2.2-2.3-4.9-4-7.9-5c-3-1-6.2-1.4-9.3-1c3.9,0.4,7.7,2,10.8,4.5c3.1,2.5,5.5,5.8,6.8,9.5
      c1.3,3.7,1.5,7.8,0.7,11.7c-0.9,3.9-2.8,7.4-5.7,10.2l-1.7,1.7L72.7,72.7L75,75l29.8-29.8l1.7-1.7c3.9-4,6.2-9.3,6.2-14.9
      C112.7,23,110.4,17.6,106.5,13.7z"/>
    <path fill="#F1F2F2" d="M79.7,51.6v-9.4h9.4v-9.4h-9.4v-9.4h-9.4v9.4h-9.4v9.4h9.4v9.4H79.7z"/>
  </g>
  <g id="hands">
    <path fill="#FFAC96" d="M36.8,70.9L26.2,40.4c-0.4-1.8-1.6-3.3-3.1-4.4c-1.5-1-3.4-1.4-5.2-1.1c-0.9,0.2-1.8,0.6-2.6,1.1
      s-1.4,1.3-1.9,2.1s-0.8,1.7-1,2.7c-0.1,0.9-0.1,1.9,0.2,2.8l10.9,33.7L36.8,70.9z"/>
    <path fill="#FFAC96" d="M113.2,70.9l10.6-30.6c0.4-1.8,1.6-3.3,3.1-4.4c1.5-1,3.4-1.4,5.2-1.1c0.9,0.2,1.8,0.6,2.6,1.1
      c0.8,0.6,1.4,1.3,1.9,2.1c0.5,0.8,0.8,1.7,1,2.7c0.1,0.9,0.1,1.9-0.2,2.8l-10.9,33.7L113.2,70.9z"/>
    <path fill="#FFBCAB" d="M58.7,83.6L38,71.5c-1.4-0.8-3.1-1.1-4.7-0.8c-1.6,0.3-3.1,1.1-4.2,2.4l-7.6-23.3c-0.4-1.8-1.6-3.3-3.1-4.4
      c-1.5-1-3.4-1.4-5.2-1.1c-0.9,0.2-1.8,0.6-2.6,1.1c-0.8,0.6-1.4,1.3-1.9,2.1c-0.5,0.8-0.8,1.7-1,2.7c-0.1,0.9-0.1,1.9,0.2,2.8
      L18,91c0.5,1.8,1.5,3.4,2.8,4.6l15.8,14.1c1,0.9,1.8,2,2.3,3.2c0.5,1.2,0.8,2.5,0.8,3.8v7.5H68V99.8c0-3.3-0.9-6.5-2.5-9.3
      C63.9,87.6,61.5,85.3,58.7,83.6z"/>
    <path fill="#FFBCAB" d="M136.8,44.3c-1.8-0.3-3.7,0.1-5.2,1.1s-2.7,2.6-3.1,4.4l-7.6,23.3c-1.1-1.3-2.5-2.1-4.2-2.4
      c-1.6-0.3-3.3,0-4.7,0.8L91.3,83.6c-2.8,1.7-5.2,4-6.8,6.9S82,96.5,82,99.8v24.4h28.1v-7.5c0-1.3,0.3-2.6,0.8-3.8
      c0.5-1.2,1.3-2.3,2.3-3.2l15.8-14.1c1.4-1.2,2.4-2.8,2.8-4.6l10.2-38c0.2-0.9,0.3-1.9,0.2-2.8c-0.1-0.9-0.5-1.9-1-2.7
      s-1.2-1.5-1.9-2.1C138.6,44.9,137.8,44.5,136.8,44.3z"/>
    <path fill="#006DF0" d="M79.7,124.2V143h32.8v-18.7h-2.3H82H79.7z"/>
    <path fill="#006DF0" d="M70.3,124.2H68H39.8h-2.3V143h32.8V124.2z"/>
    <path fill="#FFAC96" d="M119,79l-15.7,8.7c-0.4,0.3-0.8,0.7-0.9,1.2c-0.1,0.5-0.1,1,0.1,1.5c0.1,0.2,0.3,0.5,0.5,0.6
      c0.2,0.2,0.5,0.3,0.7,0.4s0.5,0.1,0.8,0.1c0.3,0,0.5-0.1,0.8-0.3l13.6-7.5c1.4-0.8,2.5-2.1,3.1-3.7c0.6-1.5,0.6-3.2,0-4.8
      C121.6,76.8,120.5,78.1,119,79z"/>
    <path fill="#FFAC96" d="M31,79l15.7,8.7c0.4,0.3,0.8,0.7,0.9,1.2c0.1,0.5,0.1,1-0.1,1.5c-0.1,0.2-0.3,0.5-0.5,0.6
      c-0.2,0.2-0.5,0.3-0.7,0.4c-0.3,0.1-0.5,0.1-0.8,0.1c-0.3,0-0.5-0.1-0.8-0.3L31,83.7c-1.4-0.8-2.5-2.1-3.1-3.7
      c-0.6-1.5-0.6-3.2,0-4.8C28.4,76.8,29.5,78.1,31,79z"/>
  </g>
</svg>
