<svg width="150" height="150" viewBox="0 0 150 150" fill="none" xmlns="http://www.w3.org/2000/svg">
<path d="M128.906 65.625H123.877C122.571 65.625 121.291 65.2614 120.18 64.5749C119.07 63.8884 118.172 62.9061 117.588 61.7382L114.844 56.25H128.906V65.625Z" fill="#EA9D2D"/>
<path d="M128.906 65.625H133.936C135.241 65.625 136.521 65.2614 137.632 64.5749C138.743 63.8884 139.641 62.9061 140.225 61.7382L142.969 56.25H128.906V65.625Z" fill="#EA9D2D"/>
<path d="M128.906 46.875L125.793 51.5443C124.766 53.0844 124.219 54.8939 124.219 56.7448V57.0542C124.219 58.2854 124.461 59.5045 124.932 60.642C125.404 61.7794 126.094 62.8129 126.965 63.6835L128.906 65.625L130.848 63.6835C131.718 62.8129 132.409 61.7794 132.88 60.642C133.351 59.5045 133.594 58.2854 133.594 57.0542V56.7448C133.594 54.8939 133.046 53.0844 132.019 51.5443L128.906 46.875Z" fill="#FBB540"/>
<path d="M51.5625 114.844L56.25 110.156L58.5938 103.125H91.4062L93.75 110.156L98.4375 114.844L103.125 118.594L75 133.594L46.875 119.531L51.5625 114.844Z" fill="#5D70B3"/>
<path d="M73.9277 126.563L72.7471 132.466L46.875 119.531L51.5625 114.844L52.5996 113.807L73.9277 126.563Z" fill="#CF5252"/>
<path d="M103.125 118.594L78.3897 131.786L77.3438 126.563L97.8779 114.284L98.4375 114.844L103.125 118.594Z" fill="#CF5252"/>
<path d="M56.25 59.4727L51.2139 61.1133C49.853 61.7937 48.6555 62.7604 47.7035 63.9472C46.7515 65.134 46.0675 66.5127 45.6984 67.9887L39.8438 91.4062L21.0938 103.125L14.0625 100.781L7.03125 103.125L9.375 114.844L44.2585 103.943C45.0859 103.684 45.8527 103.261 46.5129 102.7C47.1731 102.138 47.7132 101.449 48.1008 100.673L56.25 84.375V59.4727Z" fill="#FDC9A6"/>
<path d="M93.75 59.4727L98.7861 61.1118C100.147 61.7922 101.344 62.7589 102.297 63.9457C103.249 65.1325 103.933 66.5112 104.302 67.9872L110.156 91.4062L128.906 103.125L135.938 100.781L142.969 103.125L140.625 114.844L105.742 103.943C104.914 103.684 104.147 103.261 103.487 102.7C102.827 102.138 102.287 101.449 101.899 100.673L93.75 84.375V59.4727Z" fill="#FDC9A6"/>
<path d="M82.0312 18.75L81.2142 14.6651C80.7837 12.5125 79.6206 10.5754 77.9229 9.18363C76.2252 7.79183 74.0977 7.03123 71.9024 7.03125C69.3839 7.03131 66.9685 8.03182 65.1876 9.8127C62.3541 12.6461 60.1064 16.01 58.5729 19.7121C57.0393 23.4142 56.25 27.3821 56.25 31.3893V32.0508C56.2501 34.4481 55.6583 36.8083 54.5271 38.9219C53.396 41.0355 51.7604 42.8371 49.7657 44.1668L49.2188 44.5312L51.0352 45.4395C53.3312 46.5877 55.8901 47.1084 58.4523 46.9489C61.0145 46.7895 63.489 45.9554 65.625 44.5312L82.0312 18.75Z" fill="#683B0D"/>
<path d="M84.375 56.7188L82.0312 56.25V46.875H67.9688V56.25L65.625 56.7188V67.9688L75 75L84.375 67.9688V56.7188Z" fill="#FDC9A6"/>
<path d="M82.0312 46.875V49.2188C80.0028 50.7401 77.5356 51.5625 75 51.5625C72.4644 51.5625 69.9972 50.7401 67.9688 49.2188V46.875H82.0312Z" fill="#FDC9A6"/>
<path d="M84.375 56.7188L93.75 59.4727V70.3125C95.1105 72.3532 95.7864 74.7739 95.6801 77.2242C95.5737 79.6745 94.6906 82.0274 93.1585 83.9426L89.0625 89.0625H60.9375L56.8415 83.9426C55.3094 82.0274 54.4263 79.6745 54.32 77.2242C54.2136 74.7739 54.8896 72.3532 56.25 70.3125V59.4727L65.625 56.7188V67.9688L75 75L84.375 67.9688V56.7188Z" fill="#F1746A"/>
<path d="M60.9375 89.0625V93.051C60.9375 95.0663 60.6126 97.0684 59.9754 98.9804L58.5938 103.125H91.4062L90.0246 98.9804C89.3874 97.0684 89.0625 95.0663 89.0625 93.051V89.0625H60.9375Z" fill="#FDC9A6"/>
<path d="M103.125 118.594L98.4375 114.844L97.8779 114.284L77.3438 126.563H73.9277L52.5996 113.807L51.5625 114.844L46.875 119.531L72.7471 131.25H78.3897L103.125 118.594Z" fill="#4162AA"/>
<path d="M82.0312 46.875V49.2188C80.0028 50.7401 77.5356 51.5625 75 51.5625C72.4644 51.5625 69.9972 50.7401 67.9688 49.2188V46.875H82.0312Z" fill="#F6BB92"/>
<path d="M21.0938 67.9688H16.0644C14.7586 67.9687 13.4786 67.6051 12.3678 66.9186C11.2571 66.2321 10.3594 65.2499 9.77549 64.0819L7.03125 58.5938H21.0938V67.9688Z" fill="#029532"/>
<path d="M21.0938 67.9688H26.1231C27.4289 67.9687 28.7089 67.6051 29.8197 66.9186C30.9304 66.2321 31.8281 65.2499 32.412 64.0819L35.1562 58.5938H21.0938V67.9688Z" fill="#029532"/>
<path d="M79.6875 140.625L120.709 123.871C121.773 123.308 122.713 122.536 123.473 121.603C124.233 120.669 124.797 119.592 125.132 118.436C125.468 117.28 125.567 116.068 125.425 114.873C125.283 113.678 124.902 112.523 124.305 111.478C123.694 110.409 122.869 109.477 121.883 108.74C120.897 108.002 119.769 107.476 118.571 107.193C117.372 106.91 116.129 106.877 114.917 107.095C113.705 107.313 112.551 107.778 111.526 108.461L77.3438 128.906L79.6875 140.625Z" fill="#5D70B3"/>
<path d="M71.5833 140.625L30.5616 123.871C29.4977 123.308 28.5579 122.536 27.7981 121.603C27.0383 120.669 26.4739 119.592 26.1385 118.436C25.8031 117.28 25.7036 116.068 25.8457 114.873C25.9879 113.678 26.369 112.523 26.9662 111.478C27.5771 110.409 28.4014 109.477 29.3877 108.74C30.3741 108.002 31.5015 107.476 32.7 107.193C33.8984 106.91 35.1423 106.877 36.3542 107.095C37.5662 107.313 38.7203 107.778 39.745 108.461L73.9271 128.906L71.5833 140.625Z" fill="#5D70B3"/>
<path d="M77.3438 128.906L65.625 131.25L58.5938 128.906L53.9062 133.594L56.25 140.625H79.6875L77.3438 128.906Z" fill="#FDC9A6"/>
<path d="M86.7188 32.8125V37.5C86.7188 40.608 85.4841 43.5887 83.2864 45.7864C81.0887 47.9841 78.108 49.2188 75 49.2188C71.892 49.2188 68.9113 47.9841 66.7136 45.7864C64.5159 43.5887 63.2813 40.608 63.2813 37.5V28.125C63.2801 26.881 63.4772 25.6448 63.8651 24.4629L86.7188 32.8125Z" fill="#FDC9A6"/>
<path d="M86.7188 28.125V32.8125C79.112 32.8125 71.7104 30.3453 65.625 25.7813L63.8672 24.4629C64.7375 21.8152 66.5229 19.5643 68.9031 18.1143C71.2833 16.6642 74.1024 16.11 76.8543 16.551C79.6063 16.992 82.111 18.3994 83.9189 20.5206C85.7268 22.6418 86.7194 25.3379 86.7188 28.125Z" fill="#683B0D"/>
<path d="M21.0938 49.2188L17.9807 53.8881C16.954 55.4282 16.4062 57.2377 16.4063 59.0886V59.3979C16.4062 60.6291 16.6487 61.8483 17.1199 62.9857C17.5911 64.1232 18.2817 65.1567 19.1522 66.0272L21.0938 67.9688L23.0353 66.0272C23.9058 65.1567 24.5964 64.1232 25.0676 62.9857C25.5388 61.8483 25.7813 60.6291 25.7812 59.3979V59.0886C25.7813 57.2377 25.2335 55.4282 24.2068 53.8881L21.0938 49.2188Z" fill="#02A437"/>
</svg>
