<svg class="meditation" xmlns="http://www.w3.org/2000/svg" viewBox="0 0 150 150" style="enable-background:new 0 0 150 150;" xml:space="preserve">
<style type="text/css">
	.st0{fill:#5D70B3;}
	.st1{fill:#CF5252;}
	.st2{fill:#FDC9A6;}
	.st3{fill:#683B0D;}
	.st4{fill:#F1746A;}
	.st5{fill:#4162AA;}
	.st6{fill:#F6BB92;}
	.st7{fill:#EA9D2D;}
	.st8{fill:#FBB540;}
	.st9{fill:#029532;}
	.st10{fill:#02A437;}
</style>
  <g class="character">
    <path fill="#5D70B3" d="M51.6,114.8l4.7-4.7l2.3-7h32.8l2.3,7l4.7,4.7l4.7,3.8l-28.1,15l-28.1-14.1L51.6,114.8z"/>
    <path fill="#CF5252" d="M73.9,126.6l-1.2,5.9l-25.9-12.9l4.7-4.7l1-1L73.9,126.6z"/>
    <path fill="#CF5252" d="M103.1,118.6l-24.7,13.2l-1-5.2l20.5-12.3l0.6,0.6L103.1,118.6z"/>
    <path fill="#FDC9A6" d="M56.3,59.5l-5,1.6c-1.4,0.7-2.6,1.6-3.5,2.8c-1,1.2-1.6,2.6-2,4l-5.9,23.4l-18.8,11.7l-7-2.3l-7,2.3l2.3,11.7
      l34.9-10.9c0.8-0.3,1.6-0.7,2.3-1.2c0.7-0.6,1.2-1.3,1.6-2l8.1-16.3V59.5z"/>
    <path fill="#FDC9A6" d="M93.8,59.5l5,1.6c1.4,0.7,2.6,1.6,3.5,2.8c1,1.2,1.6,2.6,2,4l5.9,23.4l18.8,11.7l7-2.3l7,2.3l-2.3,11.7
      l-34.9-10.9c-0.8-0.3-1.6-0.7-2.3-1.2c-0.7-0.6-1.2-1.3-1.6-2l-8.1-16.3V59.5z"/>
    <path fill="#683B0D" d="M82,18.7l-0.8-4.1c-0.4-2.2-1.6-4.1-3.3-5.5c-1.7-1.4-3.8-2.2-6-2.2c-2.5,0-4.9,1-6.7,2.8
      c-2.8,2.8-5.1,6.2-6.6,9.9c-1.5,3.7-2.3,7.7-2.3,11.7v0.7c0,2.4-0.6,4.8-1.7,6.9c-1.1,2.1-2.8,3.9-4.8,5.2l-0.5,0.4l1.8,0.9
      c2.3,1.1,4.9,1.7,7.4,1.5c2.6-0.2,5-1,7.2-2.4L82,18.7z"/>
    <path fill="#FDC9A6" d="M84.4,56.7L82,56.2v-9.4H68v9.4l-2.3,0.5V68l9.4,7l9.4-7V56.7z"/>
    <path fill="#FDC9A6" d="M82,46.9v2.3c-2,1.5-4.5,2.3-7,2.3s-5-0.8-7-2.3v-2.3H82z"/>
    <path fill="#F1746A" d="M84.4,56.7l9.4,2.8v10.8c1.4,2,2,4.5,1.9,6.9c-0.1,2.5-1,4.8-2.5,6.7l-4.1,5.1H60.9l-4.1-5.1
      c-1.5-1.9-2.4-4.3-2.5-6.7c-0.1-2.5,0.6-4.9,1.9-6.9V59.5l9.4-2.8V68l9.4,7l9.4-7V56.7z"/>
    <path fill="#FDC9A6" d="M60.9,89.1v4c0,2-0.3,4-1,5.9l-1.4,4.1h32.8L90,99c-0.6-1.9-1-3.9-1-5.9v-4H60.9z"/>
    <path fill="#4162AA" d="M103.1,118.6l-4.7-3.8l-0.6-0.6l-20.5,12.3h-3.4l-21.3-12.8l-1,1l-4.7,4.7l25.9,11.7h5.6L103.1,118.6z"/>
    <path fill="#F6BB92" d="M82,46.9v2.3c-2,1.5-4.5,2.3-7,2.3s-5-0.8-7-2.3v-2.3H82z"/>
    <path fill="#5D70B3" d="M79.7,140.6l41-16.8c1.1-0.6,2-1.3,2.8-2.3c0.8-0.9,1.3-2,1.7-3.2c0.3-1.2,0.4-2.4,0.3-3.6
      c-0.1-1.2-0.5-2.3-1.1-3.4c-0.6-1.1-1.4-2-2.4-2.7c-1-0.7-2.1-1.3-3.3-1.5c-1.2-0.3-2.4-0.3-3.7-0.1s-2.4,0.7-3.4,1.4l-34.2,20.4
      L79.7,140.6z"/>
    <path fill="#5D70B3" d="M71.6,140.6l-41-16.8c-1.1-0.6-2-1.3-2.8-2.3c-0.8-0.9-1.3-2-1.7-3.2c-0.3-1.2-0.4-2.4-0.3-3.6
      c0.1-1.2,0.5-2.3,1.1-3.4c0.6-1.1,1.4-2,2.4-2.7c1-0.7,2.1-1.3,3.3-1.5c1.2-0.3,2.4-0.3,3.7-0.1c1.2,0.2,2.4,0.7,3.4,1.4l34.2,20.4
      L71.6,140.6z"/>
    <path fill="#FDC9A6" d="M77.3,128.9l-11.7,2.3l-7-2.3l-4.7,4.7l2.3,7h23.4L77.3,128.9z"/>
    <path fill="#FDC9A6" d="M86.7,32.8v4.7c0,3.1-1.2,6.1-3.4,8.3s-5.2,3.4-8.3,3.4s-6.1-1.2-8.3-3.4s-3.4-5.2-3.4-8.3v-9.4
      c0-1.2,0.2-2.5,0.6-3.7L86.7,32.8z"/>
    <path fill="#683B0D" d="M86.7,28.1v4.7c-7.6,0-15-2.5-21.1-7l-1.8-1.3c0.9-2.6,2.7-4.9,5-6.3c2.4-1.5,5.2-2,8-1.6
      c2.8,0.4,5.3,1.8,7.1,4S86.7,25.3,86.7,28.1z"/>
  </g>
  <g id="decoration-right">
    <path fill="#EA9D2D" d="M128.9,65.6h-5c-1.3,0-2.6-0.4-3.7-1.1c-1.1-0.7-2-1.7-2.6-2.8l-2.7-5.5h14.1V65.6z"/>
    <path fill="#EA9D2D" d="M128.9,65.6h5c1.3,0,2.6-0.4,3.7-1.1c1.1-0.7,2-1.7,2.6-2.8l2.7-5.5h-14.1V65.6z"/>
    <path fill="#FBB540" d="M128.9,46.9l-3.1,4.7c-1,1.5-1.6,3.3-1.6,5.2v0.3c0,1.2,0.2,2.5,0.7,3.6c0.5,1.1,1.2,2.2,2,3l1.9,1.9l1.9-1.9
      c0.9-0.9,1.6-1.9,2-3c0.5-1.1,0.7-2.4,0.7-3.6v-0.3c0-1.9-0.5-3.7-1.6-5.2L128.9,46.9z"/>
  </g>
  <g id="decoration-left">
    <path fill="#029532" d="M21.1,68h-5c-1.3,0-2.6-0.4-3.7-1.1c-1.1-0.7-2-1.7-2.6-2.8L7,58.6h14.1V68z"/>
    <path fill="#029532" d="M21.1,68h5c1.3,0,2.6-0.4,3.7-1.1c1.1-0.7,2-1.7,2.6-2.8l2.7-5.5H21.1V68z"/>
    <path fill="#02A437" d="M21.1,49.2L18,53.9c-1,1.5-1.6,3.3-1.6,5.2v0.3c0,1.2,0.2,2.5,0.7,3.6c0.5,1.1,1.2,2.2,2,3l1.9,1.9L23,66
      c0.9-0.9,1.6-1.9,2-3c0.5-1.1,0.7-2.4,0.7-3.6v-0.3c0-1.9-0.5-3.7-1.6-5.2L21.1,49.2z"/>
  </g>
</svg>
