<svg viewBox="0 0 214 195" fill="none" xmlns="http://www.w3.org/2000/svg">
<g clip-path="url(#clip0)">
<path d="M136.734 151.756L136.989 152.129C137.154 152.372 137.415 152.718 137.712 153.176C137.863 153.398 138.03 153.647 138.212 153.92C138.394 154.193 138.584 154.488 138.79 154.803C139.197 155.438 139.649 156.155 140.131 156.941C140.368 157.336 140.615 157.747 140.872 158.172C141.129 158.597 141.389 159.04 141.65 159.5C141.918 159.953 142.188 160.425 142.462 160.909L143.311 162.383C143.876 163.392 144.485 164.423 145.091 165.483C145.715 166.537 146.351 167.613 147.017 168.683C147.683 169.753 148.37 170.814 149.095 171.838C149.82 172.862 150.553 173.873 151.322 174.812C151.712 175.282 152.088 175.746 152.482 176.186L153.062 176.841C153.256 177.057 153.462 177.258 153.653 177.463C154.037 177.875 154.443 178.253 154.822 178.629C155.201 179.005 155.595 179.346 155.967 179.676C156.322 179.997 156.7 180.292 157.097 180.56C157.462 180.798 157.845 181.009 158.242 181.189C158.6 181.343 158.968 181.474 159.342 181.582C159.675 181.668 160.015 181.731 160.357 181.769C160.865 181.833 161.378 181.833 161.886 181.769C162.083 181.747 162.277 181.71 162.468 181.657L162.918 180.841C162.866 180.653 162.804 180.468 162.732 180.286C162.552 179.839 162.342 179.405 162.104 178.986C161.779 178.42 161.403 177.885 160.983 177.386C160.472 176.789 159.898 176.247 159.273 175.771C158.943 175.498 158.6 175.208 158.249 174.9C157.898 174.592 157.542 174.269 157.189 173.916C156.466 173.232 155.723 172.472 154.972 171.661C154.221 170.85 153.46 169.979 152.701 169.074C151.942 168.169 151.172 167.228 150.416 166.274C149.66 165.32 148.886 164.348 148.133 163.398C147.364 162.451 146.619 161.504 145.863 160.607C145.107 159.71 144.372 158.841 143.643 158.039C142.914 157.237 142.208 156.493 141.543 155.822L140.567 154.877C140.247 154.588 139.944 154.312 139.658 154.055C139.076 153.549 138.566 153.115 138.121 152.782C137.676 152.449 137.339 152.191 137.102 152.018L136.734 151.756Z" fill="#456428"/>
<path d="M68.603 194.287C86.203 187.44 93.241 185.43 112.52 177.03C122.905 172.508 134.938 167.241 146.572 162.614C138.886 169.229 124.855 180.631 112.954 185.907C98.9837 191.984 83.8275 194.848 68.603 194.287Z" fill="#658A2F"/>
<path d="M85.003 193.077C82.444 193.318 71.849 193.971 71.849 193.971C74.863 192.736 89.762 186.305 89.78 186.3C83.465 188.685 77.334 190.892 68.606 194.287C78.2328 194.682 87.8656 193.667 97.199 191.276C97.158 191.276 94.232 191.864 93.099 192.067C92.329 192.2 87.696 192.827 85.003 193.077Z" fill="#456428"/>
<path d="M39.837 182.974C49.221 180.431 64.048 177.963 70.28 177.056C83.822 175.074 91.897 173.311 101.372 171.28C119.915 167.308 125.687 167.343 146.572 162.614C131.26 171.424 121.239 177.322 103.424 181.867C63.096 192.146 39.837 182.974 39.837 182.974Z" fill="#658A2F"/>
<path d="M34.079 66.3C34.079 66.3 56.425 89.5 67.049 98.374C73.949 104.137 92.137 119.746 98.498 125.583C103.205 129.895 115.198 140.011 122.642 147.519C126.642 151.56 134.865 155.548 140.114 158.649C135.097 152.756 98.014 133.382 91.198 128.785C77.34 119.585 63.975 104.544 52.86 92.429C47.53 86.505 34.079 66.3 34.079 66.3Z" fill="#456428"/>
<path d="M48.293 82.678C53.219 93.478 98.803 127.899 106.493 135.619C101.242 132.198 91.513 124.54 85.566 120.148C83.335 118.505 78.215 114.548 69.7 107.064C68.937 106.4 48.703 83.583 48.293 82.678Z" fill="#7FA531"/>
<path d="M64.383 2.11304C78.647 33.949 92.656 65.113 106.757 91.283C118.95 113.317 129.745 144.236 146.744 162.537C141.156 138.46 131.62 112.85 121.344 90.546C110.044 66.037 106.877 59.141 86.605 31.623C85.79 30.519 64.925 3.31004 64.383 2.11304Z" fill="#658A2F"/>
<path d="M145.993 161.073C145.993 161.073 142.516 157.279 141.31 155.544C140.371 154.181 137.365 150.136 135.924 148.183C139.09 153.286 142.717 158.088 146.761 162.528C145.634 157.668 144.354 152.772 142.923 147.84C144.368 154.611 145.656 159.796 145.844 160.403L145.993 161.073Z" fill="#456428"/>
<path d="M70.046 11.037C70.046 11.037 74.079 16.823 76.2 19.289C78.321 21.755 83.969 29.132 85.356 30.789C85.89 31.3638 86.4836 31.88 87.127 32.329C86.951 32.094 86.781 31.859 86.605 31.619C85.79 30.519 64.925 3.30601 64.383 2.10901C67.673 9.44901 70.9463 16.733 74.203 23.961C73.403 21.066 72.444 17.644 72.025 16.331C71.244 13.887 70.046 11.037 70.046 11.037Z" fill="#456428"/>
<path d="M75.889 23.126C79.689 28.005 91.301 52.513 93.735 58.626C98.1644 69.2355 103.446 79.4689 109.527 89.226C113.901 96.373 113.538 96.049 121.57 114.956C126.892 127.475 131.5 139.077 141.357 151.066C130.095 112.4 94.711 47.3 75.889 23.126Z" fill="#456428"/>
<path d="M93.43 55.554C96.324 58.095 113.666 93.054 114.973 97.24C117.373 105.24 128.357 127.054 136.637 139.927C125.931 120.614 116.815 92.146 107.384 78.082C107.031 77.557 93.959 56.021 93.43 55.554Z" fill="#7FA531"/>
<path d="M102.066 81.4171C81.25 51.2681 69.077 35.5171 51.656 13.5171C51.144 12.8671 46.034 6.30505 45.567 5.73805C45.0301 5.09405 44.4472 4.4898 43.823 3.93005C44.132 6.53005 45.901 10.5451 46.903 13.0861C47.025 13.4001 47.143 13.7201 47.266 14.0461C47.2759 14.0664 47.2842 14.0875 47.291 14.1091V14.1001C56.434 37.9371 77.837 81.5661 85.218 93.5701C99.175 116.03 122.503 150.155 146.503 162.649L146.759 162.528C142.496 139.1 115.821 101.345 102.066 81.4171Z" fill="#658A2F"/>
<path d="M146.761 162.528C145.197 153.94 140.629 143.465 134.785 132.603C135.862 135.058 137.018 137.895 138.061 140.89C142.273 152.958 143.72 157.473 143.72 157.473C139.235 154.745 134.926 151.736 130.82 148.464C124.352 143.481 117.263 136.016 117.128 137.774C126.362 148.254 136.377 157.374 146.504 162.649L146.761 162.528Z" fill="#658A2F"/>
<path d="M51.672 13.5291C51.216 12.9581 46.038 6.30205 45.572 5.73705C45.0335 5.09322 44.4489 4.4893 43.823 3.93005C44.179 6.91405 46.459 11.7731 47.291 14.1091C46.791 12.3321 46.591 11.5721 45.998 9.73405C45.482 8.15005 44.544 5.36805 44.489 5.13405C44.489 5.13105 49.865 11.6511 51.672 13.5291Z" fill="#456428"/>
<path d="M53.031 19.9901C61.368 36.0761 86.792 83.4431 96.664 99.3391C106.536 115.235 110.927 120.378 122.793 135.256C126.345 139.619 131.754 144.327 135.249 149.281C137.684 152.734 139.483 153.511 139.483 153.511C134.157 144.216 131.583 137.53 128.207 131.239C122.183 120.039 121.752 117.884 116.349 110.276C105.649 94.9571 95.64 79.9271 83.849 65.1251C78.665 58.6001 58.325 26.4001 53.031 19.9901Z" fill="#456428"/>
<path d="M129.157 138.079C122.935 123.706 79.717 60.873 71.148 50.134C77.384 63.076 110.148 115.021 119.753 126.934L129.157 138.079Z" fill="#7FA531"/>
<path d="M33.542 24.6899C41.377 43.7489 45.611 58.0109 67.542 89.6649C88.385 119.74 133.695 153.745 146.535 162.631C129.149 138.841 107.278 112.564 98.248 102.709C89.726 93.4089 74.336 78.5829 58.848 57.3379C47.128 41.2569 33.542 24.6899 33.542 24.6899Z" fill="#658A2F"/>
<path d="M79.477 99.733C70.695 88.971 49.192 61.708 40.638 36.191C57.253 66.084 82.667 90.774 96.866 106.976C107.996 119.469 126.11 139.218 135.296 150.892C119.477 140.019 90.793 114.344 79.477 99.733Z" fill="#456428"/>
<path d="M65.803 77.7C72.35 90.567 108.162 127.531 120.263 136.011C113.523 128.162 97.128 112.753 81.196 94.394C70.408 81.957 60.196 67.31 51.938 56.035L65.803 77.7Z" fill="#7FA531"/>
<path d="M35.392 27.625C35.392 27.625 40.859 34.425 45.572 40.788C46.272 41.737 51.028 47.44 52.416 48.688C42.666 35.817 33.542 24.688 33.542 24.688C36.559 32.022 39.042 38.652 42.207 45.834C41.3405 42.8632 40.2738 39.9545 39.014 37.128C36.912 32.253 35.392 27.625 35.392 27.625Z" fill="#456428"/>
<path d="M19.817 49.5C36.472 75.619 54.066 97.8 75.485 118.342C94.611 135.896 123.21 151.066 146.418 162.624C127.608 145.059 112.085 132.404 82.018 106.54C71.958 97.879 61.35 88.282 51.403 79.179C41.626 70.486 19.817 49.5 19.817 49.5Z" fill="#658A2F"/>
<path d="M34.079 66.3C34.079 66.3 56.425 89.5 67.049 98.374C73.949 104.137 92.137 119.746 98.498 125.583C103.205 129.895 115.198 140.011 122.642 147.519C126.642 151.56 134.865 155.548 140.114 158.649C135.097 152.756 98.014 133.382 91.198 128.785C77.34 119.585 63.975 104.544 52.86 92.429C47.53 86.505 34.079 66.3 34.079 66.3Z" fill="#456428"/>
<path d="M48.293 82.678C53.219 93.478 98.803 127.899 106.493 135.619C101.242 132.198 91.513 124.54 85.566 120.148C83.335 118.505 78.215 114.548 69.7 107.064C68.937 106.4 48.703 83.583 48.293 82.678Z" fill="#7FA531"/>
<path d="M160.009 24.426C159.194 48.315 159.049 70.071 157.009 94.571C154.963 118.052 151.277 128.03 146.573 162.612C156.69 140.227 165.351 120.024 168.714 92.121C171.278 70.873 167.403 43.982 160.056 24.177L160.009 24.426Z" fill="#658A2F"/>
<path d="M160.009 24.426C159.814 30.14 159.654 35.726 159.501 41.269C159.721 40.2558 159.858 39.2264 159.911 38.191C160.148 35.542 160.604 27.641 160.604 27.641C160.604 27.641 162.416 32.387 162.738 33.641C163.56 36.833 163.91 38.06 164.413 39.966C164.78 41.5911 165.276 43.1842 165.898 44.73C164.454 37.7464 162.502 30.8778 160.056 24.179L160.009 24.426Z" fill="#456428"/>
<path d="M161.396 34.316C161.396 34.316 163.25 64.4 162.033 76.829C161.245 84.901 159.723 106.777 158.213 114.423C156.999 120.579 155.574 131.304 155.168 137.196C156.911 130.282 161.415 121.996 162.887 114.737C165.967 100.048 167.474 74.061 166.956 59.237C166.629 52.054 161.396 34.316 161.396 34.316Z" fill="#456428"/>
<path d="M164.01 53.73C165.551 59.62 164.126 81.38 161.533 100.176C159.56 114.495 156.397 126.758 156.371 131.006C157.571 125.487 161.208 108.679 162.255 102.095C162.649 99.629 163.455 91.646 164.229 81.453C164.759 74.591 164.238 54.6 164.01 53.73Z" fill="#7FA531"/>
<path d="M24.938 55.424C24.925 55.409 26.996 57.624 26.996 57.624C27.0023 57.6316 27.0094 57.6386 27.017 57.645C27.296 57.921 30.148 60.745 33.647 64.067C37.325 67.567 49.383 78.49 51.794 79.542C51.661 79.424 51.524 79.298 51.394 79.18C41.626 70.486 19.817 49.5 19.817 49.5C24.159 56.31 28.5813 62.8633 33.084 69.16C31.819 66.729 30.23 64.096 29.284 62.669C26.015 57.745 25.114 55.6 24.938 55.424Z" fill="#456428"/>
<path d="M2.78796 67.311C25.186 97.642 54.903 120.143 88.045 137.8C107.021 148.016 127.245 157.494 146.537 162.627C131.851 153.745 130.546 152.095 118.137 144.863C103.037 136.063 83.224 121.709 70.637 113.573C45.813 97.519 38.523 90.6 14.426 75.27L2.78796 67.311Z" fill="#658A2F"/>
<path d="M33.553 88.38C34.6626 89.1279 35.8145 89.811 37.003 90.426C30.679 85.96 23.832 81.257 14.426 75.27L2.78796 67.311C8.92757 75.6086 15.6741 83.4394 22.972 90.739C18.703 85.224 9.76396 74.086 9.76396 74.086C18.524 78.629 25.76 83.378 33.553 88.38Z" fill="#456428"/>
<path d="M35.265 95.232C37.985 97.66 60.416 112.477 63.365 115.272C68.624 120.239 96.824 136.503 96.824 136.503C96.824 136.503 124.38 150.729 126.224 152.22C122.779 152 84.403 133.747 69.546 124.8C67.225 123.4 56.908 116.439 55.133 115C49.719 110.634 47.588 108.807 41.293 103.693C38.826 101.693 24.3 89.308 23.603 86.14L35.265 95.232Z" fill="#456428"/>
<path d="M95.179 137.623C90.07 133.013 72.318 123.579 62.891 116.386C58.117 112.742 42.683 102.065 37.753 98.838C42.9915 103.84 48.5094 108.54 54.28 112.917C59.9009 117.077 65.7818 120.874 71.887 124.284C77.748 127.544 95.179 137.623 95.179 137.623Z" fill="#7FA531"/>
<path d="M173.412 112.458C164.86 131.251 154.912 144.901 146.612 162.558C158.09 149.276 169.32 135.941 178.863 120.204C189.956 102.56 196.516 76.815 198.694 56.283C194.803 59.76 181.346 95.029 173.412 112.458Z" fill="#658A2F"/>
<path d="M193.924 64.693C194.944 63.015 195.866 61.521 196.279 60.942C196.885 60.131 197.416 59.2672 197.867 58.361C197.867 58.361 197.267 62.871 197.227 65.135C197.192 67.135 197.143 67.346 197.127 67.557C197.786 63.69 198.308 59.91 198.693 56.288C197.674 57.2 195.991 60.3 193.924 64.693Z" fill="#456428"/>
<path d="M171.683 120.658C173.874 116.324 183.246 97.4289 185.218 93.6109C187.705 88.7919 192.77 77.0239 193.695 74.4559C193.508 78.1919 187.838 94.9649 186.981 97.4289C184.653 104.101 180.281 112.145 177.281 118.329C175.323 122.346 171.646 126.891 169.412 130.622C167.582 133.681 154.797 150.434 154.412 150.997C162.276 139.742 168.12 127.553 171.683 120.658Z" fill="#456428"/>
<path d="M187.508 89.88C186.562 94.725 179.339 106.28 177.543 110.96C173.888 119.806 169.661 128.404 164.889 136.7C168.572 132.614 177.25 111.768 179.789 106.917C181.869 103.117 187.441 92.975 187.506 89.881" fill="#7FA531"/>
<path d="M166.35 102.954C160.569 122.645 152.201 142.965 146.596 162.515C172.15 127.273 187.615 85.48 186.074 41.6C182.788 51.932 171.128 86.688 166.35 102.954Z" fill="#658A2F"/>
<path d="M176.403 71.17C177.503 67.992 179.078 64.984 179.721 63.149C182.099 56.368 184.933 50.349 185.067 48.897C185.067 48.897 184.899 61.597 184.554 64.83C184.1 68.524 183.862 72.2413 183.841 75.963C185.721 64.6109 186.469 53.1 186.074 41.6C184.382 46.925 180.463 58.745 176.403 71.17Z" fill="#456428"/>
<path d="M182.919 61.105C182.614 64.693 177.899 79.765 176.519 83.341C174.075 90.294 171.88 95.398 170.531 102.435C169.58 107.223 169.438 107.268 165.4 118.527C162.726 125.983 158.5 138.92 155.052 148.183C169.277 124.432 181.416 78.881 182.919 61.105Z" fill="#456428"/>
<path d="M177.992 81.052C178.226 83.28 171.833 105.973 170.738 108.276C168.606 112.642 162.865 126.281 160.905 135.131C163.957 122.644 172.905 106.531 174.43 96.794C174.484 96.432 178.036 81.463 177.992 81.052Z" fill="#7FA531"/>
<path d="M12.092 104.724C26.153 118.855 44.173 129.724 78.128 144.911C100.746 155.03 120.968 159.772 146.614 162.563C124.139 152.186 94.791 140.48 72.774 129.647C49.753 118.325 19.28 102.13 2.315 93.5859C2.315 93.5859 11.293 103.918 12.092 104.724Z" fill="#658A2F"/>
<path d="M5.76903 96.4539C5.76903 96.4539 12.162 99.4779 13.777 100.248C15.392 101.018 17.428 101.876 18.819 102.524C19.5771 102.891 20.3545 103.216 21.148 103.498C14.148 99.8679 7.79403 96.5979 2.67603 94.0199C2.67603 94.0199 11.651 104.353 12.453 105.155C14.571 107.285 16.777 109.337 19.113 111.338C17.264 109.138 13.184 105.347 11.53 103.345C7.84203 98.8599 5.76903 96.4539 5.76903 96.4539Z" fill="#456428"/>
<path d="M93.724 147.569C84.042 144.427 72.406 139.056 65.534 135.81C56.558 131.561 48.234 126.769 41.049 122.575C31.449 116.975 27.134 114.617 19.149 107.198C17.569 105.757 14.735 103.814 13.559 102.047C24.413 108.561 40.061 115 51.169 121.96C60.503 127.816 69.303 131.128 77.603 134.81C95.768 142.47 117.19 152.347 131.426 158.192C131.425 158.192 104.518 151.074 93.724 147.569Z" fill="#456428"/>
<path d="M91.687 145.9C72.772 138.3 45.26 124.4 30.187 112.845C41.661 119.364 63.937 132.274 74.957 137.162C81.94 140.326 101.35 147.53 108.082 150.842C108.077 150.844 92.634 146.28 91.687 145.9Z" fill="#7FA531"/>
<path d="M0.802979 115.118C27.636 143.932 101.075 169.105 146.632 162.577C126.841 155.417 84.97 148.157 44.832 133.077C35.496 129.574 0.802979 115.118 0.802979 115.118Z" fill="#658A2F"/>
<path d="M17.915 122.2C8.66898 118.4 0.802979 115.118 0.802979 115.118C3.25569 117.722 5.88204 120.156 8.66398 122.405C8.66398 122.405 5.85098 119.782 4.98898 118.826C4.64298 118.44 3.70198 117.194 3.70198 117.194C4.65158 117.333 5.58311 117.576 6.47998 117.918C9.58898 119.005 14.673 121.041 17.915 122.2Z" fill="#456428"/>
<path d="M9.57697 121.565C9.57697 121.565 36.271 133.029 48.208 136.686C55.967 139.063 76.553 145.669 83.883 148.293C89.305 150.23 99.844 155.593 112.52 157.168C118.463 158.043 124.325 159.395 130.051 161.21C122.997 160.164 89.16 154.485 81.89 153.051C67.144 150.251 43.061 141.324 29.58 135.145C23.076 132.086 9.57697 121.565 9.57697 121.565Z" fill="#456428"/>
<path d="M25.625 130.31C34.163 136.81 84.832 150.178 93.925 153.896C88.371 152.896 77.434 148.854 70.95 147.286C68.521 146.701 60.844 144.373 51.135 141.174C44.603 139.019 26.337 130.853 25.625 130.31Z" fill="#7FA531"/>
<path d="M146.579 162.631C103.422 160.823 57.584 149.141 12.735 141.731C40.966 166.746 104.056 171.01 146.579 162.631Z" fill="#658A2F"/>
<path d="M146.638 162.6C138.747 162.639 131.238 162.753 123.775 162.881C109.203 163.138 94.819 163.481 78.219 163.586C59.509 163.704 39.741 165.621 25.158 163.321C40.114 174.211 62.524 174.863 78.888 174.921C96.265 174.985 101.288 174.068 115.459 171.054C124.656 169.1 146.638 162.6 146.638 162.6Z" fill="#658A2F"/>
<path d="M31.556 166.2C31.161 165.92 29.239 164.9 29.239 164.9C29.239 164.9 37.939 164.406 39.991 164.428C35.0255 164.404 30.0676 164.037 25.153 163.328C31.781 168.155 39.877 170.971 48.265 172.613C47.887 172.5 40.957 170.413 38.484 169.562C36.0249 168.78 33.6915 167.648 31.556 166.2Z" fill="#456428"/>
<path d="M19.16 145.823C17.69 144.794 14.871 142.641 14.871 142.641C14.871 142.641 22.285 144.084 24.284 144.603C26.251 145.114 34.946 145.698 36.554 145.976C28.595 144.476 20.654 143.036 12.735 141.726C18.4077 146.592 24.783 150.573 31.645 153.534C30.456 152.697 27.734 151.517 25.945 150.347C21.022 147.124 20.503 146.765 19.16 145.823Z" fill="#456428"/>
<path d="M65.98 154.416C61.5 153.758 57.094 152.916 52.458 151.774C42.8341 149.502 33.0807 147.818 23.252 146.733C25.6333 148.194 28.1182 149.479 30.687 150.577C33.2973 151.675 35.9731 152.61 38.699 153.377C41.788 154.177 44.865 154.987 47.66 155.869C52.9543 157.532 58.419 158.594 63.951 159.035C69.075 159.601 114.951 164.024 119.886 162.566C115.703 161.657 72.117 155.319 65.98 154.416Z" fill="#456428"/>
<path d="M108.584 161.688C103.168 162.253 59.384 157.172 50.677 154.881C48.171 154.218 43.243 153.33 41.034 152.612C38.5473 151.818 36.1114 150.873 33.74 149.782C33.74 149.782 65.231 158.711 108.584 161.688Z" fill="#7FA531"/>
<path d="M38.949 167.373C42.467 168.123 58.257 167.964 62.08 167.683C69.447 167.358 74.965 166.732 82.087 167.483C86.942 167.949 87.031 167.825 98.976 167.218C106.887 166.818 120.494 166.518 130.36 165.888C103.51 172.63 56.403 171.075 38.949 167.373Z" fill="#456428"/>
<path d="M59.466 168.429C61.531 169.299 85.097 169.74 87.625 169.356C92.425 168.577 107.135 167.028 116.178 167.71C103.337 167.02 85.33 170.931 75.564 169.567C75.203 169.518 59.843 168.586 59.466 168.429Z" fill="#7FA531"/>
<path d="M42.653 183.134C42.653 183.134 48.109 181.581 49.544 181.194C51.3142 180.784 53.0606 180.277 54.775 179.675C49.556 180.663 44.129 181.815 39.837 182.975C39.837 182.975 45.415 185.175 55.83 186.211C54.051 185.693 50.23 185.049 49.569 184.929C47.2144 184.54 44.8997 183.939 42.653 183.134Z" fill="#456428"/>
<path d="M102.356 176.247C97.614 177.247 77.274 180.177 73.078 181.096C68.4306 182.058 63.7309 182.747 59.003 183.159C62.662 183.941 73.138 184.202 75.742 184.004C82.787 183.477 93.108 181.104 99.859 179.79C104.246 178.936 108.394 177.818 112.572 176.622C115.997 175.642 135.483 167.61 136.12 167.389C123.227 172.087 109.944 174.584 102.356 176.247Z" fill="#456428"/>
<path d="M75.781 182.426C80.139 182.583 89.486 179.697 93.848 179.106C102.125 177.773 110.309 175.911 118.348 173.531C114.155 175.817 94.592 179.017 89.948 180.204C86.294 181.204 78.474 182.978 75.783 182.426" fill="#7FA531"/>
<path d="M89.7519 188.646C91.4309 188.261 103.266 183.684 105.14 183.317C108.49 182.654 122.457 176.247 122.457 176.247C122.457 176.247 135.885 169.976 136.543 169.234C135.517 170.502 118.003 180.272 110.498 183.54C109.327 184.05 103.83 186.117 102.79 186.408C99.6319 187.297 98.3469 187.619 94.6609 188.64C93.2119 189.04 84.4789 191.245 83.0699 190.645L89.7519 188.646Z" fill="#456428"/>
<path d="M92.974 188.269C96.826 188.487 117.634 178.846 120.931 177.656C119.172 178.668 112.015 181.717 109.849 182.764C109.04 183.153 107.509 183.709 104.072 185.025C103.762 185.143 93.293 188.287 92.974 188.269Z" fill="#7FA531"/>
<path d="M112.981 10.1541C116.72 20.8821 120.532 33.3201 123.681 43.9711C128.126 59.0111 130.443 71.398 132.869 84.6031C135.543 99.232 137.845 109.422 139.498 124.078C141.065 135.678 141.57 150.546 146.628 162.578C163.113 111.235 143.342 50.6251 114.274 11.6551L112.981 10.1541Z" fill="#658A2F"/>
<path d="M116.924 19.417C116.502 17.608 115.552 14.534 115.552 14.534C115.552 14.534 117.145 16.505 120.088 20.371C120.526 21.0065 121.011 21.6082 121.539 22.171C119.199 18.523 116.776 15.018 114.27 11.656L112.981 10.156C115.329 16.888 117.704 24.293 119.925 31.506C119.016 27.347 117.508 21.938 116.924 19.417Z" fill="#456428"/>
<path d="M140.456 78.8801C138.214 68.6681 132.211 43.2391 121.172 26.2661C131.023 50.0381 133.68 76.5661 136.589 92.5161C138.747 104.916 141.912 124.833 144.494 135.709C145.487 121.3 143.771 92.3821 140.456 78.8801Z" fill="#456428"/>
<path d="M133.864 60.51C136.708 72.136 143.417 108.784 142.754 119.888C141.283 112.241 139.868 95.374 136.5 77.393C134.214 65.213 130.361 52.3431 127.58 42.201L133.864 60.51Z" fill="#7FA531"/>
<path d="M95.893 19.513C105.571 47.213 109.466 61.649 116.693 84.57C124.22 108.436 133.271 139.763 146.538 162.552C146.118 137.793 142.327 122.561 134.968 93.535C131.08 78.229 122.312 56.716 113.989 42.815C106.468 30.255 97.403 12.477 89.116 0L95.893 19.513Z" fill="#658A2F"/>
<path d="M89.116 0L95.893 19.513C97.023 22.74 98.068 25.785 99.053 28.689C97.961 24.289 95.417 16.404 94.409 13.504C93.169 9.936 92.082 6.993 91.976 6.704C91.9743 6.69588 91.9712 6.6881 91.967 6.681C91.967 6.681 91.057 4.492 91.067 4.505C92.4115 6.25242 93.6658 8.06746 94.825 9.943C95.475 10.984 100.894 20.076 102.813 22.877C98.266 14.809 93.546 6.666 89.116 0Z" fill="#456428"/>
<path d="M97.903 19.2371C97.903 19.2371 109.794 49.1671 113.485 62.5091C115.885 71.1771 122.573 94.1901 125.259 102.397C127.243 108.466 132.381 123.76 136.144 133.646C138.166 138.962 142.903 148.738 143.56 154.797C140.266 147.797 132.009 105.717 130.641 97.6161C127.985 81.1951 120.105 62.6931 113.669 47.5641C110.473 40.2591 97.903 19.2371 97.903 19.2371Z" fill="#456428"/>
<path d="M104.375 32.833C111.539 42.233 127.697 104.419 131.543 114.616C130.596 108.425 127.643 96.398 126.105 89.162C125.53 86.462 123.48 80.525 120.186 69.683C119.894 68.708 104.979 33.625 104.375 32.833Z" fill="#7FA531"/>
<path d="M140.015 33.637C144.829 55.324 145.526 74.907 146.589 97.143C148.057 119.161 145.554 129.462 146.614 162.563C159.885 120.705 163.321 54.976 137.067 16.735C137.607 22.4373 138.593 28.0885 140.015 33.637Z" fill="#658A2F"/>
<path d="M137.067 16.735C137.607 22.4366 138.593 28.0872 140.015 33.635C140.959 37.887 141.743 42.059 142.403 46.183C142.019 41.447 141.503 37.583 141.121 35.457C140.206 30.306 138.804 21.457 138.804 21.457C142.035 26.4895 144.695 31.8663 146.735 37.488C147.86 40.488 149.791 46.494 150.175 47.559C150.559 48.624 151.651 52.379 152.135 53.717C152.335 54.276 153.052 56.517 153.052 56.517C149.981 41.744 144.828 28.039 137.067 16.735Z" fill="#456428"/>
<path d="M146.239 51.35C146.877 54.939 147.716 81.811 148.551 85.78C150.02 92.864 149.44 125.423 149.44 125.423C149.44 125.423 147.156 152.074 147.456 154.43C148.009 151.543 153.233 113.395 153.415 96.045C153.443 93.339 152.929 80.903 152.644 78.639C151.763 71.739 151.332 68.964 150.279 60.923C149.864 57.769 145.741 41.64 144.036 35.478L146.239 51.35Z" fill="#456428"/>
<path d="M150.565 124.778C149.828 118.078 150.924 97.77 149.745 85.968C149.154 79.991 148.158 61.249 148.001 55.363C149.505 62.4468 150.611 69.6094 151.312 76.817C151.902 83.784 152.048 90.7815 151.748 97.767C151.447 104.472 150.565 124.778 150.565 124.778Z" fill="#7FA531"/>
<path d="M176.088 143.608C167.151 150.08 159.2 154.573 146.621 162.575C156.342 159.69 171.5 154.717 182.306 147.456C196.474 137.933 203.037 121.876 203.037 121.876C190.108 132.084 184.436 137.557 176.088 143.608Z" fill="#658A2F"/>
<path d="M200.703 126.585C201.564 125.058 202.341 123.486 203.033 121.876C200.716 123.709 198.633 125.386 196.719 126.942H196.777C198.152 126.057 199.742 124.856 200.097 124.613C201.019 123.974 202.074 123.213 202.074 123.213C202.074 123.213 200.092 126.64 199.831 127.213C198.964 128.891 198.01 130.523 196.971 132.1C196.353 132.952 195.814 133.858 195.36 134.808H195.368C197.332 132.192 199.115 129.445 200.703 126.585Z" fill="#456428"/>
<path d="M157.839 156.943C161.272 155.316 169.881 150.068 172.3 148.677C175.261 146.977 188.271 136.577 188.271 136.577C188.271 136.577 199.226 126.966 199.711 126.103C198.978 127.558 189.318 138.89 179.055 146.224C178.011 146.968 171.685 150.724 170.735 151.224C167.842 152.77 166.023 153.599 162.647 155.395C161.319 156.101 152.931 159.752 150.954 160.178C150.954 160.178 156.071 157.782 157.839 156.943Z" fill="#456428"/>
<path d="M161.69 155.081C166.55 152.742 171.228 150.04 175.683 147C180.915 143.546 185.91 139.744 190.633 135.621C189.092 136.948 180.004 144.689 177.233 146.509C176.06 147.279 173.333 149.047 171.979 149.809C169.468 151.24 161.988 154.966 161.69 155.081Z" fill="#7FA531"/>
<path d="M213.666 91.791C200.395 107.433 186.691 123.073 177.99 132.491C168.673 142.569 159.943 149.838 146.531 162.614C157.749 156.919 178.194 144.271 190.023 131.876C204.674 116.525 213.666 91.791 213.666 91.791Z" fill="#658A2F"/>
<path d="M198.596 109.343C200.354 107.743 202.786 105.043 203.52 104.359C204.749 103.216 209.128 97.928 209.879 97.102C210.63 96.276 211.551 95.351 211.551 95.351C211.551 95.351 209.167 101.2 208.299 103.206C207.97 103.966 207.732 104.761 207.588 105.576C209.852 101.089 211.88 96.4883 213.666 91.791C208.603 97.754 203.481 103.719 198.596 109.343Z" fill="#456428"/>
<path d="M182.489 129.9C184.81 127.737 187.003 125.5 189.227 123C193.866 117.857 198.815 113.003 204.047 108.465C203.254 110.253 202.333 111.982 201.291 113.638C200.228 115.311 199.058 116.914 197.791 118.438C196.329 120.131 194.881 121.824 193.619 123.444C191.233 126.511 188.507 129.299 185.495 131.754C182.772 134.117 158.1 154.937 154.678 156.064C156.727 153.866 179.315 132.866 182.489 129.9Z" fill="#456428"/>
<path d="M199.219 114.394C187.596 127.785 174.746 140.059 160.837 151.056L199.219 114.394Z" fill="#7FA531"/>
<path d="M212.487 71.452C201.459 82.733 187.544 104.844 178.701 117.507C172.801 125.961 165.87 135.489 161.34 141.649C156.74 147.907 152.24 154.113 146.632 162.577C163.284 147.76 170.258 142.606 181.449 129.786C197.014 111.954 212.487 71.452 212.487 71.452Z" fill="#658A2F"/>
<path d="M198.324 88.968C198.911 88.478 199.78 87.399 200.348 86.785C203.426 83.425 208.907 76.106 210.075 75.085C210.075 75.085 206.067 85.272 205.583 86.274C205.296 86.866 203.534 91.185 203.133 92.16C202.793 93.0954 202.512 94.0513 202.292 95.022C208.392 82.179 212.487 71.454 212.487 71.454C207.363 76.9544 202.631 82.8067 198.324 88.968Z" fill="#456428"/>
<path d="M196.503 97.785C195.403 99.929 185.095 114.349 183.941 116.763C181.88 121.063 168.176 138.418 168.176 138.418C168.176 138.418 161.932 146.108 160.04 148.018C162.112 147.064 175.351 133.118 182.388 124.096C183.488 122.683 188.188 115.966 188.947 114.657C191.247 110.693 192.128 109.057 194.788 104.427C195.835 102.607 201.855 91.56 201.534 89.444L196.503 97.785Z" fill="#456428"/>
<path d="M169.636 138.039C171.691 133.997 180.385 123.997 184.489 117.339C186.568 113.967 193.546 103.75 195.816 100.602C193.774 104.918 191.487 109.114 188.968 113.17C186.493 117.059 183.772 120.785 180.821 124.326C177.983 127.719 169.636 138.039 169.636 138.039Z" fill="#7FA531"/>
<path d="M166.181 145.353C166.709 144.865 167.106 144.503 167.106 144.503C167.106 144.503 163.44 147.374 162.34 148.415C161.896 148.836 159.84 150.543 157.54 152.428C157.65 152.294 157.759 152.164 157.854 152.042C157.429 152.43 157.003 152.822 156.575 153.218C153.422 155.8 150.175 158.43 150.175 158.43C150.502 158.002 152.075 155.515 153.685 152.978C156.048 149.261 159.114 144.759 159.114 144.759L159.081 144.743C157.044 147.532 154.988 150.391 152.809 153.509C156.686 147.6 160.272 141.534 163.567 135.309C161.011 139.345 157.688 144.803 157.046 145.909C156.504 146.828 153.93 151.086 151.728 154.309C150.136 156.634 148.191 159.309 148.191 159.309C148.191 159.309 149.554 153.628 150.526 151.072C150.953 149.935 152.994 142.566 152.191 144.934C150.217 150.729 148.342 156.496 146.7 162.194C146.643 161.894 146.584 161.586 146.517 161.281C146.517 161.069 146.511 160.851 146.506 160.641C146.506 160.569 146.506 160.496 146.499 160.427C146.485 159.819 146.471 159.214 146.458 158.611C146.458 158.53 146.458 158.447 146.452 158.362C146.435 157.754 146.415 157.157 146.402 156.567L146.393 156.375C146.376 155.753 146.353 155.139 146.331 154.529C146.329 154.521 146.329 154.512 146.331 154.504C146.261 152.574 146.17 150.69 146.065 148.833C146.065 148.826 146.065 148.824 146.065 148.822C146.037 148.201 145.996 147.592 145.957 146.981V146.974C145.963 147.758 145.926 150.194 146.009 152.953C146.067 154.695 146.033 157.338 145.995 159.053C145.895 158.635 145.777 158.215 145.661 157.792C145.761 158.55 145.877 159.247 145.984 159.853C145.973 160.404 145.962 160.747 145.962 160.747C145.754 160.382 145.295 159.656 144.834 158.875C144.387 158.111 141.163 151.417 139.195 148.262C140.563 151.225 141.973 154.123 143.44 156.921C144.569 159.003 145.592 160.874 146.203 161.959C146.231 162.003 146.257 162.048 146.28 162.094C146.275 162.11 146.268 162.125 146.259 162.14C146.259 162.14 146.207 162.105 146.11 162.04C144.64 160.029 143.136 158.003 141.616 155.971C142.481 157.317 143.644 159.107 143.849 159.442C144.19 159.976 144.849 160.918 144.849 160.918C144.849 160.918 144.531 160.718 144.107 160.464C142.057 158.564 140.035 156.714 138.023 154.897C139.101 156.182 140.25 157.407 141.463 158.565C141.92 158.971 142.316 159.324 142.653 159.624C142.427 159.494 142.191 159.38 141.948 159.285C140.67 158.422 139.202 157.414 137.674 156.338C132.833 152.925 123.306 144.13 115.703 136.123C124.458 146.271 133.953 155.31 143.618 161.034C143.376 160.938 143.124 160.871 142.867 160.834C136.378 157.834 129.267 154.567 122.267 151.574C124.836 153.038 128.825 154.91 129.667 155.314C133.327 157.073 137.278 158.485 138.687 159.196C140.096 159.907 142.502 160.923 142.502 160.923C142.502 160.923 142.073 160.885 141.362 160.823C141.284 160.799 141.209 160.775 141.125 160.751C140.987 160.707 140.853 160.668 140.718 160.624C140.492 160.555 140.263 160.488 140.034 160.418L139.628 160.293C139.394 160.222 139.157 160.153 138.911 160.079C138.785 160.041 138.656 160.002 138.528 159.968C138.274 159.895 138.017 159.816 137.76 159.741C137.636 159.709 137.521 159.67 137.397 159.635C137.128 159.56 136.856 159.485 136.585 159.406C136.472 159.371 136.355 159.339 136.252 159.312C135.964 159.229 135.674 159.15 135.381 159.062C135.281 159.034 135.181 159.008 135.081 158.978C134.781 158.894 134.471 158.808 134.164 158.724C134.071 158.698 133.979 158.675 133.888 158.649C133.567 158.561 133.239 158.472 132.912 158.381L132.701 158.324C132.341 158.224 131.981 158.129 131.622 158.03L131.522 158.002C131.131 157.902 130.73 157.787 130.331 157.681C129.906 157.571 129.481 157.457 129.048 157.341C132.69 158.498 137.143 159.904 139.66 160.672C135.143 160.258 126.771 159.483 125.966 159.353C131.078 160.235 136.597 161.259 142.228 162.037C141.464 162.202 140.286 162.453 139.219 162.675C134.427 162.724 129.736 162.795 125.077 162.875C125.22 162.875 133.763 163.116 136.426 163.159C136.008 163.215 135.338 163.326 134.199 163.585C136.831 163.518 139.398 163.371 141.899 163.142C141.912 163.14 141.925 163.14 141.938 163.142C141.938 163.142 140.749 163.622 139.68 164.133C138.576 164.363 137.516 164.582 136.501 164.791C137.183 164.742 137.901 164.691 138.57 164.639C137.317 165.179 135.989 165.686 135.421 165.849C137.094 165.376 138.68 164.925 140.104 164.516C141.341 164.416 142.23 164.336 142.23 164.336L142.13 164.423C139.712 165.394 137.303 166.387 134.903 167.4C135.05 167.386 135.141 167.37 135.141 167.37C135.82 167.215 138.352 166.357 140.558 165.594C140.125 165.894 139.605 166.225 138.995 166.574C138.249 167.005 136.324 168.174 134.324 169.55C137.003 168.093 139.742 166.537 142.645 164.87C143.55 164.556 144.152 164.342 144.152 164.342C143.971 164.56 137.867 169.516 137.227 169.969C136.827 170.26 134.027 172.598 132.041 174.256C137.715 170.083 142.86 165.806 146.557 162.633L146.568 162.625C146.591 162.614 146.615 162.608 146.64 162.605C146.631 162.605 146.621 162.605 146.612 162.605L146.746 162.542C151.422 161.15 157.328 159.284 163.402 156.919C163.283 156.773 160.538 157.745 157.374 158.824C153.648 160.104 149.415 161.54 149.292 161.578C148.938 161.695 148.125 161.967 147.72 162.097C147.72 162.097 147.8 162.017 147.969 161.878C155.348 157.955 162.493 153.608 169.369 148.859C167.56 149.77 165.805 150.781 164.11 151.89C161.428 153.49 159.988 154.472 158.693 155.19C156.937 156.173 151.103 159.25 151.103 159.25L153.848 156.225C158.655 152.008 162.579 148.625 166.181 145.353Z" fill="#456428"/>
<path d="M145.063 163.186C146.705 166.203 148.534 169.114 150.537 171.904C152.443 174.704 157.405 178.744 159.588 180.815C157.736 179.865 152.966 174.415 151.288 172.526C149.949 171.08 145.694 165.057 145.065 163.186" fill="#658A2F"/>
</g>
<defs>
<clipPath id="clip0">
<rect width="212.863" height="194.394" fill="white" transform="translate(0.802979)"/>
</clipPath>
</defs>
</svg>
