<svg viewBox="0 0 313 285" fill="none" xmlns="http://www.w3.org/2000/svg">
<g clip-path="url(#clip0)">
<path d="M180.187 54.4401C180.187 54.4401 182.018 57.3121 181.381 68.5271C180.919 76.6391 176.517 80.9211 174.045 82.5051C172.091 83.757 170.111 81.173 170.208 77.6561C170.571 64.2421 178.47 56.0071 175.352 45.1811C175.303 45.0081 175.26 44.8351 175.204 44.6611C172.821 37.1001 155.512 26.2871 148.72 22.4201C148.474 22.2781 148.219 22.1334 147.955 21.9861C143.587 19.6022 139.101 17.4421 134.514 15.5141C140.549 11.0391 147.25 6.54206 153.88 4.65406C160.007 2.90806 190.515 -9.44594 212.187 15.0731C212.187 15.0731 172.617 19.0731 181.207 30.2051C185.329 35.5461 203.344 18.3661 214.813 20.0901C226.8 21.7221 253.272 43.1201 252.688 52.7551C252.688 52.7551 205.993 53.8951 214.333 72.3551C219.076 82.8551 240.933 53.0191 257.026 58.0121C266.001 60.7941 287.059 83.1121 290.044 98.812C290.044 98.812 262.933 85.6851 254.754 92.1641C241.226 103.034 276.103 101.739 279.594 101.928C293.071 101.439 296.961 109.392 299.604 123.028C301.078 129.952 315.686 175.312 311.756 177.012C303.237 177.195 278.148 166.595 273.367 161.8C269.267 157.86 251.442 128.724 255.76 140.514C257.391 144.969 268.653 155.048 270.46 162.014C271.702 166.814 255.442 145.784 252.38 141.272C240.98 110.61 213.495 80.3071 197.839 64.6461C190.782 57.6511 182.887 48.6671 180.187 54.4401Z" fill="#63862D"/>
<path d="M143.881 51.338L165.15 87.152C165.15 87.152 187.03 81.5311 192.445 85.412C210.745 98.527 254.796 131.068 264.324 139.632C268.965 143.799 271.274 145.449 271.274 145.449C271.233 144.703 270.204 138.48 267.919 135.819C262.761 130.457 258.334 129.154 252.525 126C255.886 126.026 255.998 123.947 262.814 123.735C256.579 117.435 245.626 118.955 237.86 108.828C239.318 108.778 250.925 110.028 252.382 109.979C248.517 103.363 235.753 106.153 231.403 102.948C235.397 100.889 245.425 98.387 248.549 95.939C244.304 95.65 234.734 98.154 230.804 98.439C227.885 98.539 227.025 94.925 222.831 96.095C223.51 90.522 232.682 93.695 234.113 88.833C227.079 88.204 223.38 90.965 217.075 86.223C220.802 80.103 231.331 78.684 236.665 78.514C231.385 74.69 214.706 81.195 208.143 77.34C209.938 74.504 207.809 70.092 211.115 68.659C207.554 65.64 188.201 72.597 188.849 70.788L188.868 70.747C193.677 56.459 206.709 55.347 207.444 55.311C205.967 51.104 167.066 52.392 175.908 44.281C175.908 44.281 175.957 44.238 175.971 44.222C181.129 37.564 193.516 35.254 192.871 34.557C191.4 32.957 175.071 34.848 173.19 35.183C173 22.465 181.89 22.32 185.765 16.76C181.554 17.36 177.165 25.66 167.521 25.707C167.941 21.017 172.694 15.435 170.376 11.868C159.011 24.662 143.657 18.843 147.893 12.263C135.13 8.50704 130.417 50.238 118.722 45.834C118.934 48.837 143.881 51.338 143.881 51.338ZM223.331 96.947C225.225 98.776 224.681 101.297 221.9 101.454C219.719 101.101 217.596 100.452 215.591 99.525C211.448 95.943 220.559 94.268 223.331 96.947Z" fill="#8CAE3A"/>
<path d="M110.164 57.4101C107.344 54.7505 104.88 51.7367 102.834 48.4441C105.49 45.8031 108.207 43.0541 110.879 40.3201C113.838 44.8609 116.474 49.6039 118.768 54.5141C120.351 57.7791 122.014 67.1001 110.164 57.4101Z" fill="#63862D"/>
<path d="M283.237 92.0001C283.237 92.0001 273.715 87.4191 269.868 88.5081L278.651 84.1921C276.085 80.2541 259.975 80.0711 259.975 80.0711C261.553 77.7421 268.712 74.2181 268.712 74.2181C260.601 71.0871 247.652 79.3891 247.652 79.3891C249.562 71.7241 261.952 67.4751 261.952 67.4751C254.098 59.4251 249.468 65.3361 249.468 65.3361C249.468 65.3361 248.897 61.5361 252.431 57.4581C253.982 57.3713 255.537 57.5578 257.024 58.0091C265.992 60.7891 287.024 83.0741 290.036 98.7771L289.893 98.7391C289.133 98.3771 285.456 96.6581 280.683 94.8681C280.683 94.8681 282.12 93.4181 283.237 92.0001Z" fill="#3F5824"/>
<path d="M241.463 116.82L243.503 116.62L244.575 116.52C244.975 116.499 245.404 116.497 245.865 116.485C246.893 116.434 247.922 116.434 248.95 116.485L250.707 116.571C251.007 116.571 251.315 116.625 251.627 116.66C251.939 116.695 252.256 116.737 252.575 116.773C252.894 116.809 253.221 116.852 253.549 116.891C253.714 116.909 253.879 116.929 254.043 116.95C254.207 116.971 254.375 117.014 254.543 117.042C255.21 117.171 255.888 117.302 256.579 117.435C256.752 117.467 256.924 117.501 257.098 117.535C257.272 117.569 257.441 117.624 257.614 117.671L258.657 117.947C259.357 118.132 260.069 118.304 260.762 118.56C261.462 118.796 262.162 119.035 262.871 119.273C263.562 119.558 264.254 119.844 264.946 120.13L265.465 120.345C265.665 120.419 265.805 120.513 265.977 120.593C266.306 120.771 266.645 120.914 266.963 121.123C267.281 121.332 267.611 121.512 267.922 121.718L268.836 122.355C270.021 123.231 271.136 124.155 272.187 125.081C274.287 126.931 276.187 128.725 277.879 130.175C278.297 130.544 278.716 130.875 279.105 131.205C279.494 131.535 279.887 131.82 280.24 132.099C280.97 132.641 281.61 133.108 282.166 133.447C282.443 133.615 282.682 133.784 282.905 133.903C283.128 134.022 283.316 134.127 283.471 134.212C283.778 134.376 283.941 134.466 283.941 134.466C283.941 134.466 283.775 134.382 283.466 134.219C283.312 134.14 283.119 134.04 282.896 133.919C282.673 133.798 282.429 133.642 282.145 133.474C281.581 133.146 280.931 132.69 280.191 132.165C279.829 131.891 279.436 131.607 279.037 131.29C278.638 130.973 278.215 130.643 277.786 130.282C276.06 128.86 274.132 127.099 272.002 125.295C270.938 124.395 269.812 123.495 268.621 122.649C268.321 122.449 268.021 122.243 267.713 122.039C267.405 121.835 267.085 121.668 266.771 121.479C266.457 121.29 266.114 121.143 265.786 120.979C265.62 120.905 265.446 120.804 265.286 120.749L264.767 120.549C264.075 120.276 263.387 120.008 262.699 119.738C261.999 119.513 261.299 119.291 260.599 119.071C259.913 118.848 259.216 118.659 258.511 118.506C258.162 118.419 257.82 118.337 257.476 118.251C257.303 118.209 257.135 118.171 256.963 118.126C256.791 118.096 256.62 118.065 256.45 118.037C255.766 117.92 255.096 117.805 254.436 117.69L253.945 117.608C253.781 117.591 253.619 117.572 253.456 117.558C253.132 117.528 252.81 117.491 252.497 117.458C252.184 117.425 251.866 117.396 251.56 117.363C251.254 117.33 250.951 117.293 250.652 117.295L248.926 117.242C247.815 117.177 246.807 117.264 245.912 117.294C245.467 117.313 245.047 117.325 244.661 117.353L243.588 117.476L241.552 117.713L241.463 116.82Z" fill="#BFD471"/>
<path d="M209.023 90.1251L209.695 89.8651L210.504 89.5501C210.82 89.4271 211.184 89.2831 211.613 89.1431C212.042 89.0031 212.5 88.8361 213.013 88.6651C213.526 88.4941 214.075 88.3361 214.665 88.1561C215.255 87.9761 215.892 87.8071 216.565 87.6311C216.898 87.5451 217.237 87.4461 217.592 87.3631L218.674 87.1121C220.149 86.7661 221.762 86.4591 223.468 86.1611C225.178 85.8871 226.985 85.6161 228.857 85.3971C230.729 85.1781 232.665 84.9651 234.626 84.7581C235.609 84.6534 236.595 84.5411 237.584 84.4211L239.067 84.2211L240.542 83.9681C241.531 83.8041 242.516 83.6101 243.507 83.4681C244.498 83.3261 245.492 83.2111 246.477 83.0821L247.209 82.9821C247.454 82.9601 247.699 82.9371 247.947 82.9181L249.404 82.7871C250.37 82.7061 251.32 82.5981 252.265 82.5721C253.207 82.5261 254.131 82.4824 255.037 82.4411C255.492 82.4111 255.937 82.4161 256.379 82.4151C256.821 82.4141 257.263 82.4091 257.694 82.4081L258.971 82.4021C259.387 82.4021 259.801 82.3901 260.209 82.4131C261.02 82.4441 261.809 82.4721 262.553 82.5021C264.064 82.5291 265.437 82.6801 266.653 82.7711C267.263 82.8221 267.833 82.8711 268.361 82.9141C268.884 82.9791 269.367 83.0431 269.804 83.0951L272.539 83.4461L269.797 83.1461C269.36 83.0971 268.876 83.0461 268.352 82.9871C267.826 82.9561 267.252 82.9161 266.645 82.8761C265.426 82.8071 264.05 82.6861 262.545 82.6851L260.199 82.6421C259.799 82.6241 259.381 82.6421 258.964 82.6491L257.689 82.6821C257.263 82.6901 256.825 82.7011 256.382 82.7121C255.939 82.7231 255.495 82.7271 255.043 82.7631C254.142 82.8251 253.223 82.8864 252.286 82.9471C251.348 82.9891 250.4 83.1171 249.44 83.2131C248.961 83.2671 248.477 83.3131 247.991 83.3701L247.261 83.4481L246.53 83.5571L243.593 83.9971C242.611 84.1531 241.628 84.3661 240.643 84.5471L239.156 84.8301C238.656 84.9061 238.156 84.9811 237.665 85.0551C236.665 85.1961 235.686 85.3251 234.705 85.4481C232.741 85.6901 230.815 85.9311 228.959 86.1921C227.103 86.4531 225.313 86.7491 223.625 87.0541C221.941 87.3801 220.353 87.7111 218.904 88.0811L217.84 88.3491C217.495 88.4371 217.16 88.5411 216.833 88.6281C216.18 88.8181 215.557 88.9881 214.982 89.1811C214.407 89.3741 213.862 89.5341 213.371 89.7081C212.88 89.8821 212.431 90.0501 212.027 90.1991C211.623 90.3481 211.259 90.4881 210.942 90.6211C210.625 90.7541 210.356 90.8591 210.142 90.9481L209.475 91.2221L209.023 90.1251Z" fill="#BFD471"/>
<path d="M162.445 63.6201L163.093 63.1131C163.512 62.7821 164.139 62.3021 164.905 61.6761C165.671 61.0501 166.615 60.2911 167.692 59.4091C168.769 58.5271 169.992 57.5361 171.324 56.4501C172.675 55.3831 174.134 54.2151 175.75 53.0601C176.54 52.4671 177.4 51.9101 178.256 51.3191C179.143 50.7611 180.028 50.1691 180.981 49.6441C181.911 49.0821 182.902 48.5921 183.893 48.0721C184.908 47.6101 185.924 47.1061 186.993 46.7061L187.793 46.3881L188.193 46.2301L188.601 46.0911C189.146 45.9091 189.69 45.7231 190.233 45.5391C190.776 45.3551 191.342 45.2201 191.897 45.0581C192.452 44.8961 193.009 44.7391 193.565 44.6091L196.882 43.7781C197.982 43.5031 199.107 43.2781 200.208 43.0331L201.856 42.6751C202.399 42.5661 202.945 42.4571 203.485 42.3451C204.569 42.1341 205.639 41.9211 206.691 41.7131C208.797 41.3211 210.829 40.9371 212.761 40.5771C213.725 40.3961 214.661 40.2181 215.569 40.0491L218.192 39.5321C219.032 39.3631 219.837 39.2121 220.603 39.0491C221.369 38.8861 222.087 38.7221 222.767 38.5741C223.447 38.4261 224.084 38.2861 224.667 38.1561C225.25 38.0261 225.786 37.8801 226.273 37.7561L229.318 36.9961C229.318 36.9961 228.218 37.3031 226.296 37.8471C225.812 37.9771 225.277 38.1281 224.696 38.2901C224.112 38.4361 223.477 38.5901 222.803 38.7591C222.129 38.9281 221.409 39.1101 220.65 39.2971C219.891 39.4841 219.089 39.6591 218.25 39.8541C217.411 40.0491 216.541 40.2381 215.64 40.4451L212.845 41.0511L206.814 42.3631C205.767 42.5991 204.708 42.8421 203.634 43.0851C203.097 43.2104 202.558 43.3344 202.017 43.4571L200.392 43.8571C199.307 44.1371 198.213 44.3831 197.114 44.6901C196.015 44.9971 194.921 45.3091 193.814 45.6161C193.259 45.7651 192.725 45.9371 192.187 46.1071C191.649 46.2771 191.105 46.4281 190.58 46.6211C190.055 46.8141 189.528 47.0131 189.004 47.2071L188.612 47.3521L188.226 47.5191L187.462 47.8491C186.436 48.2651 185.462 48.7881 184.488 49.2641C183.542 49.7961 182.594 50.2961 181.705 50.8701C180.794 51.4061 179.947 52.0081 179.105 52.5701C178.284 53.1701 177.465 53.7371 176.705 54.3431C175.161 55.5191 173.754 56.7131 172.447 57.8071L168.915 60.8581C167.863 61.7711 166.94 62.5661 166.174 63.2201C165.408 63.8741 164.805 64.3701 164.39 64.7201L163.762 65.2471L162.445 63.6201Z" fill="#BFD471"/>
<path d="M142.524 57.169C142.524 57.169 142.573 56.924 142.66 56.461C142.747 55.998 142.87 55.334 143.082 54.452C143.274 53.569 143.548 52.527 143.882 51.338C144.067 50.746 144.24 50.109 144.459 49.453C144.678 48.797 144.891 48.099 145.159 47.389C145.427 46.679 145.686 45.931 146.001 45.178C146.154 44.7987 146.311 44.413 146.472 44.021C146.639 43.634 146.81 43.24 146.982 42.844C147.319 42.044 147.724 41.244 148.104 40.419C148.304 40.013 148.516 39.604 148.728 39.184C148.94 38.764 149.148 38.353 149.38 37.94C150.258 36.264 151.274 34.594 152.334 32.918C153.414 31.253 154.58 29.606 155.805 28.011C157.054 26.427 158.343 24.881 159.705 23.443C161.028 22.0244 162.427 20.6784 163.895 19.411C164.07 19.255 164.246 19.103 164.424 18.948C164.602 18.793 164.786 18.654 164.965 18.51C165.326 18.2193 165.682 17.931 166.033 17.645C166.398 17.372 166.756 17.107 167.113 16.845C167.291 16.715 167.467 16.583 167.641 16.453C167.815 16.323 168.006 16.21 168.184 16.086C168.541 15.8453 168.893 15.6063 169.24 15.369C169.597 15.152 169.945 14.932 170.294 14.72C170.974 14.279 171.674 13.92 172.331 13.555C172.658 13.366 172.991 13.212 173.315 13.055C173.639 12.898 173.953 12.74 174.26 12.59C174.886 12.307 175.487 12.064 176.047 11.82C177.188 11.385 178.188 11.02 179.033 10.793C179.866 10.521 180.543 10.393 180.995 10.274C181.447 10.155 181.695 10.109 181.695 10.109L181.002 10.296C180.551 10.425 179.881 10.583 179.058 10.878C178.226 11.137 177.24 11.53 176.119 11.999C175.572 12.26 174.981 12.52 174.372 12.824C174.072 12.982 173.763 13.146 173.448 13.314C173.133 13.482 172.805 13.644 172.487 13.845C171.848 14.229 171.168 14.603 170.51 15.065C170.171 15.287 169.831 15.513 169.483 15.741L168.464 16.485C168.291 16.611 168.117 16.738 167.944 16.862L167.431 17.267C167.089 17.5403 166.742 17.8167 166.39 18.096C166.052 18.39 165.709 18.6863 165.362 18.985C165.19 19.134 165.017 19.285 164.843 19.435C164.669 19.585 164.503 19.751 164.335 19.91C162.932 21.2099 161.597 22.5814 160.335 24.019C159.04 25.482 157.819 27.047 156.645 28.642C155.487 30.255 154.397 31.909 153.39 33.581C152.403 35.261 151.464 36.933 150.652 38.602C150.438 39.015 150.242 39.43 150.052 39.844C149.862 40.258 149.673 40.666 149.484 41.07C149.136 41.892 148.769 42.684 148.467 43.478C148.307 43.872 148.155 44.259 148.002 44.641C147.849 45.023 147.72 45.408 147.58 45.786C147.3 46.531 147.067 47.266 146.833 47.968C146.599 48.67 146.412 49.353 146.212 49.995C146.012 50.637 145.875 51.259 145.712 51.835C145.426 53 145.191 54.021 145.039 54.853C144.868 55.675 144.767 56.365 144.695 56.826C144.623 57.287 144.582 57.534 144.582 57.534L142.524 57.169Z" fill="#BFD471"/>
<path d="M189.518 93.1941C191.999 93.1755 194.476 93.3874 196.918 93.8271C200.113 94.472 203.249 95.3749 206.298 96.5271C209.927 97.8751 213.472 99.4399 216.914 101.213C218.739 102.176 220.59 103.221 222.441 104.35C223.368 104.913 224.297 105.496 225.226 106.1C226.132 106.69 227.026 107.348 227.926 108.022C231.517 110.738 235.09 113.79 238.7 116.905C242.31 120.02 245.937 123.249 249.56 126.477C256.803 132.935 264.02 139.433 270.855 145.446C277.69 151.459 284.14 157.001 289.813 161.572C294.319 165.339 299.085 168.785 304.074 171.884C305.475 172.751 306.981 173.437 308.554 173.926C309.113 174.046 309.519 174.203 309.811 174.255C309.92 174.279 310.031 174.292 310.143 174.294C310.18 174.296 310.217 174.296 310.254 174.294H310.143C310.032 174.29 309.921 174.276 309.812 174.251C309.524 174.196 309.112 174.028 308.565 173.901C307.005 173.386 305.517 172.675 304.137 171.784C299.213 168.603 294.519 165.08 290.089 161.24C284.505 156.574 278.164 150.927 271.442 144.793C264.72 138.659 257.627 132.038 250.497 125.445C246.931 122.151 243.357 118.864 239.797 115.668C238.015 114.068 236.238 112.491 234.461 110.956C232.684 109.421 230.899 107.925 229.083 106.508C228.178 105.808 227.253 105.12 226.292 104.483C225.351 103.859 224.41 103.257 223.469 102.676C221.586 101.516 219.706 100.446 217.846 99.4561C214.367 97.5487 210.746 95.9105 207.017 94.5561C203.846 93.4203 200.588 92.5418 197.276 91.9291C194.598 91.3587 191.88 90.989 189.147 90.8231C187 90.8231 185.961 90.6911 184.697 90.7351C184.392 91.7069 183.997 92.648 183.516 93.5461C183.765 93.5121 184.401 93.4091 184.775 93.3701C186.35 93.1981 187.935 93.1392 189.518 93.1941Z" fill="#BFD471"/>
<path d="M274.155 142.856C274.155 142.856 296.087 159.547 300.393 155.445C300.393 155.445 291.081 144.298 288.924 143.431C288.924 143.431 298.349 142.864 297.924 140.073L288.769 133.03C288.769 133.03 294.309 132.064 295.069 128.621L280.448 126.821C289.474 123.089 291.233 119.321 291.233 119.321C291.233 119.321 284.482 119.821 280.473 118.356C280.473 118.356 288.147 112.788 287.422 108.936C287.11 107.285 284.738 104.982 283.116 105.266C284.341 104.471 285.508 103.589 286.608 102.627C294.581 104.852 297.491 112.121 299.608 123.027C301.045 129.782 314.987 173.127 312.014 176.809C303.317 171.6 290.219 161.625 274.155 142.856Z" fill="#3F5824"/>
<path d="M217.186 53.706C218.257 46.006 232.518 36.506 232.518 36.506C223.086 30.586 207.55 39.421 207.55 39.421C206.12 36.771 218.623 25.75 218.623 25.75C215.123 22.934 204.078 27.497 204.078 27.497C204.078 27.497 208.763 20.833 211.529 20.056C212.62 19.9243 213.724 19.9348 214.813 20.087C226.8 21.719 253.272 43.117 252.688 52.752C245.36 53.0136 238.07 53.9347 230.907 55.504L239.607 46.625C237.539 43.443 217.186 53.706 217.186 53.706Z" fill="#3F5824"/>
<path d="M181.826 16.439C182.618 14.468 189.314 9.239 194.264 6.965C185.615 5.13008 176.671 5.19286 168.048 7.149C168.048 7.149 178.446 5.36442e-07 182.843 0.190001C188.473 0.618938 193.962 2.15431 198.998 4.70819C204.033 7.26206 208.515 10.7842 212.187 15.073C206.962 15.6496 201.773 16.5176 196.644 17.673L200.406 13.661C198.113 10.583 181.826 16.439 181.826 16.439Z" fill="#3F5824"/>
<path d="M68.165 108.764C72.9661 103.407 78.4894 98.7449 84.576 94.9111C89.7623 91.6383 95.4436 89.2255 101.4 87.7661C102.735 87.4511 104.046 87.2091 105.319 87.0131C105.833 86.9391 106.337 86.8771 106.838 86.8201L104.451 90.2201C103.671 90.3511 102.878 90.5021 102.073 90.6841C96.407 92.0174 90.9939 94.258 86.043 97.3191C80.1291 100.954 74.7493 105.394 70.058 110.51C64.781 116.229 60.2674 122.607 56.63 129.486C52.836 136.704 49.251 144.353 45.93 152.257C42.609 160.161 39.545 168.333 36.744 176.594C31.124 193.1 26.578 209.98 22.368 225.816C20.259 233.732 18.228 241.396 16.109 248.616C14.1798 255.426 11.8998 262.132 9.278 268.707C8.08872 271.628 6.74448 274.484 5.251 277.262C4.533 278.58 3.785 279.847 3.01 281.042C2.292 282.14 1.54933 283.178 0.782 284.156L0 283.778C0.769 282.767 1.516 281.69 2.23 280.549C2.982 279.362 3.707 278.114 4.405 276.803C5.85594 274.041 7.1578 271.204 8.305 268.303C10.8484 261.741 13.0513 255.053 14.905 248.264C16.947 241.047 18.91 233.376 20.943 225.438C22.976 217.5 25.086 209.3 27.388 201C29.69 192.7 32.188 184.3 34.94 175.988C37.692 167.676 40.705 159.433 43.989 151.451C47.273 143.469 50.821 135.739 54.595 128.421C58.2488 121.309 62.8102 114.702 68.165 108.764Z" fill="#8CAE3A"/>
<path d="M75.541 27.7481C70.252 37.8481 62.523 49.6841 62.259 60.3681C61.949 70.8811 70.059 78.6681 80.275 84.7841C85.5821 87.8596 91.0772 90.5983 96.728 92.9841C98.4793 92.4914 100.228 92.0581 101.975 91.6841C119.682 87.8471 137.433 89.6261 159.25 92.5991C172.286 94.3741 190.482 96.3271 202.157 102.269C214.438 107.884 228.615 118.188 231.357 120.248C242.949 128.964 252.379 141.276 252.38 141.276C240.98 110.614 213.495 80.3111 197.839 64.6501C190.784 57.6501 182.889 48.6681 180.189 54.4411C180.189 54.4411 182.02 57.3131 181.383 68.5281C180.921 76.6401 176.519 80.9221 174.047 82.5061C172.093 83.7581 170.113 81.1741 170.21 77.6571C170.573 64.2431 178.472 56.0081 175.354 45.1821C175.305 45.0091 175.262 44.8361 175.206 44.6621C172.821 37.1001 155.512 26.2871 148.72 22.4201C148.474 22.2781 148.219 22.1334 147.955 21.9861C143.587 19.6023 139.101 17.4421 134.514 15.5141L134.333 15.4381C126.516 12.3661 118.108 10.3131 110.559 10.9901C100.118 11.7181 94.585 16.1331 94.359 21.1121C102.105 28.6551 107.059 34.5871 110.883 40.3201C113.842 44.861 116.478 49.604 118.772 54.5141C120.355 57.7791 122.018 67.0951 110.172 57.4141C107.352 54.7545 104.888 51.7407 102.842 48.4481C101.733 46.8137 100.819 45.0554 100.117 43.2091C96.905 33.8731 88.715 20.6001 88.715 20.6001C83.789 11.3191 80.4 18.4661 75.541 27.7481Z" fill="#466A2A"/>
<path d="M169.174 40.4211C163.048 40.5921 158.245 55.6281 158.245 55.6281C155.009 53.0371 163.438 38.5741 163.438 38.5741C161.698 37.1141 156.09 46.4471 156.09 46.4471C153.956 44.5221 159.498 31.5861 159.498 31.5861C153.575 26.3161 147.184 46.9021 147.184 46.9021C143.559 46.4261 146.296 25.8591 146.296 25.8591C140.575 24.3591 133.326 37.7931 133.326 37.7931C130.642 34.7751 139.153 18.8271 139.153 18.8271C134.469 12.5061 127.994 28.8771 127.994 28.8771C124.874 26.8311 128.882 14.4391 128.882 14.4391C120.84 12.2221 117.469 30.6171 117.469 30.6171C112.68 26.3591 113.678 13.6701 113.678 13.6701C108.572 12.9231 105.444 30.2431 105.444 30.2431C102.845 28.7023 100.401 26.9151 98.144 24.9061C96.956 23.6841 95.6893 22.4174 94.344 21.1061C94.574 16.1271 100.106 11.7121 110.544 10.9851C118.092 10.3071 126.5 12.3601 134.318 15.4331C138.968 17.3797 143.515 19.5653 147.94 21.9811C148.203 22.1271 148.459 22.2721 148.705 22.4141C155.497 26.2821 172.805 37.0931 175.188 44.6561C175.244 44.8301 175.288 45.0021 175.338 45.1761C176.22 48.3471 176.303 51.6872 175.579 54.8981C169.504 59.5251 162.95 67.2391 162.95 67.2391C160.835 66.4211 169.174 40.4211 169.174 40.4211Z" fill="#4F7B2E"/>
<path d="M68.366 109.462C73.1672 104.106 78.6901 99.4435 84.776 95.6091C89.964 92.3357 95.647 89.9223 101.605 88.4621C102.94 88.1481 104.25 87.9061 105.524 87.7101C105.781 87.6741 106.033 87.6431 106.286 87.6101L103.868 91.0491C103.343 91.1471 102.813 91.2558 102.277 91.3751C96.6116 92.7093 91.1989 94.9498 86.248 98.0101C80.334 101.644 74.9545 106.083 70.264 111.2C64.9856 116.918 60.4713 123.296 56.834 130.175C53.041 137.392 49.455 145.042 46.134 152.946C42.813 160.85 39.749 169.023 36.949 177.283C31.326 193.799 26.779 210.675 22.57 226.509C20.461 234.427 18.429 242.092 16.311 249.309C14.3811 256.119 12.101 262.825 9.48001 269.4C8.29059 272.321 6.94601 275.177 5.45201 277.954C4.73301 279.273 3.98501 280.54 3.21101 281.736C2.59901 282.669 1.96867 283.562 1.32001 284.414L0.531006 284.03C1.18301 283.149 1.81901 282.219 2.43101 281.243C3.18234 280.055 3.90701 278.806 4.60501 277.496C6.05638 274.735 7.35826 271.897 8.50501 268.996C11.0497 262.434 13.2543 255.745 15.11 248.956C17.151 241.739 19.11 234.069 21.147 226.13C23.184 218.191 25.289 209.985 27.589 201.683C29.889 193.381 32.389 184.983 35.142 176.671C37.895 168.359 40.906 160.116 44.191 152.134C47.476 144.152 51.023 136.422 54.796 129.104C58.4513 121.998 63.0127 115.395 68.366 109.462Z" fill="#466A2A"/>
<path d="M215.41 107.028C217.715 105.872 220.232 105.202 222.807 105.06C225.381 104.918 227.957 105.306 230.375 106.201C230.375 106.201 220.522 94.138 206.554 92.616L217.017 88.671C211.506 84.481 205.174 80.898 196.277 85.234L199.925 76.339C199.925 76.339 192.151 75.139 182.755 80.417L186.576 64.189C186.576 64.189 185.148 62.399 181.51 63.231C181.415 56.369 180.187 54.44 180.187 54.44C182.887 48.667 190.787 57.651 197.837 64.649C213.493 80.31 240.977 110.613 252.378 141.275C246.503 133.828 239.818 127.056 232.448 121.084C222.6 110.537 219.215 107.994 215.41 107.028Z" fill="#4F7B2E"/>
<path d="M87.555 83.2001C80.8 80.0001 71.633 71.7331 68.358 69.3121C67.249 68.4941 63.84 63.7651 65.945 63.4681C67.966 63.1821 72.445 66.4071 73.333 66.4821C74.675 66.5971 70.469 58.2711 69.726 55.6161C68.983 52.9611 68.813 47.9801 70.126 49.4931C71.439 51.0061 76.634 61.9231 78.752 63.2931C80.87 64.6631 77.164 55.9751 75.252 46.3391C74.328 41.6841 79.652 27.2391 80.652 27.9391C82.595 29.3061 80.027 36.6931 80.721 42.6391C81.391 48.3941 89.663 54.0331 85.697 36.0221C84.29 29.6321 84.49 25.0511 86.179 25.8111C89.225 27.1821 94.285 41.0331 95.779 43.8191C97.273 46.6051 103.979 59.8541 108.237 63.0081C112.495 66.1621 120.872 68.4141 122.544 66.2611C124.216 64.1081 120.062 50.4611 118.73 45.8351C117.743 42.4191 117.67 34.3691 118.867 35.6761C119.767 36.6601 124.236 51.8031 124.525 49.1981C124.836 46.4091 123.77 39.7891 125.785 36.3241C127.8 32.8591 130.8 33.5111 130.8 33.5111C129.248 37.6707 128.41 42.0624 128.32 46.5011C128.36 48.6481 131.086 61.9181 131.82 58.1691C132.554 54.4201 134.634 44.1121 137.366 40.0001C140.098 35.8881 142 34.7531 142 34.7531C142 34.7531 140.034 44.3481 139.348 49.0891C138.8 52.8891 137.056 72.9231 137.932 72.3541C138.922 71.7121 142.372 63.2251 144.254 59.6541C146.136 56.0831 152.087 48.9611 151.242 53.4251C150.397 57.8891 146.393 81.6251 148.131 76.9651C149.869 72.3051 159.842 58.8381 158.414 61.4961C156.986 64.1541 159.435 81.6411 160.837 79.8961C162.239 78.1511 171.188 70.1231 171.052 70.7401C171.052 70.7531 171.046 70.7721 171.042 70.7901C170.991 71.0307 170.942 71.2731 170.895 71.5171V71.5391C170.802 72.0231 170.715 72.5131 170.638 73.0101C170.632 73.0411 170.628 73.0741 170.624 73.1051C170.592 73.3151 170.56 73.5261 170.532 73.7381C170.526 73.7821 170.52 73.8251 170.516 73.8681C170.449 74.3481 170.394 74.8347 170.349 75.3281C170.343 75.3921 170.339 75.4571 170.332 75.5211C170.317 75.7061 170.302 75.8901 170.288 76.0761L170.273 76.2891C170.257 76.5311 170.243 76.7744 170.231 77.0191V77.0321C170.223 77.2381 170.215 77.4471 170.21 77.6571C170.21 77.7951 170.21 77.9321 170.21 78.0671V78.0811C170.277 81.3811 172.174 83.7061 174.048 82.5061C174.732 82.0604 175.375 81.5533 175.967 80.9911C176.959 81.2641 176.043 83.8511 179.602 83.2321C183.383 82.5741 193.916 80.9671 193.916 80.9671C192.427 82.6618 191.049 84.4519 189.793 86.3261C188.799 88.0771 184.314 95.8131 192.04 90.9261C194.311 89.4901 207.213 88.0191 207.213 88.0191C207.213 88.0191 202.688 90.2931 201.08 92.2441C199.472 94.1951 196.61 100.402 198.021 99.1811C199.432 97.9601 212.194 101.164 212.194 101.164C211.216 101.475 210.26 101.855 209.336 102.301C208.459 103.003 207.634 103.768 206.867 104.588C206.077 104.173 205.289 103.771 204.502 103.381C204.11 103.188 203.722 102.999 203.333 102.813H203.326C202.936 102.628 202.548 102.447 202.161 102.27C190.486 96.3281 172.29 94.3751 159.254 92.6001C137.437 89.6271 119.686 87.8481 101.979 91.6851C101.558 91.7771 101.138 91.8717 100.717 91.9691C100.317 92.0611 99.917 92.1581 99.517 92.2561L99.479 92.2661C98.6463 92.4707 97.813 92.6894 96.979 92.9221C94.212 88.5461 93.467 86.0111 87.555 83.2001Z" fill="#3F5824"/>
<path d="M110.354 43.519C110.354 43.519 110.664 44.092 109.054 46.043C107.893 47.451 111.026 45.77 113.314 44.196C113.631 44.726 113.939 45.258 114.243 45.796C113.693 46.8598 113.078 47.8881 112.4 48.875C111.238 50.528 114.431 51.811 117.59 52.123C117.981 52.908 118.372 53.704 118.767 54.523C119.517 56.0814 119.89 57.7941 119.856 59.523C119.556 60.232 119.256 60.872 119.002 61.385C117.808 62.221 115.213 61.545 110.163 57.418C107.353 54.7697 104.898 51.7687 102.858 48.49C102.853 48.4733 102.85 48.4562 102.847 48.439C104.16 47.132 105.489 45.799 106.82 44.455L110.354 43.519Z" fill="#4F7B2E"/>
</g>
<defs>
<clipPath id="clip0">
<rect width="312.425" height="284.418" fill="white"/>
</clipPath>
</defs>
</svg>
