<svg viewBox="0 0 173 307" fill="none" xmlns="http://www.w3.org/2000/svg">
<g clip-path="url(#clip0)">
<path d="M75.088 104.141L75.105 104.161C76.4987 103.156 77.9931 102.299 79.564 101.603C83.6142 99.6513 87.4984 97.3724 91.178 94.789C104.517 85.26 124.549 89.378 139.003 94.507L139.878 92.047C131.517 89.08 121.341 86.456 111.501 86.46C112.987 85.089 114.557 83.8113 116.201 82.634L114.731 80.478C112.184 82.3047 109.805 84.3552 107.623 86.605C106.314 86.703 105.019 86.857 103.737 87.067C104.045 84.8225 104.503 82.6011 105.108 80.418L102.608 79.659C101.889 82.2664 101.364 84.9232 101.036 87.608C96.9508 88.5354 93.0863 90.2526 89.66 92.663C86.0888 95.1674 82.3196 97.377 78.39 99.27C77.769 99.583 77.199 99.87 76.67 100.144C77.845 96.878 78.835 93.454 79.804 90.093C81.851 83.011 83.968 75.693 87.681 70.436C90.881 66.16 96.098 62.807 101.628 59.258C109.628 54.124 117.888 48.82 120.334 40.165C120.61 40.0317 120.887 39.905 121.165 39.785H121.178V39.777C122.84 39.0636 124.573 38.5273 126.347 38.177C128.76 39.7584 131.298 41.141 133.935 42.311C134.049 42.357 134.159 42.401 134.263 42.439L135.178 39.993C133.519 39.2991 131.91 38.4915 130.362 37.576C132.28 37.376 134.238 37.276 136.234 37.169C142.797 36.824 149.581 36.469 156.143 32.51L154.794 30.274C152.042 31.9003 149.021 33.0223 145.875 33.587C146.158 31.2253 146.605 28.8863 147.214 26.587L144.705 25.856C144 28.531 143.499 31.2554 143.205 34.006C140.832 34.306 138.452 34.432 136.105 34.556C131.358 34.805 126.478 35.063 121.772 36.74C122.599 33.1777 123.679 29.6788 125.003 26.27L122.594 25.26C121.125 29.0289 119.944 32.904 119.062 36.852C118.057 34.8483 117.185 32.7805 116.452 30.662L113.963 31.454C114.966 34.3524 116.216 37.1591 117.7 39.843C115.365 47.333 107.67 52.276 100.216 57.06C95.309 60.21 90.26 63.46 86.743 67.46C86.4976 65.3007 86.3924 63.1278 86.428 60.955L83.819 60.848C83.7623 64.0667 84.0064 67.2837 84.548 70.457C81.197 75.884 79.215 82.725 77.295 89.366C75.611 95.194 73.87 101.218 71.251 106.072C67.208 113.21 63.277 120.054 59.451 126.702C59.422 126.709 59.392 126.712 59.365 126.716L59.385 126.816C58.377 128.565 57.377 130.3 56.385 132.023C52.937 138.005 49.433 144.082 45.838 150.38C43.726 145.015 42.351 137.627 41.666 129.771C44.3334 127.812 46.8016 125.596 49.035 123.154L47.026 121.487C45.3042 123.365 43.4334 125.101 41.432 126.678C40.64 114.252 41.513 101.178 43.87 93.397C52.699 71.531 52.588 58.042 44.216 36.077C44.037 35.61 43.844 35.141 43.641 34.672C44.4106 31.7506 44.9289 28.7687 45.19 25.759C45.197 25.636 45.201 25.519 45.204 25.406L42.593 25.337C42.4634 27.2462 42.1994 29.1439 41.803 31.016C39.7513 27.3691 37.0317 24.1409 33.786 21.5C33.7064 18.6073 33.877 15.7132 34.296 12.85L31.723 12.407C31.3689 14.8123 31.1775 17.2389 31.15 19.67C28.5803 18.0767 25.6777 17.0973 22.668 16.808L22.443 19.408C31.454 20.187 38.643 28.808 41.769 37.008C41.845 37.208 41.92 37.408 41.994 37.608C39.3418 37.3543 36.7133 36.8956 34.132 36.236L33.42 38.749C36.5501 39.5578 39.7491 40.0717 42.975 40.284C49.952 59.861 49.584 72.326 41.375 92.646H41.367L41.342 92.73C39.7925 98.5493 38.9039 104.525 38.693 110.543C36.874 108.99 35.332 107.538 34.028 106.183C35.1031 103.577 35.9691 100.889 36.618 98.145C36.642 98.023 36.664 97.91 36.683 97.798L34.11 97.351C33.6052 99.6236 32.9258 101.854 32.078 104.022C28.052 99.228 27.206 95.801 27.418 93.536L24.818 93.293C24.527 96.416 25.752 99.876 28.472 103.641C26.3436 103.649 24.2168 103.52 22.105 103.255L21.719 105.839C24.6375 106.2 27.5806 106.322 30.519 106.205C32.9791 108.97 35.6701 111.52 38.563 113.828C38.163 127.97 39.906 143.912 44.176 153.147L44.297 153.091C40.61 159.564 36.822 166.285 32.886 173.399C30.728 177.299 28.46 180.793 26.267 184.17C18.215 196.57 9.89299 209.392 3.81799 245.7C1.34899 260.46 3.14499 272.289 5.41799 287.264C6.25999 292.807 7.21799 299.09 8.03099 306.1L10.631 305.8C9.80299 298.746 8.84499 292.439 8.00299 286.875C5.76199 272.128 3.99299 260.48 6.39299 246.133C12.38 210.36 20.551 197.768 28.453 185.591C30.67 182.175 32.962 178.643 35.165 174.662C35.503 174.053 35.837 173.451 36.173 172.847C37.859 171.458 42.841 168.56 48.708 165.176C48.761 165.199 48.808 165.218 48.865 165.241C51.8518 166.406 54.9423 167.285 58.095 167.867L58.445 165.28C56.1357 164.854 53.8624 164.253 51.645 163.48C59.058 159.2 67.732 154.132 73.604 149.945L72.087 147.819C69.095 149.954 65.343 152.33 61.397 154.719C62.0775 153.149 62.8454 151.619 63.697 150.135L61.458 148.791C59.9829 151.395 58.7269 154.118 57.703 156.93C54.537 158.801 51.358 160.63 48.448 162.314C44.748 164.445 41.472 166.337 38.948 167.878C45.86 155.521 52.348 144.267 58.648 133.333C59.4593 131.923 60.2763 130.505 61.099 129.079C72.158 127.267 84.185 128.197 95.836 129.105C96.285 129.141 96.736 129.174 97.188 129.21C99.4348 131.06 101.83 132.721 104.35 134.177C104.458 134.234 104.561 134.288 104.663 134.338L105.833 132.002C104.495 131.275 103.206 130.462 101.974 129.568C106.659 129.902 111.39 130.168 116.015 130.187L116.023 127.576C111.703 127.557 107.266 127.319 102.854 127.011C104.387 125.202 106.043 123.501 107.81 121.921L106.118 119.93C103.778 122.018 101.629 124.312 99.698 126.783C98.473 126.691 97.25 126.596 96.039 126.502C84.955 125.637 73.53 124.748 62.767 126.182C66.267 120.101 69.853 113.848 73.541 107.337C74.092 106.311 74.603 105.241 75.088 104.141Z" fill="#536629"/>
<path d="M18.414 78.739C8.76895 79.504 18.324 101.245 25.979 95.326C35.708 87.992 26.178 78.125 18.414 78.739Z" fill="#63862D"/>
<path d="M29.683 105.366C26.803 97.0869 9.15498 98.9229 11.818 110.212C14.336 120.886 33.366 115.965 29.683 105.366Z" fill="#63862D"/>
<path d="M57.46 164.606C48.449 174.173 68.149 186.375 72.347 174.113C76.188 162.892 64.47 157.162 57.46 164.606Z" fill="#63862D"/>
<path d="M65.177 136.309C57.849 133.137 48.733 147.099 56.627 153.309C68.06 162.294 76.339 141.144 65.177 136.309Z" fill="#63862D"/>
<path d="M70.877 148.905C68.462 157.057 88.258 161.747 88.911 150.237C89.554 138.914 74.246 137.532 70.877 148.905Z" fill="#63862D"/>
<path d="M105.818 110.785C99.675 111.945 95.288 126.266 105.518 127.037C117.929 127.755 116.992 108.671 105.818 110.785Z" fill="#63862D"/>
<path d="M135.174 39.746C123.934 45.372 136.214 61.885 145.995 56.216C157.319 50.032 145.469 34.591 135.174 39.746Z" fill="#63862D"/>
<path d="M146.903 13.579C136.777 9.53002 129.133 25.445 140.932 31.79C154.263 38.421 156.167 17.286 146.903 13.579Z" fill="#63862D"/>
<path d="M126.403 8.77797C115.138 9.26997 111.518 28.62 124.478 28C136.364 27.425 134.157 8.44197 126.403 8.77797Z" fill="#63862D"/>
<path d="M108.227 21.148C96.827 22.048 103.915 43.274 115.118 38.525C127.924 33.1 116.446 20.5 108.227 21.148Z" fill="#63862D"/>
<path d="M78.456 45.305C67.616 52.831 80.764 69.9 89.003 60.093C96.521 51.144 86.612 39.644 78.456 45.305Z" fill="#63862D"/>
<path d="M103.66 69.819C93.983 69.831 91.553 85.67 102.815 86.758C113.169 87.759 112.916 69.807 103.66 69.819Z" fill="#63862D"/>
<path d="M152.666 92.008C148.907 84.041 132.84 90.527 138.011 100.777C143.053 110.771 157.925 103.154 152.666 92.008Z" fill="#63862D"/>
<path d="M122.057 68.653C109.55 67.947 111.406 87.173 122.368 84.73C132.479 82.478 133.271 69.287 122.057 68.653Z" fill="#63862D"/>
<path d="M162.232 22.1C148.624 26.462 156.026 41.781 166.568 37.379C177.078 33 172.593 18.783 162.232 22.1Z" fill="#63862D"/>
<path d="M39.8759 22.13C37.8119 34.118 53.0029 37.963 56.5549 23.62C59.4599 9.01695 42.6569 5.97395 39.8759 22.13Z" fill="#63862D"/>
<path d="M25.636 29.706C15.871 31.115 19.089 49.597 29.326 44.723C39.825 39.205 35.012 28.352 25.636 29.706Z" fill="#63862D"/>
<path d="M33.134 0.919985C24.634 -3.91401 16.794 11.589 27.892 17.583C38.99 23.577 42.296 6.12899 33.134 0.919985Z" fill="#63862D"/>
<path d="M23.345 15C16.76 0.594016 -3.01802 9.59102 1.45498 22.673C5.66798 36.4 28.403 26.064 23.345 15Z" fill="#63862D"/>
<path d="M104.685 129.149C93.396 130.205 95.718 141.664 106.315 141.832C112.474 141.929 115.342 128.156 104.685 129.149Z" fill="#63862D"/>
<path d="M121.034 124.922C114.176 122.676 105.803 129.957 116.068 137.191C126.245 144.36 130.777 128.115 121.034 124.922Z" fill="#63862D"/>
</g>
<defs>
<clipPath id="clip0">
<rect width="172" height="307" fill="white" transform="translate(0.802979)"/>
</clipPath>
</defs>
</svg>
