<svg viewBox="0 0 253 369" fill="none" xmlns="http://www.w3.org/2000/svg">
<g clip-path="url(#clip0)">
<path d="M9.78391 230.73C11.1939 241.374 12.9379 251.965 14.8329 262.352C16.7279 272.739 18.8019 282.916 20.8039 292.757C22.8059 302.598 24.7459 312.108 26.3549 321.157C27.9396 329.637 29.0861 338.192 29.7899 346.79C30.0759 350.601 30.1574 354.424 30.0339 358.244C29.9626 360.061 29.8312 361.826 29.6399 363.537C29.4619 365.177 29.2169 366.767 28.9079 368.291H29.9719C30.2952 366.803 30.5592 365.261 30.7639 363.666C30.9779 361.934 31.1259 360.135 31.2129 358.296C31.3749 354.434 31.3302 350.566 31.0789 346.709C30.4526 338.057 29.3802 329.442 27.8659 320.9C26.3399 311.807 24.4819 302.267 22.5729 292.408C18.7459 272.695 14.7339 251.652 12.0999 230.432C10.7709 219.824 9.7739 209.179 9.2139 198.68C8.6539 188.181 8.5139 177.833 8.8359 167.844C9.16738 158.312 10.7334 148.864 13.4949 139.735C15.931 131.582 19.4895 123.808 24.0679 116.635C27.8906 110.612 32.6611 105.246 38.1949 100.744C39.4299 99.76 40.6699 98.865 41.8949 98.044C43.1199 97.223 44.3339 96.494 45.5239 95.831C47.704 94.6263 49.9729 93.59 52.3109 92.731C55.5839 91.5346 58.9808 90.7091 62.4379 90.27C63.0379 90.183 63.5519 90.144 64.0009 90.099C64.4499 90.054 64.8489 90.025 65.1719 89.999C65.4217 90.0075 65.67 89.9586 65.8979 89.856C65.985 89.8141 66.0649 89.7587 66.1349 89.692L65.8879 86.213C65.8084 86.1584 65.7206 86.1168 65.6279 86.09C65.3883 86.0185 65.1353 86.0034 64.8889 86.046C64.5679 86.071 64.1709 86.099 63.6559 86.162C63.1409 86.225 62.5559 86.268 61.9219 86.362C58.1796 86.8719 54.507 87.8031 50.9739 89.138C48.4614 90.0886 46.0253 91.2299 43.6869 92.552C42.4149 93.276 41.1249 94.079 39.8169 94.961C38.5169 95.861 37.1999 96.827 35.8969 97.887C30.1055 102.685 25.1283 108.389 21.1579 114.776C16.4974 122.26 12.9009 130.355 10.4719 138.83C7.74132 148.24 6.24413 157.965 6.0179 167.76C5.7709 177.849 5.98691 188.267 6.63991 198.83C7.29291 209.393 8.36891 220.084 9.78391 230.73Z" fill="#63862D"/>
<path d="M10.378 231.391C11.788 242.035 13.532 252.627 15.427 263.014C17.322 273.401 19.395 283.579 21.399 293.414C23.403 303.249 25.341 312.767 26.95 321.814C28.5341 330.293 29.6803 338.849 30.384 347.446C30.6698 351.257 30.7516 355.081 30.629 358.901C30.557 360.72 30.4257 362.486 30.235 364.201C30.081 365.605 29.8793 366.969 29.63 368.292H30.707C30.9663 367.009 31.1833 365.687 31.358 364.327C31.573 362.595 31.721 360.798 31.807 358.958C31.9693 355.096 31.9249 351.228 31.674 347.371C31.0471 338.719 29.9736 330.105 28.458 321.563C26.934 312.468 25.074 302.93 23.167 293.07C19.339 273.356 15.327 252.314 12.693 231.093C11.364 220.484 10.367 209.841 9.80701 199.341C9.24701 188.841 9.10701 178.494 9.42801 168.506C9.76169 158.975 11.3287 149.528 14.09 140.4C16.5247 132.247 20.0814 124.473 24.658 117.3C28.4807 111.277 33.2515 105.911 38.786 101.41C40.02 100.425 41.261 99.531 42.486 98.71C43.711 97.889 44.925 97.159 46.115 96.499C48.2941 95.293 50.5628 94.2567 52.901 93.399C56.1746 92.2002 59.5726 91.3733 63.031 90.934C63.631 90.847 64.144 90.808 64.593 90.762C65.042 90.716 65.442 90.69 65.764 90.662C66.0138 90.6694 66.262 90.6202 66.49 90.518C66.5775 90.4768 66.6576 90.4214 66.727 90.354L66.48 86.876C66.4003 86.8209 66.3121 86.779 66.219 86.752C65.9803 86.6789 65.7277 86.6638 65.482 86.708C65.16 86.733 64.763 86.762 64.248 86.823C63.733 86.884 63.148 86.929 62.513 87.029C58.7709 87.5394 55.0984 88.4702 51.565 89.804C49.0535 90.7558 46.6182 91.8974 44.28 93.219C43.008 93.943 41.7173 94.7463 40.408 95.629C39.108 96.529 37.793 97.494 36.489 98.554C30.7003 103.351 25.7258 109.052 21.758 115.438C17.0966 122.922 13.4994 131.018 11.07 139.493C8.33949 148.903 6.84198 158.627 6.61501 168.422C6.36901 178.511 6.58401 188.928 7.23701 199.492C7.89001 210.056 8.96401 220.746 10.378 231.391Z" fill="#BFD471"/>
<path d="M156.326 92.0001C146.206 94.6761 141.298 95.5761 140.379 92.4001C139.221 88.3951 155.608 81.2701 169.379 79.8671C183.15 78.4641 209.223 71.7411 209.223 71.7411C209.223 71.7411 206.113 54.1061 191.189 44.4231C184.905 40.3461 158.245 37.3361 144.267 39.8931C130.289 42.4501 112.664 61.9521 108.608 64.8101C104.552 67.6681 97.982 64.0871 102.036 58.1281C116.346 37.1031 160.489 27.7591 160.489 27.7591C160.489 27.7591 164.554 19.8591 153.032 13.8841C147.127 10.8161 105.498 -11.0699 69.458 7.20606C42.258 21.0001 62.004 78.0941 62.004 78.0941C64.404 84.0661 71.193 92.9771 45.944 101.651C20.695 110.325 3.56802 129.669 1.15802 147.1C-1.25198 164.531 19.033 176.023 19.033 176.023C36.483 166.61 43.315 141.763 46.809 133.39C50.303 125.017 56.828 136.068 53.569 144.146C50.31 152.224 23.426 173.955 26.432 183.975C29.438 193.995 72.358 211.882 74.803 202.958C77.603 192.776 82.286 175.381 81.452 163.278C80.741 152.922 88.613 150.751 92.825 159.316C97.037 167.881 84.012 177.256 79.661 200.957C75.31 224.658 157.703 221.005 152.944 214.242C148.185 207.479 147.078 200.166 143.268 194.754C139.458 189.342 123.943 143.9 136.468 150.983C145.886 156.303 148.057 171.05 152.504 194.368C155.883 212.086 170.804 214.826 176.754 213.493C184.296 211.803 210.303 205.207 208.854 204.004C207.405 202.801 183.193 176.758 182.94 168.645C182.687 160.532 197.188 177.131 198.24 180.636C199.292 184.141 211.24 194.211 218.656 195.261C226.072 196.311 253.788 184.501 252.887 181.497C251.986 178.493 250.682 160.643 247.287 150.98C245.618 146.237 237.798 132.126 227.687 130.768C221.964 130 179.678 134.123 177.123 125.607C174.568 117.091 230.847 126.058 231.6 123.107C232.353 120.156 227.976 90.5121 218.789 82.5161C209.243 74.2001 161.978 90.5001 156.326 92.0001ZM97.605 122.173C97.556 126.073 96.705 134.962 93.764 138.428C87.964 144.556 84.623 136.902 85.635 131.458C86.251 124.999 90.306 118.375 92.799 112.747L92.84 112.658C98.203 100.162 97.882 115.837 97.605 122.173ZM129.472 120.173C130.273 122.557 130.755 125.036 130.907 127.546C131.563 131.114 133.052 141.47 129.751 143.791C124.207 147.584 120.004 138.945 120.531 134.76C121.284 129.86 122.717 120.12 126.001 116.604L126.038 116.567C127.729 115.2 128.589 117.4 129.472 120.173ZM141.604 73.7281C150.393 79.4181 133.334 84.5851 129.617 84.7541C122.468 84.2131 136.038 70.0281 141.604 73.7281ZM171.218 140.428C172.091 143.46 169.598 144.986 166.932 143.647C163.032 141.685 161.406 131.313 166.79 134.403C168.533 136.202 170.022 138.229 171.218 140.43V140.428ZM181.536 116.61C180.073 117.337 172.488 118.81 170.624 118.615C166.175 117.775 166.205 114.887 169.64 112.343C174.674 108.621 188.971 111.723 181.536 116.612V116.61Z" fill="#63862D"/>
<path d="M141.604 73.7281C142.297 74.1563 142.907 74.7069 143.404 75.3531C144.062 74.2441 144.762 73.1661 145.391 72.1831C143.367 71.7387 141.374 71.1618 139.425 70.4561C140.841 69.4391 141.444 67.2891 142.372 66.1911C139.815 65.0221 136.861 66.2911 134.186 67.3481C135.764 65.3581 137.702 62.6791 137.894 59.9591C134.206 59.6041 130.364 63.2261 127.533 65.2591C128.785 62.2131 130.109 58.6831 129.899 55.3981C127.34 56.2201 118.199 67.0091 118.199 67.0091C117.427 67.1371 115.016 62.1861 115.016 62.1861C112.59 64.3481 107.096 69.9611 107.096 69.9611C107.096 69.9611 103.959 69.8781 103.451 67.0611C101.269 68.2021 100.238 70.0251 99.097 69.5111C96.4121 64.2065 95.3076 58.2423 95.915 52.3281C95.0639 52.9391 92.8789 54.0801 91.9489 55.1781C91.0495 53.4556 90.842 51.4545 91.369 49.5841C89.8768 50.5459 88.5733 51.7728 87.523 53.2041C85.823 51.4221 85.162 48.9671 84.181 46.1571C81.0639 48.4001 82.3389 54.3571 80.8079 57.6001C78.2419 53.4321 77.42 49.3001 77.245 44.2771C73.639 46.4341 72.728 53.5311 70.913 56.9771C70.1 55.8451 67.95 55.2421 67.34 54.3921C66.818 56.0541 65.604 57.3591 65.567 59.1011C60.114 55.9431 58.314 50.1591 55.299 45.0091C56.0246 53.9768 57.6075 62.8543 60.026 71.5201C60.9664 70.0232 62.1171 68.6694 63.443 67.5001C65.071 69.7651 65.7709 73.1281 67.6009 75.6781C70.1849 72.1041 71.3899 67.8031 73.9729 64.2281C74.4928 67.3288 75.7233 70.2671 77.568 72.8131C79.3137 70.5281 80.8782 68.11 82.247 65.5811C82.699 67.4091 82.583 69.6341 83.2369 71.7451C84.2489 70.1591 85.131 67.8051 86.829 66.5841C89.196 70.4701 89.4129 76.7541 90.4369 81.1701C92.0241 78.0417 92.9274 74.6114 93.0869 71.1071C96.0959 74.1011 93.554 78.9291 94.942 82.6581C97.085 80.2581 98.821 77.2941 101.371 75.4581C101.255 77.6901 100.854 80.1221 101.228 82.4341C104.261 80.6791 106.156 76.7421 108.783 74.4271C108.67 76.6551 107.704 79.4971 108.36 81.6021C111.554 78.8741 114.137 75.3021 117.741 73.1421C117.445 77.5947 117.634 82.0662 118.303 86.4781C121.585 85.6661 124.448 83.7891 127.826 83.8881C125.914 80.7821 136.768 70.5131 141.604 73.7281Z" fill="#688F2E"/>
<path d="M178.926 93.1711C174.326 92.4191 170.196 90.1791 165.888 89.0881C161.141 90.5241 157.628 91.6551 156.326 92.0001C146.206 94.6761 141.298 95.5761 140.379 92.4001C139.748 90.2001 144.396 87.0641 150.999 84.4471C149.653 83.9341 148.399 83.4471 147.316 83.0361C149.74 80.4361 155.304 81.7981 158.461 80.8191C154.604 78.4381 149.912 79.3771 145.25 78.8661C146.589 78.3361 149.279 77.0051 148.878 75.2531C147.334 75.9822 145.721 76.556 144.064 76.9661C144.206 81.2431 132.605 84.6151 129.617 84.7511C129.298 84.7274 128.984 84.6553 128.686 84.5371C127.806 86.0735 127.022 87.6632 126.339 89.2971C127.312 89.4591 129.666 90.3451 131.206 90.0971C130.764 91.2731 130.929 93.2971 130.488 94.4801C135.194 96.2481 140.663 94.896 145.414 97.9221C144.565 98.5321 144.327 99.9941 143.962 100.682C152.883 101.146 162.691 99.2551 171.484 98.9461C167.794 98.5931 164.138 96.4941 160.684 94.6791C166.233 92.8391 172.241 95.8221 177.668 93.2121L178.926 93.1711Z" fill="#688F2E"/>
<path d="M95.2699 176.1C95.7069 180.295 94.9889 184.673 95.8519 188.568C99.4909 184.662 102.943 179.605 107.07 177.283C106.594 180.205 106.115 183.124 105.633 186.04C108.608 183.904 112.007 181.463 115.166 180.486C117.249 186.072 123.911 195.399 128.846 199.579C130.432 192.879 126.471 190.597 128.776 184.46C130.915 178.114 128.829 178.339 128.887 175.289C132.448 165.001 125.098 165.622 125.43 154.429C124.22 157.333 122.253 159.859 119.736 161.745C119.975 160.285 119.179 158.279 118.993 157.124C118.118 158.97 117.129 160.76 116.032 162.483C115.971 160.597 113.217 158.053 113.885 156.289C112.555 159.817 112.87 163.896 111.239 167.002C108.97 160.261 108.946 152.107 107.833 145.178C103.294 152.302 101.194 162.828 95.7329 168.678C94.9899 164.062 95.4009 159.257 94.3559 154.211C93.7327 155.51 92.9198 156.71 91.9439 157.77C92.267 158.268 92.5598 158.785 92.8209 159.318C95.2589 164.28 91.9209 169.506 87.8319 177.632C88.4179 179.538 89.3839 181.57 89.9989 183.107C92.4289 182.005 94.3689 179.322 95.2699 176.1Z" fill="#688F2E"/>
<path d="M90.037 155.52C90.1952 153.346 90.1724 151.163 89.969 148.993C89.422 150.027 87.723 151.247 87.178 152.284C86.0772 149.424 85.4329 146.409 85.269 143.349C80.052 147.742 77.518 154.073 73.639 159.434C71.01 154.882 76.221 145.853 75.905 140.928C74.511 142.575 68.559 146.985 66.859 148.208C66.727 144.437 68.598 139.872 68.04 136.408C65.069 138.541 63.315 142.378 59.734 143.667C59.667 141.783 58.26 138.927 58.312 136.314C57.545 137.376 55.741 137.561 54.393 138.052C54.6009 140.12 54.3182 142.208 53.568 144.146C52.485 146.826 48.807 151.004 44.481 155.76C47.9588 156.02 51.4497 155.472 54.681 154.16C55.0311 153.872 55.4359 153.658 55.871 153.53C55.4867 153.763 55.0894 153.973 54.681 154.16C52.254 156.054 49.711 161.389 48.675 163.794C54.331 162.305 57.344 158.273 61.353 156.678C59.478 161.245 55.417 165.45 54.698 169.831C58.949 166.779 65.676 160.011 67.282 168.519C69.098 166.566 71.29 166.928 73.294 166.132C73.712 177.959 73.838 174.98 81.301 171.672C81.5668 168.884 81.6179 166.08 81.454 163.284C80.88 154.939 85.874 151.913 90.037 155.52Z" fill="#688F2E"/>
<path d="M51.906 131.5C51.231 128.062 50.706 124.969 50.706 124.969C50.706 124.969 43.86 127.596 41.732 133.631C41.243 135.014 37.169 134.119 37.938 130.703L35.438 133.21C32.521 132.736 31.491 133.037 28.146 132.864C34.48 135.397 31.567 137.285 36.504 141.464C34.667 142.864 32.996 146.616 32.996 146.616C35.804 145.173 37.312 146.574 37.312 146.574C39.767 150.286 35.212 151.468 33.676 154.007C34.943 154.36 36.342 154.691 37.813 154.972C42.346 146.311 45.013 137.681 46.813 133.382C48.286 129.838 50.316 129.783 51.906 131.5Z" fill="#688F2E"/>
<path d="M64.302 88.972C73.393 99.83 28.15 114.944 36.948 127.188C42.399 120.188 48.229 117.788 54.973 115.524C69.306 110.379 62.407 120.489 56.035 125.068C60.717 126.212 66.36 121.514 71.219 119.309C74.776 129.638 58.208 141.541 62.863 154.298C67.357 148.068 69.563 130.198 83.24 125.64C83.8325 128.681 84.5906 131.688 85.511 134.646C85.4064 133.583 85.4481 132.51 85.635 131.458C86.251 124.999 90.306 118.375 92.799 112.747L92.84 112.658C98.203 100.158 97.882 115.837 97.605 122.173C97.605 122.252 97.597 122.367 97.593 122.452C99.789 129.943 101.324 137.613 102.179 145.372C104.479 140.501 102.133 127.372 107.414 124.872C113.851 122.179 119.2 145.613 124.251 145.618C124.034 144.854 123.879 144.073 123.787 143.284C122.693 142.161 121.839 140.825 121.279 139.36C120.719 137.895 120.465 136.331 120.531 134.764C121.284 129.864 122.717 120.124 126.001 116.608L126.038 116.571C127.729 115.202 128.589 117.405 129.472 120.177C130.273 122.561 130.755 125.04 130.907 127.55C131.037 128.261 131.202 129.25 131.354 130.381C134.57 134.481 134.222 143.448 138.784 146.126C139.084 142.052 137.913 137.737 140.272 134.754C146.854 140.328 146.146 160.603 152.215 164.818C150.397 159.049 147.971 147.256 153.12 140.979C160.553 145.946 158.987 150.937 162.294 158.224C166.962 154.869 160.129 146.249 165.834 143.437C166.156 148.362 170.347 147.926 171.334 151.085C172.501 155.396 173.407 166.57 175.308 171.003C176.754 166.743 175.672 155.081 176.381 150.038C181.436 153.488 179.742 160.446 188.267 162.104C187.778 160.525 185.579 156.319 185.089 154.741C198.829 159.253 205.802 169.472 210.38 175.841C211.28 172.618 210.233 167.572 208.946 163.988C214.496 169.02 217.546 173.267 225.216 176.774C228.916 178.222 235.958 176.99 236.773 176.755C236.773 176.755 234.143 174.901 227.948 171.499C203.219 157.937 130.848 99.459 102.148 91.389C94.59 89.264 77.315 85.417 64.302 88.972ZM166.79 134.405C168.533 136.203 170.022 138.23 171.218 140.43C172.091 143.462 169.598 144.988 166.932 143.649C163.029 141.687 161.406 131.315 166.79 134.405Z" fill="#8CAE3A"/>
<path d="M183.467 113.275C183.589 112.982 183.693 112.681 183.779 112.375C183.486 112.422 183.155 112.466 182.84 112.512C183.099 112.72 183.313 112.98 183.467 113.275Z" fill="#688F2E"/>
<path d="M177.116 125.607C176.504 123.576 179.242 122.543 183.769 122.099C182.975 119.699 184.845 119.56 186.469 117.316C184.93 117.562 183.069 117.754 181.687 117.031C181.794 116.749 181.926 116.48 182.056 116.207C181.882 116.342 181.745 116.473 181.537 116.612C180.074 117.339 172.489 118.812 170.625 118.617C166.176 117.777 166.206 114.889 169.641 112.345C171.361 111.069 174.161 110.611 176.81 110.731C178.261 107.066 180.254 101.6 180.717 100.241C177.017 100.479 172.337 104.507 163.79 104.475C160.817 104.465 151.4 105.408 147.902 104.175C153.261 107.627 158.894 110.635 164.743 113.169C163.422 114.12 169.098 116.769 160.934 118.628C165.434 121.696 179.045 130.087 184.025 132.239C183.647 132.512 181.679 134.352 181.167 134.439C185.5 138.482 200.267 148.231 206.578 148.045C204.222 144.318 194.105 141.889 192.44 136.784C195.629 135.643 200.213 138.435 203.585 137.154C198.237 134.232 191.32 133.39 185.775 129.985C181.109 129.171 177.775 127.816 177.116 125.607Z" fill="#688F2E"/>
<path d="M148.596 109.029C144.943 106.929 131.526 100.803 145.005 97.1521C140.434 93.7791 129.558 98.6621 127.556 94.0851C125.762 89.7961 132.771 88.1941 135.193 85.5911C127.701 87.1141 119.512 88.2721 112.493 83.8741C103.593 78.6661 113.153 80.6061 116.627 69.3071C111.2 71.9181 106.441 79.6321 99.957 79.5671C91.157 79.8761 93.638 67.7911 91.801 62.2431C89.215 65.8171 88.221 73.3971 83.401 73.8571C83.0403 70.8834 82.2512 67.9776 81.058 65.2301C80.297 68.3521 79.215 73.4241 76.18 75.1761C74.306 71.3671 70.4 75.8931 61.866 58.8361C60.307 66.8271 69.678 79.2731 65.766 86.3801L64.299 88.9721C73.988 89.3101 88.118 87.1381 97.127 90.1081C107.717 94.0951 118.667 97.3201 129.018 102.766C133.993 105.761 138.774 109.067 143.332 112.666C147.938 116.193 152.549 118.744 156.956 122.059C165.218 128.287 171.969 132.599 178.672 137.445C180.285 138.612 191.959 146.636 194.051 148.292C198.785 152.04 216.994 158.864 186.637 139.468C186.008 139.068 188.958 138.712 188.958 138.712C186.209 136.565 183.24 134.716 180.101 133.196C173.968 130.179 166.59 124.184 173.261 124.974C171.661 123.052 168.555 122.23 164.961 120.455C162.836 119.217 160.819 117.801 158.933 116.222C159.163 115.637 159.497 115.099 159.918 114.633C161.189 113.024 165.433 113.998 168.372 113.48C168.716 113.111 169.091 112.772 169.493 112.468C163.582 109.691 155.076 113.452 148.596 109.029Z" fill="#8CAE3A"/>
<path d="M183.166 178.66C181.611 176.285 180.351 173.729 179.413 171.049C178.696 174.119 177.457 177.042 175.748 179.691C174.715 177.606 173.985 175.383 173.582 173.091C172.858 174.47 171.239 175.205 170.593 176.091C169.169 174.11 169.079 171.591 168.142 169.691C167.777 170.38 166.847 171.477 166.489 172.168C165.709 169.289 164.159 166.539 163.098 163.868C162.098 168.451 163.044 173.355 161.069 177.779C159.274 173.487 157.15 168.141 153.453 164.785C153.707 169.326 154.858 174.512 155.315 179.334L155.803 179.414C160.963 183.008 163.74 190.461 166.632 195.68C165.694 194.181 165.128 192.479 164.982 190.717C164.836 188.954 165.113 187.182 165.791 185.549C167.04 187.391 168.143 189.326 169.091 191.339C169.77 188.699 170.735 185.861 172.514 184.155C174.364 186.997 176.05 189.942 177.566 192.975C178.452 190.624 178.644 187.906 180.503 185.711C182.172 188.256 184.139 190.592 186.363 192.669C186.355 189.669 185.937 186.103 185.931 183.102C188.237 183.663 190.88 186.32 193.505 186.497C190.718 183.052 188.146 179.438 185.805 175.676C185.254 176.919 184.332 177.961 183.166 178.66Z" fill="#688F2E"/>
<path d="M192.182 191.781C191.657 197.314 196.252 205.863 196.252 205.863C189.128 203.506 188.318 198.663 188.234 197.274C188.241 201.3 189.735 205.182 192.429 208.174C189.383 210.012 169.395 192.469 169.395 192.469C170.276 197.041 181.005 210.769 181.005 210.769C175.805 211.192 168.827 198.987 168.827 198.987C169.425 203.15 170.773 207.171 172.804 210.854C165.726 210.598 155.426 186.97 155.426 186.97C154.038 191.117 153.58 195.519 154.084 199.863C159.171 212.663 171.479 214.677 176.755 213.495C181.922 212.335 195.755 208.872 203.494 206.425C199.43 201.778 195.652 196.887 192.182 191.781Z" fill="#4F7B2E"/>
<path d="M252.883 181.5C237.102 178.88 228.406 182.011 228.406 182.011C235.025 186.311 235.799 189.465 235.799 189.465L232.221 188.865C227.276 187.325 222.013 187.107 216.958 188.234C220.197 189.373 222.91 191.653 224.589 194.648C235.389 192.218 253.618 183.945 252.883 181.5Z" fill="#4F7B2E"/>
<path d="M168.21 47.7561C168.21 47.7561 155.683 56.2071 150.81 54.9731C150.613 54.9246 150.422 54.8556 150.24 54.7671C145.869 52.6111 155.879 61.9871 172.487 56.8061C172.487 56.8061 166.552 67.7351 149.945 70.1311C161.365 72.5864 173.092 73.2945 184.725 72.2311C184.725 72.2311 190.53 70.2841 177.071 76.7311C177.071 76.7311 180.716 77.1161 185.311 77.2491C197.297 74.8211 209.226 71.7491 209.226 71.7491C209.226 71.7491 206.116 54.1141 191.192 44.4311C184.908 40.3541 158.248 37.3441 144.27 39.9011C142.269 40.2953 140.322 40.9254 138.47 41.7781C146.406 41.2641 165.279 40.8221 168.21 47.7561Z" fill="#3F5824"/>
<path d="M236.165 134.933C235.179 135.233 233 135.205 229.284 134.756L236.013 138.294C236.013 138.294 238.486 141.887 234.163 140.055L237.224 143.995C237.224 143.995 233.551 146.073 225.763 143.595L235.363 152.495C235.363 152.495 230.108 155.631 222.601 152.65L228.862 160.517C228.862 160.517 223.283 165.254 208.381 148.917C208.381 148.917 200.615 158.403 238.058 176.917C245.134 180.417 249.681 182.527 252.88 181.493C251.98 178.487 250.675 160.639 247.28 150.976C246.118 147.68 241.976 139.853 236.165 134.933Z" fill="#3F5824"/>
<path d="M191.232 94.0751C191.232 94.0751 202.151 92.9091 206.048 88.3091C206.048 88.3091 195.964 103.809 186.057 101.121C186.057 101.121 191.719 105.368 201.098 100.563C201.098 100.563 205.752 104.198 194.959 109.582C194.959 109.582 203.637 112.234 210.25 109.124C210.25 109.124 206.089 117.004 197.517 117.196C197.517 117.196 204.822 119.753 213.13 122.931C223.096 123.631 231.307 124.218 231.593 123.102C232.343 120.147 227.969 90.5071 218.782 82.5111C215.762 79.8771 208.958 79.7171 200.889 80.7721C198.838 85.6841 195.532 91.8701 191.232 94.0751Z" fill="#3F5824"/>
<path d="M71.7259 20.914C71.7259 20.914 62.5529 41.352 62.0519 52.014C62.0519 52.014 89.5699 13.714 97.1369 15.385C97.1369 15.385 88.0509 23.335 84.0689 30.374C84.0689 30.374 96.4689 19.544 101.769 21.411C101.769 21.411 84.7959 32.8 81.9819 37.333C81.9819 37.333 110.29 24.504 112.746 27.263C108.602 29.6716 105.4 33.4171 103.665 37.885C103.665 37.885 113.672 26.408 123.631 25.82C123.631 25.82 107.45 38.392 105.724 44.314C105.724 44.314 136.602 20.495 143.524 26.281C143.524 26.281 121.606 36.214 117.677 43.617C117.677 43.617 120.494 42.217 124.709 40.317C141.736 31.727 160.494 27.755 160.494 27.755C160.494 27.755 164.559 19.855 153.037 13.88C147.127 10.816 105.498 -11.07 69.4579 7.20604C61.2209 11.383 57.2919 19.522 55.8099 28.848C60.1089 24.755 66.0679 20.429 71.7259 20.914Z" fill="#3F5824"/>
<path d="M78.086 88.252C78.086 88.252 78.007 88.123 77.856 87.881C77.621 87.5197 77.4054 87.1462 77.21 86.762C76.8818 86.1486 76.5952 85.5138 76.352 84.862C76.0439 84.035 75.7988 83.1859 75.619 82.322C75.573 82.086 75.5253 81.8457 75.476 81.601C75.441 81.353 75.405 81.101 75.37 80.845C75.284 80.334 75.26 79.807 75.21 79.264C75.1489 78.1344 75.1533 77.0021 75.223 75.873C75.297 74.708 75.418 73.51 75.605 72.315C75.792 71.12 75.999 69.905 76.244 68.708C76.725 66.308 77.292 63.946 77.79 61.722C78.035 60.616 78.271 59.54 78.471 58.516C78.671 57.492 78.844 56.527 78.99 55.633C79.053 55.181 79.116 54.752 79.173 54.341C79.23 53.93 79.273 53.541 79.315 53.172C79.381 52.436 79.438 51.793 79.461 51.264C79.484 50.735 79.491 50.317 79.499 50.034C79.507 49.751 79.507 49.594 79.507 49.594C79.507 49.594 79.516 49.747 79.528 50.032C79.54 50.317 79.57 50.732 79.561 51.266C79.578 51.801 79.561 52.445 79.538 53.189C79.52 53.558 79.499 53.957 79.472 54.37C79.445 54.783 79.407 55.222 79.372 55.677C79.286 56.588 79.172 57.577 79.033 58.612C78.894 59.647 78.733 60.743 78.551 61.869C78.198 64.124 77.777 66.517 77.451 68.911C77.284 70.111 77.151 71.311 77.051 72.482C76.951 73.653 76.904 74.811 76.9 75.923C76.9017 76.9826 76.9631 78.0413 77.084 79.094C77.167 79.586 77.215 80.069 77.32 80.525C77.368 80.753 77.414 80.981 77.459 81.2C77.519 81.415 77.573 81.631 77.631 81.836C77.8371 82.5842 78.0981 83.3162 78.412 84.026C78.6498 84.5592 78.9228 85.0759 79.229 85.573C79.4281 85.91 79.644 86.2367 79.876 86.552C80.043 86.781 80.129 86.907 80.129 86.907L78.086 88.252Z" fill="#BFD471"/>
<path d="M85.2409 89.486L84.6029 89.9C84.3939 90.034 84.1399 90.2 83.8379 90.4C83.5669 90.6 83.2499 90.833 82.9049 91.09C82.5599 91.347 82.1639 91.669 81.7499 92.007C81.3209 92.342 80.8849 92.739 80.4089 93.155C79.9329 93.571 79.4519 94.042 78.9269 94.525C78.4159 95.025 77.8769 95.546 77.3189 96.106C76.1979 97.233 74.9849 98.453 73.6979 99.745C72.4109 101.037 70.9759 102.372 69.4099 103.652C67.7975 104.985 66.0624 106.162 64.2279 107.167C62.3879 108.151 60.4969 109.126 58.6189 110.096C54.8559 112.037 51.1079 113.988 47.6769 115.963C44.5326 117.728 41.5125 119.706 38.6379 121.883C36.593 123.409 34.7749 125.217 33.2379 127.254C32.9789 127.636 32.7459 127.979 32.5669 128.29C32.3879 128.601 32.2349 128.868 32.1369 129.09C31.9369 129.544 31.8259 129.79 31.8259 129.79C31.8259 129.79 31.9259 129.544 32.1119 129.084C32.2009 128.856 32.3589 128.584 32.5119 128.264C32.6649 127.944 32.8999 127.592 33.1479 127.197C34.6224 125.089 36.3884 123.201 38.3929 121.589C41.2063 119.293 44.1732 117.191 47.2729 115.299C50.6489 113.194 54.3419 111.099 58.0359 109.027C59.8809 107.987 61.7229 106.953 63.5189 105.904C65.2283 104.884 66.8375 103.705 68.3249 102.382C69.7879 101.102 71.1169 99.755 72.3529 98.436C73.5859 97.101 74.7529 95.841 75.8309 94.678C76.3739 94.092 76.9079 93.536 77.4139 93.006C77.9369 92.489 78.4139 91.985 78.8989 91.535C79.3839 91.085 79.8159 90.651 80.2569 90.279C80.6979 89.907 81.0719 89.545 81.4699 89.243C81.8679 88.941 82.1979 88.665 82.4999 88.432C82.7939 88.2253 83.0416 88.049 83.2429 87.903L83.8659 87.468L85.2409 89.486Z" fill="#BFD471"/>
<path d="M95.193 90.959C95.193 90.959 94.361 92.275 92.907 94.588C92.179 95.743 91.253 97.133 90.214 98.734C89.165 100.32 87.98 102.114 86.692 104.067C85.404 106.02 83.992 108.125 82.567 110.382C81.849 111.511 81.09 112.656 80.36 113.853C79.63 115.05 78.886 116.271 78.127 117.513C77.39 118.769 76.674 120.061 75.927 121.36C75.74 121.686 75.558 122.014 75.372 122.339C75.202 122.677 75.03 123.009 74.858 123.339C74.516 124.012 74.1704 124.688 73.821 125.366C73.649 125.705 73.473 126.046 73.301 126.387C73.218 126.555 73.118 126.731 73.047 126.893L72.804 127.42C72.484 128.125 72.163 128.83 71.841 129.537L69.901 133.79C69.255 135.206 68.61 136.622 67.966 138.039C67.639 138.749 67.32 139.451 67 140.157C66.68 140.863 66.384 141.569 66.075 142.272C64.845 145.082 63.64 147.851 62.47 150.527C62.176 151.193 61.888 151.862 61.599 152.517C61.459 152.847 61.314 153.175 61.172 153.498L60.962 153.986L60.773 154.472C60.52 155.129 60.259 155.772 60.073 156.424C59.973 156.747 59.861 157.067 59.76 157.39C59.659 157.713 59.578 158.038 59.491 158.355C58.8469 160.781 58.3387 163.241 57.969 165.723C57.613 168.03 57.381 170.16 57.215 172.053C57.049 173.946 56.938 175.599 56.881 176.96C56.824 178.321 56.803 179.396 56.795 180.128C56.787 180.86 56.802 181.246 56.802 181.246C56.802 181.246 56.787 180.859 56.767 180.128C56.747 179.397 56.743 178.323 56.777 176.96C56.811 175.597 56.861 173.935 56.988 172.036C57.115 170.137 57.288 167.993 57.588 165.671C57.9001 163.162 58.3521 160.672 58.942 158.213C59.023 157.886 59.106 157.56 59.189 157.226C59.272 156.892 59.381 156.564 59.482 156.226C59.667 155.548 59.906 154.896 60.145 154.233L60.326 153.733L60.526 153.239C60.6594 152.906 60.7957 152.572 60.935 152.239C61.205 151.576 61.477 150.904 61.756 150.227C62.861 147.514 64.003 144.713 65.163 141.869C65.453 141.155 65.7457 140.441 66.041 139.726C66.3364 139.011 66.6397 138.298 66.951 137.586C67.563 136.157 68.1744 134.723 68.785 133.286C69.3957 131.849 70.0077 130.415 70.621 128.986C70.9237 128.272 71.2277 127.559 71.533 126.846L71.76 126.314C71.844 126.12 71.928 125.959 72.012 125.78C72.177 125.43 72.348 125.08 72.512 124.731C72.8454 124.034 73.1787 123.341 73.512 122.652C73.678 122.302 73.843 121.96 74.012 121.616C74.181 121.272 74.369 120.943 74.547 120.61C75.267 119.281 75.962 117.954 76.672 116.67C77.4054 115.397 78.127 114.148 78.837 112.923C79.537 111.697 80.279 110.531 80.969 109.377C82.352 107.068 83.721 104.935 84.954 102.941L88.333 97.532C89.327 95.919 90.207 94.532 90.905 93.361C92.305 91.013 93.105 89.67 93.105 89.67L95.193 90.959Z" fill="#BFD471"/>
<path d="M119.176 98.5801C119.176 98.5801 118.412 100.08 117.076 102.691C115.757 105.31 113.876 109.052 111.902 113.651C110.918 115.951 109.926 118.47 109.026 121.184C108.073 124.022 107.304 126.919 106.726 129.857C106.114 133 105.739 136.185 105.604 139.385C105.529 141.022 105.523 142.675 105.573 144.335C105.587 145.165 105.641 145.993 105.673 146.827L105.857 149.335C106.131 152.669 106.506 156.005 106.932 159.281C107.385 162.55 107.858 165.77 108.408 168.871C108.662 170.423 108.97 171.941 109.235 173.433C109.538 174.918 109.832 176.369 110.118 177.786C110.725 180.609 111.335 183.271 111.953 185.715C112.571 188.159 113.187 190.385 113.753 192.351C114.053 193.326 114.333 194.251 114.587 195.093C114.841 195.935 115.124 196.711 115.352 197.406C115.804 198.806 116.23 199.882 116.497 200.623L116.917 201.758L116.473 200.633C116.19 199.898 115.736 198.833 115.255 197.443C115.011 196.743 114.722 195.983 114.436 195.143C114.15 194.303 113.857 193.39 113.536 192.416C112.92 190.459 112.248 188.241 111.579 185.808C110.91 183.375 110.23 180.725 109.559 177.908C109.243 176.495 108.917 175.046 108.58 173.563C108.28 172.076 107.934 170.563 107.647 169.007C107.023 165.907 106.476 162.695 105.947 159.417C105.447 156.138 104.99 152.795 104.639 149.434C104.257 146.083 104.093 142.711 104.149 139.339C104.211 136.058 104.521 132.786 105.076 129.551C105.601 126.528 106.32 123.542 107.227 120.611C108.088 117.811 109.04 115.223 109.984 112.859C111.884 108.14 113.698 104.326 114.965 101.659L116.98 97.4821L119.176 98.5801Z" fill="#BFD471"/>
<path d="M154.524 120.138C154.524 120.138 154.401 120.458 154.179 121.058C154.079 121.352 153.984 121.694 153.856 122.106C153.756 122.537 153.618 123.033 153.512 123.6C153.246 124.974 153.072 126.364 152.992 127.761C152.877 129.592 152.855 131.428 152.925 133.261C153.126 137.889 153.627 142.498 154.425 147.061C154.847 149.568 155.346 152.155 155.913 154.772C156.48 157.389 157.113 160.035 157.813 162.665C158.156 163.978 158.527 165.288 158.902 166.591L159.187 167.566L159.205 167.626L159.217 167.655C159.203 167.622 159.217 167.665 159.217 167.665L159.262 167.784L159.352 168.02L159.522 168.499C159.764 169.127 159.97 169.778 160.233 170.384C161.21 172.81 162.327 175.177 163.578 177.473C164.171 178.602 164.811 179.673 165.422 180.745C166.058 181.792 166.673 182.825 167.308 183.809C168.555 185.791 169.789 187.627 170.937 189.319C173.237 192.699 175.192 195.498 176.513 197.483C177.182 198.471 177.696 199.257 178.045 199.792L178.578 200.613C178.578 200.613 178.389 200.331 178.024 199.804C177.659 199.277 177.14 198.504 176.454 197.524C175.091 195.565 173.086 192.81 170.716 189.475C169.532 187.806 168.26 185.99 166.967 184.03C166.313 183.056 165.675 182.03 165.014 180.99C164.377 179.933 163.714 178.863 163.094 177.739C161.783 175.444 160.608 173.073 159.577 170.639C159.292 170.02 159.077 169.391 158.82 168.761L158.639 168.289L158.545 168.05L158.501 167.934L158.483 167.883L158.47 167.851L158.455 167.792L158.147 166.819C157.747 165.519 157.347 164.207 156.975 162.894C156.215 160.266 155.531 157.618 154.905 155C154.279 152.382 153.726 149.789 153.25 147.265C152.349 142.662 151.747 138.005 151.45 133.324C151.342 131.441 151.328 129.554 151.409 127.669C151.463 126.199 151.616 124.734 151.869 123.285C151.969 122.685 152.102 122.143 152.206 121.668C152.346 121.194 152.452 120.768 152.554 120.468C152.766 119.868 152.881 119.543 152.881 119.543L154.524 120.138Z" fill="#BFD471"/>
<path d="M199.622 151.715C199.622 151.715 199.652 151.876 199.706 152.175C199.76 152.474 199.832 152.931 199.96 153.469C200.088 154.007 200.221 154.669 200.442 155.422C200.542 155.799 200.655 156.198 200.792 156.616C200.929 157.034 201.055 157.478 201.223 157.93C201.543 158.843 201.923 159.82 202.357 160.838C202.58 161.346 202.805 161.868 203.057 162.393C203.186 162.656 203.309 162.92 203.439 163.193C203.569 163.466 203.712 163.726 203.85 163.993C204.399 165.073 205.021 166.164 205.675 167.261C206.329 168.358 207.036 169.443 207.775 170.506C208.514 171.569 209.289 172.618 210.07 173.633C210.839 174.609 211.693 175.516 212.622 176.341C213.522 177.154 214.455 177.887 215.332 178.581C216.209 179.275 217.046 179.929 217.792 180.57C218.475 181.146 219.124 181.761 219.737 182.411C220.205 182.917 220.633 183.458 221.018 184.03C221.174 184.273 221.305 184.489 221.424 184.677C221.543 184.865 221.609 185.044 221.68 185.177L221.887 185.598C221.887 185.598 221.808 185.457 221.668 185.187C221.59 185.055 221.508 184.887 221.395 184.695C221.282 184.503 221.13 184.295 220.968 184.065C220.568 183.51 220.124 182.987 219.642 182.501C219.015 181.875 218.351 181.286 217.655 180.737C216.893 180.127 216.034 179.504 215.132 178.837C214.23 178.17 213.274 177.468 212.332 176.67C211.354 175.858 210.45 174.96 209.632 173.987C208.811 172.994 207.988 171.971 207.214 170.913C206.44 169.855 205.689 168.779 204.973 167.699C204.279 166.609 203.608 165.525 203.011 164.444C202.863 164.177 202.714 163.911 202.565 163.644C202.426 163.374 202.29 163.105 202.151 162.844C201.873 162.316 201.624 161.791 201.38 161.277C200.894 160.252 200.475 159.263 200.118 158.339C199.931 157.88 199.779 157.427 199.628 157.003C199.477 156.579 199.343 156.169 199.228 155.779C198.978 155.013 198.805 154.32 198.657 153.752C198.509 153.184 198.43 152.752 198.357 152.452C198.284 152.152 198.257 151.996 198.257 151.996L199.622 151.715Z" fill="#BFD471"/>
<path d="M189.616 145.054L191.891 144.337C192.251 144.225 192.653 144.097 193.091 143.961C193.529 143.825 194.031 143.733 194.551 143.608C195.709 143.301 196.882 143.053 198.065 142.863C198.713 142.756 199.387 142.646 200.087 142.534C200.432 142.465 200.794 142.449 201.157 142.414L202.264 142.314L203.4 142.214C203.592 142.193 203.786 142.177 203.977 142.16C204.168 142.143 204.371 142.152 204.569 142.144C205.357 142.13 206.161 142.114 206.982 142.097C207.188 142.097 207.391 142.09 207.598 142.088C207.805 142.086 208.011 142.104 208.22 142.116C208.635 142.136 209.05 142.158 209.473 142.177C210.311 142.22 211.167 142.242 212.018 142.366C212.873 142.466 213.729 142.566 214.593 142.666L217.164 143.138L217.807 143.257C218.046 143.295 218.234 143.367 218.45 143.416C218.867 143.539 219.289 143.616 219.701 143.781C220.113 143.946 220.534 144.066 220.937 144.226L222.131 144.726C223.694 145.436 225.189 146.226 226.61 147.018C229.448 148.618 232.04 150.2 234.324 151.44C234.89 151.758 235.448 152.04 235.97 152.316C236.492 152.592 237.007 152.828 237.48 153.06C238.441 153.499 239.28 153.877 239.998 154.127C240.356 154.251 240.67 154.387 240.95 154.468C241.23 154.549 241.474 154.623 241.67 154.683C242.06 154.795 242.27 154.858 242.27 154.858L241.67 154.691C241.47 154.639 241.23 154.571 240.948 154.491C240.666 154.411 240.348 154.291 239.986 154.167C239.263 153.929 238.413 153.567 237.443 153.149C236.964 152.925 236.443 152.697 235.916 152.433C235.389 152.169 234.826 151.895 234.249 151.588C231.939 150.388 229.316 148.848 226.449 147.309C225.02 146.54 223.519 145.788 221.96 145.116C221.566 144.96 221.172 144.799 220.776 144.641C220.38 144.483 219.971 144.371 219.569 144.232C219.167 144.093 218.739 144.007 218.324 143.896C218.118 143.852 217.896 143.78 217.704 143.755L217.064 143.655C216.211 143.513 215.36 143.373 214.513 143.234C213.658 143.15 212.813 143.064 211.961 142.982C211.118 142.876 210.275 142.867 209.444 142.845C209.028 142.831 208.617 142.82 208.205 142.806C207.998 142.8 207.798 142.797 207.589 142.787C207.389 142.795 207.189 142.801 206.989 142.811C206.181 142.843 205.388 142.874 204.611 142.903C204.418 142.913 204.226 142.92 204.032 142.929C203.838 142.938 203.651 142.968 203.463 142.991C203.086 143.035 202.711 143.07 202.348 143.112C201.985 143.154 201.614 143.194 201.257 143.232C200.9 143.27 200.549 143.298 200.207 143.373C199.521 143.496 198.861 143.616 198.228 143.733C196.947 143.926 195.821 144.27 194.809 144.52C194.309 144.65 193.832 144.766 193.398 144.89L192.206 145.29L189.945 146.051L189.616 145.054Z" fill="#BFD471"/>
<path d="M143.005 111.98C143.005 111.98 143.273 111.864 143.776 111.65L144.705 111.25C145.07 111.093 145.486 110.913 145.977 110.733C146.468 110.553 146.999 110.341 147.583 110.123C148.167 109.905 148.807 109.699 149.483 109.467C150.159 109.235 150.895 109.014 151.668 108.784C152.053 108.671 152.443 108.543 152.852 108.431L154.101 108.1C155.806 107.639 157.671 107.221 159.641 106.809C161.623 106.423 163.714 106.037 165.884 105.709C168.054 105.381 170.3 105.061 172.574 104.744C173.713 104.583 174.855 104.417 176.003 104.238L177.718 103.954L179.425 103.603C180.57 103.375 181.709 103.11 182.858 102.912C184.007 102.714 185.158 102.535 186.297 102.347L187.147 102.206C187.431 102.17 187.716 102.137 188.003 102.106L189.694 101.899C190.814 101.767 191.915 101.605 193.012 101.539L196.235 101.279C196.761 101.227 197.281 101.215 197.796 101.196C198.311 101.177 198.824 101.157 199.324 101.14L200.81 101.083C201.295 101.064 201.775 101.037 202.252 101.048C203.197 101.048 204.109 101.055 204.982 101.062C206.74 101.035 208.344 101.162 209.767 101.217C210.479 101.253 211.142 101.288 211.758 101.317C212.371 101.373 212.935 101.429 213.445 101.472L216.645 101.772L213.445 101.533C212.937 101.493 212.371 101.449 211.759 101.405C211.146 101.387 210.478 101.363 209.768 101.341C208.348 101.306 206.741 101.219 204.994 101.276C204.116 101.29 203.204 101.303 202.263 101.316C201.792 101.316 201.311 101.347 200.825 101.373C200.339 101.399 199.848 101.429 199.344 101.459C198.84 101.489 198.339 101.515 197.824 101.545C197.309 101.575 196.792 101.595 196.268 101.654C195.222 101.762 194.155 101.869 193.068 101.976C191.978 102.061 190.882 102.247 189.768 102.395C189.213 102.475 188.651 102.553 188.089 102.633C187.806 102.674 187.524 102.713 187.242 102.752L186.396 102.907C185.272 103.114 184.139 103.322 182.996 103.532C181.857 103.751 180.722 104.038 179.581 104.285L177.863 104.672C177.289 104.779 176.711 104.887 176.137 104.992C174.986 105.192 173.842 105.382 172.707 105.561C170.432 105.92 168.207 106.273 166.05 106.648C163.893 107.023 161.828 107.437 159.878 107.857C157.93 108.3 156.095 108.748 154.424 109.234L153.196 109.586C152.796 109.703 152.411 109.835 152.035 109.95C151.281 110.196 150.563 110.418 149.902 110.664C149.241 110.91 148.613 111.118 148.048 111.34L146.503 111.963C146.032 112.142 145.62 112.329 145.255 112.495C144.89 112.661 144.583 112.795 144.336 112.907L143.572 113.252L143.005 111.98Z" fill="#BFD471"/>
<path d="M106.712 91.931C106.712 91.931 106.953 91.702 107.412 91.274C107.871 90.846 108.538 90.222 109.36 89.416C110.182 88.61 111.195 87.627 112.349 86.49C113.503 85.353 114.817 84.072 116.249 82.672C117.701 81.29 119.269 79.781 121.018 78.272C121.869 77.502 122.808 76.761 123.738 75.986C124.705 75.244 125.669 74.465 126.719 73.754C127.735 73.003 128.832 72.329 129.927 71.621C131.054 70.977 132.178 70.284 133.373 69.707C133.673 69.554 133.967 69.407 134.262 69.252L134.709 69.027L135.164 68.827C135.777 68.557 136.388 68.283 136.999 68.012C137.61 67.741 138.249 67.525 138.877 67.277C139.505 67.029 140.131 66.789 140.761 66.577L144.519 65.259C145.769 64.823 147.046 64.447 148.295 64.041L150.168 63.45C150.788 63.267 151.409 63.081 152.022 62.894C153.255 62.533 154.474 62.174 155.67 61.819C158.07 61.14 160.385 60.479 162.586 59.855C163.686 59.542 164.753 59.236 165.786 58.944C166.819 58.652 167.815 58.344 168.77 58.063C169.725 57.782 170.645 57.518 171.515 57.246C172.385 56.974 173.2 56.709 173.974 56.465C174.748 56.221 175.469 55.992 176.135 55.777C176.797 55.547 177.402 55.339 177.956 55.144C180.151 54.375 181.405 53.938 181.405 53.938C181.405 53.938 180.159 54.411 177.989 55.247C177.443 55.447 176.842 55.68 176.189 55.931C175.527 56.163 174.808 56.411 174.043 56.677C173.278 56.943 172.465 57.232 171.605 57.53C170.745 57.828 169.832 58.115 168.888 58.43C167.944 58.745 166.948 59.058 165.925 59.393C164.902 59.728 163.842 60.05 162.749 60.393L155.897 62.557C154.708 62.944 153.508 63.338 152.287 63.735C151.679 63.935 151.068 64.135 150.453 64.335C149.838 64.535 149.229 64.764 148.612 64.977C147.385 65.417 146.142 65.82 144.901 66.293C143.66 66.766 142.424 67.244 141.181 67.717C140.552 67.949 139.952 68.206 139.346 68.46C138.74 68.714 138.126 68.948 137.538 69.228C136.95 69.508 136.359 69.795 135.772 70.075L135.335 70.285L134.906 70.519L134.051 70.984C132.909 71.575 131.839 72.284 130.757 72.941C129.717 73.659 128.672 74.341 127.701 75.101C126.701 75.819 125.786 76.607 124.866 77.353C123.978 78.142 123.089 78.881 122.266 79.664C120.601 81.192 119.097 82.727 117.699 84.135C116.317 85.567 115.052 86.883 113.929 88.048C112.806 89.213 111.822 90.239 111.003 91.081C110.184 91.923 109.539 92.559 109.095 93.005C108.651 93.451 108.422 93.681 108.422 93.681L106.712 91.931Z" fill="#BFD471"/>
<path d="M85.8359 88.1211C85.8359 88.1211 85.8449 87.8311 85.8599 87.2841C85.8749 86.7371 85.8929 85.9481 85.9759 84.8961C86.0319 83.8451 86.1579 82.5961 86.3209 81.1671C86.4209 80.4541 86.5069 79.6911 86.6369 78.8961C86.7669 78.1011 86.8869 77.2601 87.0669 76.3961C87.2469 75.5321 87.4049 74.6231 87.6299 73.6961C87.7349 73.2321 87.8459 72.7611 87.9549 72.2791C88.0639 71.7971 88.2029 71.3191 88.3259 70.8321C88.5659 69.8501 88.8849 68.8591 89.1699 67.8391C89.3319 67.3341 89.4959 66.8251 89.6599 66.3041C89.8239 65.7831 89.9909 65.2711 90.1819 64.7531C90.8819 62.6661 91.7439 60.5531 92.6549 58.4371C93.5889 56.3241 94.6269 54.2171 95.7419 52.1571C96.8869 50.1071 98.0839 48.0921 99.3849 46.1891C100.646 44.3158 102.006 42.5116 103.46 40.7841C103.635 40.5721 103.808 40.3651 103.985 40.1531C104.162 39.9411 104.345 39.7531 104.524 39.5531C104.886 39.1531 105.244 38.7531 105.594 38.3621C105.964 37.9821 106.327 37.6111 106.688 37.2421C106.869 37.0591 107.049 36.8751 107.223 36.6931C107.397 36.5111 107.597 36.3471 107.779 36.1731C108.146 35.8281 108.508 35.4901 108.862 35.1531C109.233 34.8371 109.592 34.5221 109.954 34.2131C110.654 33.5811 111.392 33.0421 112.081 32.5001C112.423 32.2221 112.776 31.9831 113.122 31.7411C113.468 31.4991 113.796 31.2621 114.122 31.0331C114.79 30.5921 115.437 30.2031 116.033 29.8181C117.266 29.1101 118.351 28.5101 119.279 28.0891C120.186 27.6241 120.94 27.3471 121.438 27.1331C121.936 26.9191 122.215 26.8141 122.215 26.8141C122.215 26.8141 121.949 26.9341 121.452 27.1551C120.955 27.3761 120.216 27.6921 119.325 28.1821C118.415 28.6321 117.354 29.2651 116.152 30.0111C115.571 30.4111 114.94 30.8191 114.294 31.2811C113.978 31.5181 113.655 31.7651 113.323 32.0151C112.991 32.2651 112.644 32.5151 112.315 32.8011C111.654 33.3611 110.939 33.9161 110.266 34.5681C109.92 34.8841 109.566 35.2081 109.213 35.5331C108.874 35.8751 108.527 36.2231 108.177 36.5771L107.648 37.1051C107.476 37.2921 107.306 37.4811 107.133 37.6661L106.09 38.8101C105.757 39.2101 105.417 39.6138 105.07 40.0211C104.9 40.2211 104.729 40.4311 104.555 40.6331C104.39 40.8501 104.222 41.0591 104.055 41.2741C102.68 43.0262 101.397 44.8487 100.212 46.7341C98.9919 48.6531 97.8759 50.6761 96.8209 52.7261C95.7879 54.7911 94.8389 56.8931 93.9889 59.0001C93.1629 61.1131 92.3889 63.2081 91.7649 65.2751C91.5959 65.7901 91.4469 66.3041 91.3049 66.8141C91.1629 67.3241 91.0199 67.8291 90.8779 68.3281C90.6279 69.3371 90.3529 70.3141 90.1489 71.2831C90.0389 71.7651 89.9359 72.2401 89.8299 72.7061C89.7239 73.1721 89.6469 73.6401 89.5559 74.1001C89.3699 75.0061 89.2379 75.9001 89.0979 76.7451C88.9579 77.5901 88.8679 78.4151 88.7569 79.1901C88.6459 79.9651 88.6009 80.7051 88.5269 81.3971C88.4119 82.7891 88.3269 84.0061 88.3079 84.9911C88.2609 85.9661 88.2739 86.7761 88.2759 87.3201C88.2779 87.8641 88.2759 88.1551 88.2759 88.1551L85.8359 88.1211Z" fill="#BFD471"/>
<path d="M71.7229 89.3941C75.1471 88.9658 78.6034 88.8547 82.0479 89.0621C86.567 89.4342 91.0484 90.1726 95.4479 91.2701C100.684 92.5388 105.839 94.122 110.884 96.0111C113.563 97.0421 116.291 98.1841 119.033 99.4421C120.406 100.068 121.784 100.722 123.167 101.405C124.515 102.071 125.858 102.837 127.209 103.62C132.614 106.787 138.051 110.42 143.55 114.137C149.049 117.854 154.584 121.721 160.117 125.589C171.18 133.33 182.217 141.131 192.641 148.324C203.065 155.517 212.883 162.124 221.471 167.509C230.059 172.894 237.42 177.085 242.861 179.431C244.938 180.402 247.131 181.105 249.385 181.524C250.179 181.595 250.763 181.748 251.175 181.773C251.329 181.789 251.483 181.789 251.637 181.773C251.737 181.762 251.793 181.754 251.793 181.754L251.637 181.769C251.483 181.781 251.328 181.779 251.175 181.762C250.768 181.735 250.175 181.568 249.393 181.484C247.154 181.027 244.983 180.288 242.93 179.284C237.546 176.849 230.271 172.541 221.797 167.007C213.323 161.473 203.635 154.707 193.346 147.326C183.057 139.945 172.174 131.959 161.246 124.012C155.782 120.043 150.306 116.084 144.864 112.248C142.14 110.327 139.43 108.439 136.721 106.609C134.012 104.779 131.307 103.002 128.565 101.34C127.198 100.516 125.808 99.7211 124.377 98.9971C122.977 98.2891 121.577 97.6107 120.177 96.9621C117.386 95.6621 114.612 94.4951 111.877 93.4301C106.758 91.3624 101.487 89.6909 96.1119 88.4301C91.5459 87.3767 86.9021 86.6948 82.2259 86.3911C78.4309 86.0398 74.6149 85.9729 70.8099 86.1911C67.8459 86.5401 66.3889 86.5271 64.6479 86.7911C64.3844 88.1834 63.9921 89.5483 63.476 90.8681C63.814 90.7801 64.6759 90.5351 65.1849 90.4191C67.3371 89.9223 69.522 89.5798 71.7229 89.3941Z" fill="#BFD471"/>
<path d="M144.301 202.11C144.826 204.501 145.034 206.95 144.919 209.395C138.626 207.403 133.534 200.563 133.534 200.563C136.384 207.614 126.789 212.789 126.789 212.789C127.239 206.554 121.812 200.182 121.812 200.182C120.804 210.438 115.924 207.615 115.924 207.615C116.905 198.667 111.117 195.182 111.117 195.182C117.01 202.549 106.726 214.941 106.726 214.941C109.459 210.527 106.654 201.299 106.654 201.299C105.854 208.488 95.4939 213.02 95.4939 213.02C98.6939 208.72 92.6019 192.41 92.6019 192.41C91.9019 201.151 88.5019 202.334 86.4429 202.225C86.6158 203.761 86.687 205.307 86.6559 206.852C86.6231 208.607 86.4202 210.354 86.0499 212.069C104.741 223.069 156.755 219.655 152.944 214.242C152.272 213.282 151.651 212.287 151.083 211.262L144.301 202.11Z" fill="#4F7B2E"/>
<path d="M70.723 174.018C74.432 188.214 66.769 196 66.769 196C65.54 181.051 53.645 175.4 57.11 178.387C57.2504 178.511 57.3799 178.646 57.497 178.792C60.313 182.444 57.182 194.935 57.182 194.935C47.995 194.259 45.124 173.998 45.124 173.998C43.448 178.637 48.255 193.85 40.097 190.346C36.745 188.9 36.258 169.414 36.258 169.414C33.3069 172.373 31.0199 175.926 29.549 179.838C29.6588 181.356 29.6156 182.881 29.42 184.39C29.279 185.451 29.087 186.523 28.839 187.59C38.547 197.665 72.632 210.89 74.808 202.963C75.982 198.689 77.489 193.138 78.784 187.241C76.4654 182.619 73.7692 178.196 70.723 174.018Z" fill="#4F7B2E"/>
<path d="M19.032 176.021C21.7826 174.517 24.3215 172.654 26.582 170.482C27.168 159.816 32.091 144.839 32.091 144.839C27.408 147.839 21.891 164.421 21.891 164.421C18.906 156.133 25.629 144.881 25.629 144.881C22.3083 147.382 20.0615 151.051 19.343 155.146C16.016 153.885 17.495 127.334 17.495 127.334C14.439 130.844 10.254 147.757 10.254 147.757C6.71496 143.927 12.016 130.901 12.016 130.901C7.12996 136.04 3.23596 145.59 3.23596 145.59C2.21196 144.181 2.78796 140.874 4.24196 136.696C2.7272 140.001 1.68885 143.504 1.15796 147.1C-1.25404 164.532 19.032 176.021 19.032 176.021Z" fill="#4F7B2E"/>
</g>
<defs>
<clipPath id="clip0">
<rect width="251.946" height="368.293" fill="white" transform="translate(0.958008)"/>
</clipPath>
</defs>
</svg>
