<svg width="138" height="56" viewBox="0 0 138 56" fill="none" xmlns="http://www.w3.org/2000/svg">
<g clip-path="url(#clip0)">
<path d="M28.611 41.154C28.611 41.154 47.59 56.606 75.603 53.954C97.622 51.866 111.862 27.634 117.076 21.2C121.757 15.42 126.998 6.78505 135.517 2.57505C141.701 -0.479952 133.38 0.0340478 133.38 0.0340478C133.38 0.0340478 119.855 1.23405 112.335 1.52005C104.815 1.80605 83.022 -0.806952 67.581 5.37505C51.053 12 39.152 24.8801 30.454 35.6931C26.185 41 28.611 41.154 28.611 41.154Z" fill="#49602C"/>
<path d="M29.195 40.2001C30.9858 37.4731 33.1681 35.0245 35.672 32.9331C38.7669 30.1047 41.5593 26.9622 44.004 23.5561C44.004 23.5561 50.451 18.0711 54.193 16.2821C58.531 14.2101 58.639 15.3671 56.335 19.0541C54.031 22.7411 56.373 23.4961 56.593 23.1971C60.887 17.3741 68.646 11.4381 71.162 10.4191C75.779 8.54607 65.352 20.2641 66.448 20.1061C67.086 20.0131 74.048 12.0911 76.548 10.1311C78.7 8.44707 86.105 2.43807 85.494 6.75807C85.302 8.11207 81.122 14.3131 80.163 15.5581C79.07 16.9721 74.618 21.3471 74.97 21.8211C75.322 22.2951 77.857 20.4571 78.57 19.8891C79.102 19.4641 86.536 11.0711 87.611 9.91607C89.222 8.18607 95.351 4.86407 95.104 7.44707C94.909 9.50707 91.645 12.1741 90.573 14.8871C89.694 17.1111 88.497 20.0771 89.613 19.6381C91.92 18.7281 94.423 11.9181 95.329 10.9571C97.5354 8.62441 100.309 6.90375 103.379 5.96307C107.206 4.8831 111.094 4.03357 115.022 3.41907C119.922 2.70007 134.451 1.16007 134.808 1.93307C135.191 2.76507 126.108 5.82007 122.808 7.68807C121.642 8.34807 119.057 9.48807 118.885 10.4711C118.585 12.1941 120.816 11.0561 122.208 12.1611C123.848 13.4611 112.141 15.0731 109.808 16.5611C108.262 17.5451 112.584 17.1851 115.47 17.5191C119.146 17.9471 107.054 23.0461 104.134 24.6931C103.534 25.0321 101.792 25.5731 101.866 26.2571C101.99 27.4191 105.56 27.9061 105.595 29.0741C105.657 31.1741 100.736 33.2171 98.781 33.9831C96.811 34.7541 90.381 35.0141 90.381 35.0141C90.381 35.0141 85.786 35.3921 83.855 35.7981C82.637 36.0551 86.913 37.3411 88.195 38.2411C89.271 38.9991 94.189 39.0941 94.302 40.4071C94.419 41.7521 87.462 42.4621 86.133 42.6991C83.2039 43.0625 80.2438 43.1025 77.306 42.8181C75.106 42.5891 66.219 40.9371 64.981 41.1381C59.429 42.0441 81.789 42.8521 82.494 47.4531C82.657 48.5191 79.907 49.4531 78.894 49.8301C74.185 51.5721 63.917 53.1681 58.966 52.3301C56.534 51.9141 52.136 50.0021 49.732 49.4371C48.48 49.1431 46.232 48.2101 44.979 47.9321C40.688 46.9761 30.159 40.9921 29.195 40.2001Z" fill="#4C6828"/>
<path d="M42.912 29.5721C44.387 27.5201 51.491 22.4151 51.581 22.7231C51.581 22.8101 51.781 22.6051 51.793 22.5751C51.616 22.5371 51.62 22.4751 51.801 22.4001C49.867 22.0671 40.622 28.5331 35.672 38.1651C35.815 38.2311 35.836 38.3031 35.734 38.3821C35.917 38.3331 35.992 38.3641 35.96 38.4731C35.873 38.4081 42.397 30.3861 42.912 29.5731C43.076 29.3431 42.854 29.6631 42.912 29.5721Z" fill="#57792C"/>
<path d="M59.563 22.2851C61.331 20.2851 70.441 13.7121 70.323 13.4691C70.337 13.5861 70.533 13.3121 70.549 13.2361C70.337 13.2581 70.331 13.1961 70.535 13.0491C68.376 13.3981 65.735 17.2621 62.987 17.5221C63.42 19.9521 54.578 22.5461 53.113 33.9671C53.273 33.9811 53.324 34.0511 53.264 34.1791C53.415 34.0411 53.495 34.0341 53.505 34.1601C51.725 33.7231 58.88 23.1521 59.563 22.2851C59.483 22.3881 59.794 22.0271 59.563 22.2851Z" fill="#57792C"/>
<path d="M72.076 20.1621C74.7471 16.8869 77.6193 13.7809 80.676 10.8621C80.717 10.9741 80.841 10.6571 80.839 10.5921C80.639 10.6571 80.622 10.5991 80.778 10.4211C80.284 10.6091 75.151 14.2831 74.978 15.3781C74.412 15.8961 62.969 30.4301 64.883 30.5231C64.861 30.5541 64.839 30.5821 64.817 30.6101C65.002 30.5741 65.073 30.6101 65.032 30.7211C65.113 30.6811 65.1 30.6451 64.993 30.6121C66.763 28.9011 70.872 22.2741 72.082 20.1611C72.259 19.9001 72.016 20.2691 72.076 20.1621Z" fill="#57792C"/>
<path d="M83.753 18.7511C84.93 16.8351 89.62 12.2691 89.796 12.6031C89.813 12.6771 89.951 12.4441 89.951 12.4441C89.788 12.4301 89.777 12.3741 89.92 12.2771C88.831 11.5891 78.892 22.4251 77.556 27.4771C77.725 27.4141 77.803 27.4391 77.789 27.5451C77.862 27.5021 77.842 27.4761 77.729 27.4621C78.974 26.1361 82.054 19.9001 83.753 18.7511Z" fill="#57792C"/>
<path d="M56.551 44.6001C60.7 45.5051 65.491 46.9841 69.388 46.5551C69.196 46.4411 69.233 46.3871 69.497 46.3971C62.45 42.8161 53.535 45.7101 43.41 36.4691C43.45 36.5111 42.776 35.9911 42.756 35.9951C42.678 36.1781 42.605 36.2151 42.542 36.1071C41.133 36.3281 49.255 42.4641 51.559 42.8231C51.943 42.9081 56.404 44.5801 56.551 44.6001Z" fill="#57792C"/>
<path d="M69.667 39.8141C73.647 40.4371 83.367 41.6561 84.867 38.6331C84.638 38.6171 84.648 38.5521 84.897 38.4451C71.723 43.4451 58.947 33.4931 56.325 32.9521C56.347 33.1521 56.306 33.2211 56.195 33.1581C59.332 35.3931 62.24 37.0831 69.664 39.8141C70.032 39.9481 69.522 39.8001 69.667 39.8141Z" fill="#57792C"/>
<path d="M86.654 32.0001C90.99 32.0001 100.835 32.1131 102.484 29.1061C99.731 30.3221 98.284 30.1791 95.212 30.7861C93.912 31.0431 84.875 31.4361 71.235 29.2691C71.205 29.4301 71.125 29.4771 70.993 29.4111C71.1263 29.5697 71.1263 29.6504 70.993 29.6531C70.922 29.8561 84.955 32.1141 86.654 32.0001C87.061 32.0001 86.503 32.0081 86.654 32.0001Z" fill="#57792C"/>
<path d="M100.066 23.5331C102.373 23.1261 111.152 18.5281 110.272 17.9241C108.565 18.7581 105.872 21.4241 98.289 22.8351C98.508 23.2141 90.226 22.1011 88.71 22.3211C88.719 22.4771 88.666 22.5311 88.548 22.4821C88.68 22.6171 88.691 22.6961 88.58 22.7211C88.49 23.4151 98.973 23.8211 100.066 23.5331C99.957 23.5621 100.36 23.4811 100.066 23.5331Z" fill="#57792C"/>
<path d="M98.772 13.6791C97.11 15.3861 95.504 17.1791 95.709 18.6161C95.886 18.3731 94.577 19.3801 95.103 19.5441C95.13 19.5101 95.149 19.5071 95.162 19.5351C95.197 19.3411 94.869 19.7001 95.01 19.6781C94.959 19.5521 94.905 19.5481 94.85 19.6661C92.729 15.4301 103.995 9.79412 103.909 9.34412C103.821 9.48212 103.824 9.56312 103.921 9.58412C103.874 9.64712 103.856 9.62112 103.871 9.50712C102.771 10.3391 99.539 13.0911 98.771 13.6791C98.714 13.7401 98.822 13.6381 98.772 13.6791Z" fill="#57792C"/>
<path d="M112.382 12.8001C114.784 13.2248 117.245 13.1949 119.636 12.7121C119.989 12.9611 119.831 13.0191 120.527 13.1961C120.327 13.1671 107.866 13.9231 107.66 12.9191C107.737 12.7841 108.23 12.7831 108.138 12.7581C109.552 12.6597 110.971 12.6737 112.382 12.8001Z" fill="#57792C"/>
<path d="M134.14 2.34009C106.44 8.41309 92.247 24.4401 63.563 30.1401C44.496 35.3251 18.822 40.7711 0.0219706 53.9501C0.00797876 54.2383 0.0574788 54.5261 0.166971 54.7931C0.446363 55.2473 0.860658 55.6028 1.35197 55.8101C16.646 44.4101 34.383 38.9891 51.576 34.9491C57.314 33.6121 65.421 29.8791 71.244 29.7901C75.231 29.0751 85.073 24.5701 90.534 22.0761C91.107 21.7891 98.16 18.2481 98.104 18.2671C97.843 18.4081 104.354 15.5841 105.004 14.7441C112.458 10.2599 120.429 6.69845 128.742 4.13809C129.73 3.30009 132.794 2.74609 134.14 2.34009ZM127.964 4.38709C126.547 5.20009 128.636 4.06409 127.964 4.38709C128.001 4.36709 128.122 4.31309 127.964 4.38709Z" fill="#57792C"/>
</g>
<defs>
<clipPath id="clip0">
<rect width="137.781" height="55.81" fill="white" transform="translate(0.0219727)"/>
</clipPath>
</defs>
</svg>
