<svg width="205" height="441" viewBox="0 0 205 441" fill="none" xmlns="http://www.w3.org/2000/svg">
  <path d="M130.799 316.691L130.042 316.919C129.343 317.081 128.658 317.302 127.996 317.578C127.063 317.955 126.173 318.429 125.34 318.993C124.846 319.318 124.386 319.692 123.966 320.108C123.486 320.526 123.043 320.986 122.644 321.482C119.19 325.47 116.711 332.727 114.28 340.349C113.654 342.269 113.029 344.193 112.412 346.082C111.801 347.996 111.135 349.876 110.474 351.713C109.268 355.126 107.844 358.458 106.212 361.689C105.015 364.065 103.547 366.295 101.836 368.332C101.342 368.905 100.799 369.433 100.213 369.912C99.808 370.23 99.593 370.402 99.593 370.402C99.593 370.402 99.654 370.134 99.769 369.632C99.919 369.161 100.009 368.408 100.2 367.532C100.5 365.724 100.806 363.184 101.145 360.112C101.876 352.458 103.358 344.894 105.571 337.53C106.239 335.47 107.013 333.446 107.892 331.467C108.758 329.49 109.77 327.58 110.921 325.754C112.04 323.976 113.345 322.32 114.812 320.816C115.517 320.107 116.262 319.439 117.044 318.816C117.809 318.244 118.615 317.729 119.455 317.273C120.918 316.461 122.52 315.93 124.178 315.706C125.415 315.518 126.675 315.54 127.905 315.772C128.65 315.883 129.376 316.092 130.065 316.396C130.543 316.59 130.799 316.691 130.799 316.691Z" fill="#7D9E31"/>
  <path d="M112.509 329.711C116.864 322.6 115.503 320.145 121.076 317.978C126.649 315.811 129.563 316.207 129.563 316.207L127.88 315.768C126.659 315.538 125.408 315.516 124.18 315.704C122.522 315.928 120.92 316.459 119.457 317.271C118.617 317.727 117.811 318.242 117.046 318.814C116.264 319.437 115.519 320.105 114.814 320.814C113.347 322.318 112.042 323.974 110.923 325.752C109.772 327.578 108.76 329.488 107.894 331.465C107.015 333.444 106.241 335.468 105.573 337.528C103.36 344.892 101.878 352.456 101.147 360.11C100.808 363.182 100.504 365.722 100.202 367.53C100.011 368.407 99.921 369.16 99.771 369.63C99.656 370.13 99.595 370.4 99.595 370.4C102.108 367.853 108.155 336.822 112.509 329.711Z" fill="#536629"/>
  <path d="M131.066 314.08C131.154 313.809 131.266 313.546 131.399 313.294C131.805 312.53 132.388 311.873 133.099 311.38C134.251 310.587 135.581 310.09 136.971 309.936C138.691 309.701 140.437 309.733 142.148 310.029C149.533 311.203 157.774 315.822 164.824 321.429C165.718 322.119 166.583 322.839 167.424 323.564L168.779 324.722L169.979 325.838C170.779 326.615 171.546 327.238 172.349 328.124L174.681 330.695C176.028 332.326 177.27 334.04 178.4 335.828C179.4 337.394 180.317 339.012 181.147 340.674C181.907 342.192 182.514 343.645 183.075 344.886C183.636 346.127 184.031 347.286 184.418 348.186C185.138 350.03 185.49 351.142 185.49 351.142C185.49 351.142 184.564 350.454 183.047 349.142C182.31 348.472 181.385 347.692 180.415 346.725C179.445 345.758 178.304 344.725 177.15 343.547C175.956 342.419 174.738 341.147 173.388 339.918C172.088 338.641 170.622 337.408 169.176 336.149C168.448 335.56 167.71 334.963 166.961 334.356C166.24 333.75 165.278 333.081 164.436 332.438L163.131 331.451L161.911 330.568C161.021 329.932 160.148 329.295 159.289 328.643C155.869 326.101 152.447 323.562 149.24 321.182C146.423 319.053 143.485 317.09 140.44 315.303C139.273 314.636 138.051 314.069 136.788 313.609C135.833 313.287 134.829 313.134 133.821 313.157C133.12 313.204 132.434 313.38 131.797 313.676C131.545 313.795 131.301 313.93 131.066 314.08Z" fill="#7D9E31"/>
  <path d="M183.081 344.89C182.52 343.649 181.913 342.196 181.153 340.678C180.323 339.016 179.406 337.398 178.406 335.832C177.276 334.044 176.034 332.33 174.687 330.699L172.355 328.128C171.555 327.246 170.783 326.619 169.985 325.842L168.785 324.726L167.43 323.568C166.59 322.843 165.725 322.123 164.83 321.433C157.78 315.822 149.539 311.203 142.154 310.033C140.443 309.737 138.697 309.705 136.977 309.94C136.403 310.018 135.837 310.148 135.287 310.329C135.056 310.403 134.821 310.496 134.587 310.577C134.193 310.74 133.814 310.935 133.453 311.162C135.295 311.027 140.474 310.806 144.02 312.203C149.094 314.415 154.049 316.889 158.866 319.615C162.329 322.119 165.579 324.905 168.584 327.943C170.13 329.777 174.711 336.23 177.528 339.236C180.128 342.01 183.609 347.836 185.066 349.914C184.897 349.446 184.694 348.895 184.423 348.196C184.037 347.293 183.646 346.132 183.081 344.89Z" fill="#536629"/>
  <path d="M125.866 302.827C125.866 302.827 124.74 303.669 122.706 304.973C120.672 306.277 117.737 308.054 114.15 310.019C112.35 310.989 110.392 312.01 108.304 313.045C106.198 314.045 103.839 314.886 101.437 315.801C96.607 317.59 91.371 319.336 86.092 320.908C83.427 321.508 80.766 322.125 78.125 322.639C75.492 323.187 72.883 323.645 70.359 324.067C67.829 324.467 65.397 324.903 63.047 325.092C60.69 325.257 58.459 325.37 56.399 325.439C52.273 325.561 48.834 325.517 46.421 325.407C44.008 325.297 42.628 325.138 42.628 325.138C42.628 325.138 43.904 324.513 46.149 323.605C48.394 322.697 51.599 321.483 55.449 320.219C57.376 319.597 59.467 318.961 61.682 318.332C63.897 317.703 66.192 316.843 68.6 316.139C71 315.407 73.486 314.67 76.027 314.004C78.559 313.304 81.155 312.69 83.746 312.057C88.819 310.568 93.93 309.23 98.803 308.14C101.236 307.56 103.624 307.178 105.884 306.616C108.141 306.031 110.291 305.516 112.284 305.074C116.284 304.207 119.665 303.613 122.062 303.274C124.459 302.935 125.866 302.827 125.866 302.827Z" fill="#7D9E31"/>
  <path d="M70.482 316.665C75.3 316.265 95.82 310.965 101.743 309.3C106.429 307.982 119.643 304.369 124.963 302.914C124.311 302.98 123.344 303.091 122.073 303.276C119.673 303.613 116.295 304.207 112.295 305.076C110.295 305.518 108.149 306.033 105.895 306.618C103.635 307.18 101.247 307.562 98.814 308.142C93.941 309.232 88.83 310.57 83.757 312.059C81.166 312.692 78.57 313.307 76.038 314.006C73.497 314.672 71.013 315.406 68.611 316.141C66.203 316.841 63.911 317.698 61.693 318.334C59.475 318.97 57.387 319.599 55.46 320.221C51.606 321.485 48.399 322.685 46.16 323.607C43.921 324.529 42.639 325.14 42.639 325.14C42.639 325.14 43.376 325.226 44.666 325.312C48.421 322.12 65.666 317.068 70.482 316.665Z" fill="#536629"/>
  <path d="M121.816 289.373C121.816 289.373 123.116 288.656 125.431 287.583C126.602 287.06 127.87 286.206 129.383 285.46C130.87 284.703 132.526 283.56 134.345 282.567C141.545 278.211 150.799 271.991 160.138 265.691C169.481 259.414 179 253.197 186.503 248.92C190.257 246.788 193.465 245.093 195.767 243.983C198.054 242.856 199.43 242.299 199.43 242.299C199.43 242.299 198.544 243.489 196.879 245.423C195.214 247.357 192.787 250.056 189.73 253.133C186.673 256.21 182.962 259.633 178.815 263.104C176.721 264.814 174.569 266.604 172.27 268.281C170.015 270.015 167.626 271.654 165.233 273.294C160.501 276.483 155.561 279.354 150.447 281.887C148.009 283.138 145.531 284.154 143.198 285.111C140.84 286.03 138.548 286.78 136.434 287.418C134.254 287.964 132.334 288.502 130.496 288.765C128.959 289.049 127.406 289.243 125.846 289.346C123.296 289.429 121.816 289.373 121.816 289.373Z" fill="#7D9E31"/>
  <path d="M155.34 272.386C160.731 269.461 167.323 264.719 171.913 261.854C176.503 258.989 179.619 255.817 186.067 251.964C190.528 249.157 194.841 246.121 198.989 242.869C199.255 242.528 199.43 242.299 199.43 242.299C199.43 242.299 198.054 242.856 195.767 243.983C193.467 245.093 190.257 246.788 186.503 248.92C179.003 253.197 169.481 259.414 160.138 265.691C150.799 271.991 141.544 278.211 134.345 282.567C132.526 283.567 130.87 284.703 129.383 285.46C127.87 286.206 126.602 287.06 125.431 287.583C124.831 287.862 124.302 288.112 123.843 288.338C125.16 288.398 128.359 287.754 136.174 284.387C149.839 278.5 149.946 275.31 155.34 272.386Z" fill="#536629"/>
  <path d="M119.33 286.191C119.33 286.191 118.038 287.036 115.72 288.334C114.562 288.982 113.161 289.786 111.487 290.569C109.826 291.386 107.954 292.341 105.854 293.212C103.765 294.117 101.475 295.044 99 295.902C96.546 296.813 93.877 297.579 91.115 298.365C88.315 299.04 85.427 299.786 82.406 300.213C79.3589 300.717 76.2883 301.067 73.206 301.26L68.537 301.354C66.984 301.395 65.437 301.234 63.901 301.174C62.3803 301.113 60.8645 300.965 59.361 300.73C57.873 300.506 56.389 300.408 54.967 300.054C52.2166 299.54 49.4999 298.859 46.832 298.016C44.4499 297.291 42.11 296.434 39.823 295.45C37.8924 294.636 36.0049 293.723 34.168 292.715C32.7284 291.993 31.3347 291.183 29.995 290.289C27.734 288.853 26.507 287.943 26.507 287.943C26.507 287.943 28.055 288.124 30.65 288.59C31.95 288.832 33.513 289.121 35.308 289.4C37.108 289.65 39.088 290.1 41.285 290.347C43.469 290.637 45.792 291.059 48.275 291.273C50.736 291.614 53.339 291.787 56.009 292C58.686 292.147 61.44 292.3 64.238 292.3C67.038 292.341 69.875 292.245 72.719 292.12C75.561 291.929 78.408 291.759 81.219 291.429C84.03 291.185 86.797 290.743 89.5 290.435C92.189 289.996 94.818 289.689 97.309 289.251L104.382 288.142C108.794 287.473 112.505 286.952 115.154 286.62C117.803 286.288 119.33 286.191 119.33 286.191Z" fill="#7D9E31"/>
  <path d="M104.383 288.137L97.31 289.246C94.819 289.684 92.19 289.991 89.501 290.43C86.801 290.738 84.031 291.18 81.22 291.424C78.409 291.754 75.562 291.924 72.72 292.115C69.876 292.24 67.037 292.336 64.239 292.295C61.439 292.304 58.687 292.147 56.01 291.995C53.34 291.782 50.737 291.609 48.276 291.268C45.793 291.054 43.47 290.632 41.286 290.342C39.086 290.092 37.112 289.642 35.309 289.395C33.509 289.116 31.947 288.827 30.651 288.585C28.294 288.16 26.866 287.985 26.611 287.951C31.383 290.077 39.503 293.513 41.735 293.364C44.956 293.149 50.902 293.75 54.094 293.964C57.286 294.178 65.732 293.825 68.119 294.579C70.506 295.333 80.561 291.927 89.477 292.209C95.4263 292.441 101.365 291.525 106.967 289.509C108.899 288.848 115.467 287.357 118.526 286.256C117.826 286.316 116.679 286.426 115.155 286.619C112.506 286.947 108.795 287.468 104.383 288.137Z" fill="#536629"/>
  <path d="M204.958 255.429C204.958 255.429 204.237 256.785 202.837 259.035C201.437 261.285 199.379 264.435 196.702 268.08C195.364 269.898 193.865 271.832 192.202 273.825C190.571 275.842 188.713 277.869 186.79 279.962C184.79 281.993 182.737 284.118 180.441 286.086C178.234 288.137 175.761 289.998 173.314 291.87C172.035 292.745 170.758 293.617 169.481 294.484C168.204 295.346 166.831 296.066 165.523 296.849C164.221 297.626 162.876 298.33 161.496 298.957C160.135 299.585 158.845 300.31 157.465 300.791C156.103 301.314 154.782 301.855 153.465 302.325C152.148 302.795 150.824 303.153 149.55 303.525C147.161 304.216 144.734 304.765 142.281 305.172C140.22 305.531 138.14 305.775 136.052 305.905C134.454 306.069 132.846 306.126 131.24 306.076C128.569 306.061 127.053 305.939 127.053 305.939C127.053 305.939 128.453 305.267 130.891 304.29C132.11 303.805 133.584 303.227 135.239 302.49C136.885 301.73 138.782 301.062 140.752 300.084C142.732 299.145 144.901 298.255 147.085 297.084C148.185 296.508 149.342 296.014 150.468 295.384C151.586 294.731 152.751 294.127 153.917 293.484C156.231 292.154 158.6 290.767 160.938 289.238C162.105 288.472 163.278 287.699 164.459 286.919L167.938 284.459C170.229 282.759 172.53 281.077 174.738 279.294C176.977 277.571 179.112 275.739 181.251 274.049C183.361 272.291 185.401 270.591 187.332 268.98C189.301 267.364 191.16 265.836 192.877 264.428C196.366 261.636 199.35 259.348 201.505 257.803C203.66 256.258 204.958 255.429 204.958 255.429Z" fill="#7D9E31"/>
  <path d="M171.95 283.57C175.829 280.489 184.15 272.719 188.811 269.785C192.271 267.606 200.511 260.027 204.642 256.001L204.958 255.429C204.958 255.429 203.658 256.242 201.514 257.801C199.37 259.36 196.375 261.634 192.886 264.426C191.169 265.834 189.31 267.362 187.341 268.978C185.41 270.589 183.37 272.289 181.26 274.047C179.121 275.737 176.986 277.569 174.747 279.292C172.539 281.075 170.238 282.76 167.947 284.457L164.468 286.917C163.289 287.695 162.116 288.468 160.947 289.236C158.609 290.765 156.24 292.152 153.926 293.482C152.76 294.127 151.595 294.731 150.477 295.382C149.351 296.012 148.19 296.506 147.094 297.082C144.91 298.258 142.741 299.148 140.761 300.082C138.791 301.06 136.894 301.728 135.248 302.488C134.729 302.717 134.264 302.907 133.782 303.109C138.836 301.823 143.806 300.231 148.666 298.34C157.976 294.63 168.066 286.652 171.95 283.57Z" fill="#536629"/>
  <path d="M114.329 269.741C114.329 269.741 113.264 270.858 111.303 272.658L109.677 274.141C109.033 274.641 108.297 275.123 107.517 275.669L104.99 277.408C104.041 278.007 103.061 278.556 102.054 279.052C101.002 279.585 99.909 280.138 98.775 280.71L95.112 282.121C93.8262 282.64 92.5048 283.066 91.158 283.396C89.793 283.774 88.384 284.127 86.949 284.472C83.9904 285.062 80.999 285.472 77.991 285.702C74.922 286.035 71.826 285.947 68.722 285.972C65.646 285.772 62.554 285.672 59.574 285.241C56.567 284.941 53.674 284.393 50.864 283.89C45.7976 282.894 40.7846 281.643 35.844 280.142C31.515 278.824 27.959 277.562 25.466 276.642C22.973 275.722 21.56 275.094 21.56 275.094C21.56 275.094 23.093 274.935 25.76 274.847C28.426 274.737 32.22 274.756 36.722 274.913C41.229 275.101 46.428 275.427 51.935 275.847C54.671 276.026 57.499 276.212 60.372 276.398C63.236 276.606 66.112 276.684 68.999 276.824C71.861 276.848 74.739 276.964 77.534 276.851C80.355 276.867 83.07 276.581 85.75 276.471C88.361 276.087 90.983 276.013 93.361 275.485C94.576 275.285 95.761 275.091 96.9 274.901C98.0293 274.631 99.118 274.372 100.166 274.123C102.095 273.71 104.001 273.201 105.879 272.597C106.735 272.349 107.528 272.091 108.299 271.897C109.049 271.614 109.738 271.355 110.36 271.119C112.849 270.182 114.329 269.741 114.329 269.741Z" fill="#7D9E31"/>
  <path d="M110.358 271.113C109.736 271.349 109.047 271.613 108.297 271.891C107.526 272.086 106.733 272.344 105.877 272.591C103.999 273.195 102.093 273.704 100.164 274.117C99.1167 274.366 98.028 274.626 96.898 274.895C95.756 275.085 94.574 275.279 93.359 275.479C90.981 276.007 88.359 276.079 85.748 276.465C83.068 276.575 80.353 276.865 77.532 276.845C74.732 276.958 71.859 276.845 68.997 276.818C66.11 276.678 63.234 276.6 60.37 276.392C57.497 276.206 54.67 276.02 51.933 275.841C46.426 275.421 41.227 275.095 36.72 274.907C32.22 274.75 28.42 274.731 25.758 274.841C23.093 274.929 21.558 275.088 21.558 275.088C21.558 275.088 22.781 275.628 24.878 276.416C27.3289 276.264 29.7873 276.28 32.236 276.464C34.086 276.926 58.128 277.979 60.765 278.837C63.402 279.695 77.073 278.49 78.038 278.809C79.003 279.128 90.123 277.035 93.83 277.233C96.78 277.39 108.73 273.413 113.199 270.867C113.934 270.151 114.327 269.74 114.327 269.74C114.327 269.74 112.849 270.182 110.358 271.113Z" fill="#536629"/>
  <path d="M98.066 211.857C98.066 211.857 99.401 211.304 101.76 210.518C102.942 210.141 104.388 209.661 105.945 209.058C107.519 208.429 109.271 207.903 111.155 207.058C113.041 206.277 115.085 205.514 117.155 204.494C119.271 203.61 121.4 202.46 123.618 201.354C125.788 200.142 128.05 198.965 130.246 197.564C132.47 196.229 134.668 194.756 136.858 193.264C139.023 191.723 141.2 190.198 143.281 188.564C145.397 186.991 147.421 185.325 149.438 183.775C153.448 180.533 157.192 177.508 160.402 174.919C163.689 172.339 166.502 170.206 168.528 168.763C170.554 167.32 171.777 166.554 171.777 166.554C171.777 166.554 171.137 167.854 169.87 169.993C168.603 172.132 166.726 175.141 164.239 178.588C162.999 180.313 161.591 182.132 160.039 184.013C158.512 185.913 156.744 187.806 154.922 189.765C153.022 191.659 151.08 193.648 148.885 195.46C146.708 197.349 144.435 199.126 142.077 200.783L138.41 203.156C137.191 203.95 135.867 204.574 134.617 205.281C133.374 205.986 132.088 206.611 130.765 207.151C129.465 207.703 128.221 208.337 126.905 208.751C124.437 209.672 121.909 210.424 119.338 211.001C117.057 211.552 114.741 211.947 112.406 212.183C110.435 212.413 108.451 212.517 106.466 212.496C104.963 212.55 103.459 212.488 101.966 212.31C99.487 212.093 98.066 211.857 98.066 211.857Z" fill="#7D9E31"/>
  <path d="M99.666 211.243C99.666 211.243 102.909 210.691 106.748 209.903C112.631 208.416 118.385 206.46 123.956 204.056C127.101 202.385 130.632 201.114 133.651 199.067C136.67 197.02 161.596 176.488 163.731 174.321C164.142 173.903 168.277 169.813 170.588 167.331C170.056 167.689 169.36 168.167 168.523 168.768C166.495 170.211 163.684 172.344 160.397 174.924C157.187 177.513 153.443 180.538 149.433 183.78C147.416 185.33 145.392 186.996 143.276 188.569C141.195 190.198 139.018 191.723 136.853 193.269C134.663 194.769 132.465 196.238 130.241 197.569C128.041 198.969 125.783 200.147 123.613 201.359C121.395 202.465 119.266 203.615 117.15 204.499C115.077 205.519 113.033 206.282 111.15 207.063C109.266 207.904 107.514 208.43 105.94 209.063C104.383 209.663 102.94 210.146 101.755 210.523C101.37 210.651 101.019 210.774 100.693 210.888C100.632 210.907 100.577 210.925 100.52 210.947C100.213 211.056 99.925 211.156 99.672 211.247L99.666 211.243Z" fill="#536629"/>
  <path d="M109.619 256.707C109.619 256.707 108.21 257.313 105.719 258.185C103.207 259.072 99.713 260.285 95.44 261.626C84.9646 264.969 74.2014 267.332 63.289 268.685C60.269 268.985 57.228 269.245 54.213 269.3C51.2487 269.396 48.2813 269.319 45.326 269.07C43.9017 268.997 42.483 268.84 41.077 268.602C39.691 268.372 38.337 268.217 37.031 267.943C34.5699 267.422 32.1459 266.74 29.775 265.899L26.654 264.705C25.675 264.315 24.796 263.77 23.954 263.352C22.4869 262.657 21.089 261.824 19.779 260.865C17.592 259.279 16.452 258.303 16.452 258.303C16.452 258.303 17.997 258.582 20.508 259.194C21.734 259.572 23.332 259.71 25.066 260.03C27.0056 260.362 28.9613 260.592 30.925 260.719C33.025 261.03 35.4 260.919 37.812 261.093C39.035 261.079 40.293 261.069 41.578 261.057C42.863 261.045 44.162 261.063 45.504 260.949C46.8373 260.887 48.191 260.824 49.565 260.761C50.9443 260.628 52.3366 260.517 53.742 260.428C56.551 260.179 59.423 259.919 62.296 259.585C68.046 258.995 73.854 258.218 79.348 257.661C84.848 257.061 90.037 256.621 94.535 256.422C99.033 256.223 102.841 256.242 105.462 256.394C108.097 256.527 109.619 256.707 109.619 256.707Z" fill="#7D9E31"/>
  <path d="M35.943 263.31C39.484 265.75 48.591 265.282 52.859 264.726C57.127 264.17 68.324 261.632 75.536 260.614C81.5742 259.609 87.6665 258.962 93.781 258.677C98.845 258.38 103.89 257.821 108.896 257C109.362 256.814 109.619 256.7 109.619 256.7C109.619 256.7 108.097 256.52 105.457 256.387C102.836 256.235 99.014 256.225 94.53 256.415C90.046 256.605 84.845 257.052 79.343 257.654C73.849 258.211 68.043 258.988 62.291 259.578C59.418 259.912 56.546 260.172 53.737 260.421C52.333 260.51 50.9407 260.621 49.56 260.754C48.1873 260.816 46.8337 260.879 45.499 260.942C44.157 261.056 42.851 261.042 41.573 261.05C40.295 261.058 39.03 261.072 37.807 261.086C35.395 260.912 33.023 261.023 30.92 260.712C28.9563 260.585 27.0007 260.355 25.061 260.023C23.327 259.703 21.729 259.565 20.503 259.187C18.66 258.741 17.352 258.473 16.779 258.36C17.318 258.902 17.801 259.36 18.179 259.67C18.1838 259.671 18.1882 259.674 18.192 259.677C20.639 261.676 32.404 260.874 35.943 263.31Z" fill="#536629"/>
  <path d="M190.73 221.415C190.73 221.415 190.039 222.732 188.687 224.915C188.016 226.004 187.187 227.327 186.132 228.77C185.106 230.241 183.932 231.897 182.557 233.598C181.205 235.332 179.664 237.147 177.97 239.013C176.312 240.913 174.412 242.768 172.462 244.713C170.437 246.581 168.374 248.552 166.097 250.347C163.884 252.224 161.487 253.952 159.091 255.683C156.621 257.308 154.191 258.999 151.613 260.383C149.138 261.818 146.592 263.126 143.983 264.3C141.442 265.443 138.928 266.43 136.512 267.253C134.237 268.023 131.924 268.673 129.582 269.202L126.462 269.869C125.452 270.006 124.497 270.138 123.599 270.259C122.059 270.502 120.505 270.643 118.947 270.68C116.353 270.766 114.882 270.705 114.882 270.705C114.882 270.705 116.207 269.979 118.505 268.913C119.665 268.419 121.018 267.661 122.584 266.905C124.155 266.164 125.878 265.233 127.745 264.222C129.636 263.29 131.603 262.105 133.706 260.952C135.795 259.765 137.963 258.465 140.195 257.116L143.571 255.021C144.695 254.293 145.833 253.55 146.98 252.803C149.288 251.339 151.568 249.726 153.87 248.16C156.161 246.565 158.442 244.96 160.67 243.329C162.898 241.698 165.099 240.09 167.225 238.537C171.486 235.343 175.463 232.363 178.874 229.808C182.352 227.265 185.254 225.158 187.374 223.674C189.46 222.189 190.73 221.415 190.73 221.415Z" fill="#7D9E31"/>
  <path d="M187.366 223.673C185.251 225.157 182.349 227.264 178.866 229.807C175.455 232.362 171.478 235.342 167.217 238.536C165.091 240.089 162.892 241.695 160.662 243.328C158.432 244.961 156.154 246.564 153.862 248.159C151.562 249.725 149.28 251.338 146.972 252.802C145.825 253.549 144.687 254.292 143.563 255.02L140.187 257.115C137.955 258.464 135.787 259.764 133.698 260.951C131.598 262.104 129.628 263.289 127.737 264.221C126.609 264.832 125.551 265.393 124.531 265.921C127.286 265.048 129.995 264.034 132.647 262.883C136.52 261.018 151.872 252.672 156.71 249.326C161.548 245.98 168.427 239.826 172.467 236.88C178.705 232.224 184.696 227.248 190.418 221.971C190.6 221.644 190.718 221.415 190.718 221.415C190.718 221.415 189.46 222.189 187.366 223.673Z" fill="#536629"/>
  <path d="M103.297 233.97C103.297 233.97 102.005 234.762 99.69 235.97C97.408 237.154 94.149 238.846 90.238 240.878C86.322 242.853 81.753 245.121 76.686 247.346C74.153 248.446 71.494 249.562 68.725 250.563C67.325 251.049 65.925 251.574 64.504 252.035C63.047 252.458 61.584 252.876 60.121 253.299C58.658 253.722 57.126 253.982 55.621 254.306C54.1197 254.648 52.5968 254.887 51.063 255.022C48.0541 255.392 45.019 255.504 41.991 255.357C40.513 255.241 39.055 255.036 37.646 254.835C36.2614 254.669 34.895 254.377 33.564 253.961C32.264 253.567 30.982 253.285 29.8 252.827C28.6433 252.317 27.5276 251.824 26.453 251.347C24.5386 250.466 22.7146 249.401 21.007 248.166C19.6452 247.32 18.3789 246.33 17.23 245.212C15.257 243.442 14.23 242.365 14.23 242.365C14.23 242.365 15.717 242.787 18.141 243.639C19.568 244.183 21.0275 244.638 22.511 245C24.3591 245.551 26.2389 245.989 28.14 246.313C29.161 246.497 30.223 246.683 31.323 246.881C32.423 247.031 33.577 247.06 34.737 247.163C35.9213 247.31 37.1158 247.357 38.308 247.303C39.533 247.241 40.762 247.312 42.021 247.233C43.286 247.077 44.567 246.968 45.858 246.85C47.148 246.75 48.464 246.402 49.785 246.231C51.106 246.06 52.432 245.725 53.776 245.417C55.12 245.109 56.462 244.862 57.81 244.438L61.866 243.35C63.213 242.916 64.575 242.55 65.916 242.15C68.634 241.331 71.308 240.523 73.895 239.744C79.116 238.179 84.121 236.815 88.484 235.894C90.639 235.394 92.723 235.099 94.512 234.801C96.0584 234.532 97.6174 234.342 99.183 234.23C101.781 234 103.297 233.97 103.297 233.97Z" fill="#7D9E31"/>
  <path d="M94.513 234.8C92.724 235.1 90.64 235.393 88.485 235.893C84.122 236.814 79.117 238.178 73.896 239.743C71.309 240.522 68.635 241.33 65.917 242.149C64.576 242.549 63.217 242.919 61.867 243.349L57.81 244.434C56.462 244.858 55.118 245.096 53.776 245.413C52.434 245.73 51.105 246.056 49.785 246.227C48.465 246.398 47.148 246.745 45.858 246.846C44.567 246.964 43.286 247.073 42.021 247.229C40.762 247.308 39.533 247.237 38.308 247.299C37.1158 247.353 35.9213 247.306 34.737 247.159C33.577 247.059 32.422 247.027 31.323 246.877C30.223 246.677 29.161 246.493 28.14 246.309C26.239 245.987 24.3592 245.549 22.511 245C21.519 244.767 20.64 244.5 19.822 244.223C24.108 246.723 28.403 249.123 29.249 249.21C36.3081 249.976 43.4379 249.795 50.449 248.671C62.295 246.94 69.557 242.799 73.311 243.235C77.065 243.671 83.902 241.106 86.671 239.935C88.884 239.005 97.826 236.508 101.605 234.935C102.698 234.335 103.3 233.965 103.3 233.965C103.3 233.965 101.784 233.993 99.187 234.221C97.6202 234.335 96.0602 234.529 94.513 234.8Z" fill="#536629"/>
  <path d="M109.21 255.735C109.21 255.735 110.289 254.672 112.269 252.973C113.442 251.931 114.667 250.949 115.94 250.031C117.405 248.96 119.072 247.677 120.94 246.483C124.65 244.009 129.12 241.383 133.887 238.74L141.187 234.715C142.41 234.033 143.627 233.315 144.878 232.66L148.489 230.516C149.734 229.848 150.846 229.053 152.009 228.316C153.172 227.579 154.335 226.856 155.38 226.029C156.425 225.202 157.595 224.506 158.569 223.655C159.543 222.804 160.526 221.973 161.524 221.179C162.461 220.334 163.269 219.402 164.168 218.57C165.042 217.756 165.844 216.869 166.568 215.919C167.303 215.019 168.091 214.171 168.75 213.279L170.569 210.606C171.666 209.021 172.666 207.371 173.562 205.664C174.339 204.351 175.033 202.991 175.639 201.591C176.723 199.263 177.462 197.902 177.462 197.902C177.462 197.902 177.514 199.388 177.402 202.039C177.398 203.642 177.222 205.241 176.877 206.806C176.565 208.889 176.053 210.937 175.346 212.921L174.066 216.348C173.566 217.513 172.873 218.627 172.243 219.832C171.612 221.076 170.866 222.258 170.016 223.364C169.175 224.511 168.305 225.699 167.354 226.836C165.343 229.104 163.141 231.196 160.774 233.089C159.606 234.093 158.37 235.016 157.074 235.849C155.796 236.699 154.536 237.626 153.213 238.36L149.246 240.612C147.919 241.312 146.567 241.945 145.246 242.602C142.593 243.885 139.94 245.01 137.379 246.05C132.245 248.118 127.432 249.802 123.279 251.223C119.094 252.598 115.606 253.748 113.163 254.552C110.679 255.363 109.21 255.735 109.21 255.735Z" fill="#7D9E31"/>
  <path d="M130.434 242.393C132.599 241.637 148.071 232.561 149.421 231.993C153.236 230.101 156.786 227.719 159.983 224.906C163.668 221.492 170.54 216.131 173.969 209.084C175.335 206.184 176.5 203.193 177.456 200.133C177.481 198.693 177.456 197.901 177.456 197.901C177.456 197.901 176.717 199.262 175.633 201.59C175.027 202.99 174.333 204.35 173.556 205.663C172.66 207.37 171.66 209.02 170.563 210.605L168.744 213.278C168.085 214.17 167.297 215.016 166.562 215.918C165.838 216.868 165.036 217.755 164.162 218.569C163.262 219.401 162.455 220.333 161.518 221.178C160.518 221.972 159.55 222.812 158.563 223.654C157.576 224.496 156.421 225.208 155.374 226.028C154.327 226.848 153.164 227.567 152.003 228.315C150.842 229.063 149.728 229.848 148.483 230.515L144.872 232.659C143.621 233.317 142.404 234.032 141.181 234.714L133.881 238.739C129.114 241.38 124.644 244.008 120.934 246.482C119.07 247.676 117.403 248.959 115.934 250.03C115.168 250.57 114.488 251.101 113.868 251.611C115.31 250.849 117.379 249.695 120.224 248.486C124.578 246.644 128.266 243.15 130.434 242.393Z" fill="#536629"/>
  <path d="M98.854 218.667C98.854 218.667 97.796 219.635 95.835 221.145C93.1344 223.222 90.3308 225.161 87.435 226.955C78.6001 232.425 69.015 236.578 58.982 239.283C56.2095 240.006 53.4001 240.579 50.566 241C47.7893 241.429 44.9863 241.666 42.177 241.71C39.5097 241.751 36.8435 241.575 34.205 241.182C31.8121 240.822 29.4629 240.214 27.195 239.37C25.267 238.666 23.434 237.726 21.738 236.57C20.4259 235.727 19.2254 234.722 18.165 233.578C17.4715 232.885 16.8518 232.121 16.316 231.3L15.745 230.447L16.667 230.907C17.4888 231.354 18.3374 231.749 19.208 232.091C19.7982 232.364 20.4099 232.587 21.037 232.758C21.723 232.949 22.396 233.245 23.195 233.392C24.0094 233.61 24.8376 233.772 25.674 233.878C26.5834 234.042 27.5017 234.153 28.424 234.211C32.8154 234.512 37.2268 234.313 41.573 233.616C46.663 232.832 51.7059 231.768 56.679 230.429C59.261 229.794 61.825 229.029 64.379 228.329L71.861 226.124L85.296 222.134C89.281 221.004 92.654 220.096 95.051 219.52C97.448 218.944 98.854 218.667 98.854 218.667Z" fill="#7D9E31"/>
  <path d="M95.046 219.514C92.646 220.09 89.276 220.998 85.291 222.128L71.856 226.118L64.374 228.323C61.825 229.023 59.261 229.789 56.679 230.423C51.7059 231.762 46.6629 232.826 41.573 233.61C37.2267 234.307 32.8153 234.506 28.424 234.205C27.5016 234.147 26.5834 234.036 25.674 233.872C24.8376 233.766 24.0093 233.604 23.195 233.386C22.395 233.239 21.723 232.943 21.037 232.752C20.4099 232.581 19.7981 232.358 19.208 232.085C18.337 231.743 17.4881 231.347 16.666 230.9L15.744 230.44L16.315 231.293C16.48 231.525 16.685 231.824 16.925 232.15C21.025 235.05 26.348 238.072 30.412 237.757C38.05 237.169 57.849 231.935 60.54 232.257C63.231 232.579 70.268 229.197 77.932 227.212C83.2485 225.943 88.4159 224.115 93.348 221.759C94.448 221.246 96.118 220.472 97.736 219.622C98.443 219.036 98.853 218.668 98.853 218.668C98.853 218.668 97.438 218.928 95.046 219.514Z" fill="#536629"/>
  <path d="M103.818 232.79C103.818 232.79 104.994 231.96 107.085 230.66C109.176 229.36 112.18 227.569 115.774 225.507C119.355 223.507 123.537 221.18 128.017 218.686C130.225 217.452 132.506 216.177 134.823 214.879C137.105 213.546 139.445 212.246 141.704 210.842C146.136 208.22 150.422 205.357 154.541 202.266C158.077 199.645 161.302 196.629 164.156 193.278C164.759 192.577 165.321 191.843 165.841 191.078C166.347 190.403 166.81 189.697 167.226 188.963C167.679 188.287 167.937 187.599 168.282 186.975C168.597 186.407 168.864 185.813 169.082 185.201C169.446 184.339 169.757 183.455 170.012 182.554C170.217 181.917 170.327 181.577 170.327 181.577C170.327 181.577 170.4 181.924 170.536 182.577C170.751 183.537 170.866 184.516 170.878 185.499C170.956 187.058 170.836 188.62 170.52 190.148C170.162 192.168 169.553 194.136 168.707 196.005C167.727 198.217 166.521 200.322 165.107 202.285C163.545 204.447 161.808 206.477 159.914 208.355C157.92 210.333 155.791 212.171 153.543 213.855C151.262 215.588 148.89 217.195 146.435 218.671C137.489 223.956 127.821 227.909 117.735 230.406C114.427 231.223 111.081 231.873 107.708 232.354C105.25 232.711 103.818 232.79 103.818 232.79Z" fill="#7D9E31"/>
  <path d="M111.157 228.955C116.15 226.749 123.274 223.025 126.242 221.464C129.21 219.903 144.158 210.864 147.116 210.031C150.074 209.198 155.394 205.466 157.8 203.315C161.823 199.173 165.534 194.737 168.9 190.045C169.426 189.061 169.8 185.245 169.968 182.683C169.721 183.54 169.424 184.381 169.078 185.203C168.86 185.815 168.593 186.409 168.278 186.977C167.933 187.601 167.678 188.289 167.222 188.965C166.806 189.699 166.343 190.405 165.837 191.08C165.317 191.845 164.755 192.579 164.152 193.28C161.298 196.631 158.073 199.647 154.537 202.268C150.418 205.359 146.132 208.222 141.7 210.844C139.441 212.244 137.1 213.544 134.819 214.881C132.502 216.181 130.219 217.454 128.013 218.688C123.533 221.182 119.351 223.514 115.77 225.509C112.37 227.463 109.518 229.142 107.451 230.433C108.375 230.114 109.566 229.662 111.157 228.955Z" fill="#536629"/>
  <path d="M96.405 206.81L95.959 207.733C95.4341 208.589 94.8049 209.377 94.086 210.078C91.4741 212.473 88.5082 214.451 85.293 215.941C80.8797 218.062 76.2996 219.817 71.599 221.189C66.511 222.73 60.972 224.02 55.564 225.15C52.843 225.715 50.157 226.306 47.286 226.723C44.502 227.167 41.6914 227.424 38.873 227.493C36.1374 227.595 33.3986 227.406 30.703 226.929C28.2158 226.513 25.8002 225.746 23.528 224.652C21.6357 223.753 19.874 222.601 18.291 221.228C17.0886 220.232 15.9888 219.117 15.008 217.902C14.3638 217.156 13.7724 216.366 13.238 215.538L12.666 214.664L13.62 215.089C14.234 215.371 15.113 215.807 16.234 216.289C19.1391 217.633 22.2034 218.601 25.353 219.17C27.3406 219.486 29.353 219.62 31.365 219.57C33.6644 219.507 35.9583 219.311 38.235 218.983C40.645 218.66 43.198 218.216 45.794 217.763C48.453 217.273 51.155 216.774 53.857 216.278C59.398 215.347 64.811 214.578 69.904 213.778C74.997 212.978 79.712 212.235 83.712 211.412C86.9437 210.845 90.1098 209.953 93.162 208.749C94.0135 208.396 94.8283 207.961 95.595 207.449L96.405 206.81Z" fill="#7D9E31"/>
  <path d="M23.227 220.693C33.344 222.793 36.442 219.831 42.646 220.922C48.85 222.013 50.058 221.564 57.411 220.222C64.764 218.88 62.842 219.846 71.428 217.008C80.014 214.17 83.494 212.767 87.128 211.672C89.9615 210.822 92.6341 209.508 95.037 207.782C94.4387 208.151 93.8124 208.472 93.164 208.743C90.1118 209.947 86.9457 210.839 83.714 211.406C79.714 212.229 74.988 212.981 69.906 213.772C64.824 214.563 59.4 215.34 53.859 216.272C51.159 216.772 48.459 217.272 45.796 217.757C43.196 218.21 40.647 218.657 38.237 218.977C35.9603 219.306 33.6664 219.502 31.367 219.564C29.355 219.614 27.3426 219.481 25.355 219.164C22.2054 218.595 19.1411 217.627 16.236 216.283C15.115 215.8 14.236 215.364 13.622 215.083L12.666 214.664C12.666 214.664 12.857 214.956 13.206 215.493C16.0474 218.054 19.4974 219.844 23.227 220.693Z" fill="#536629"/>
  <path d="M91.647 192.189C91.647 192.189 91.562 192.528 91.399 193.166C91.1636 194.114 90.8087 195.028 90.343 195.887C89.6095 197.252 88.7137 198.523 87.675 199.673C86.3199 201.159 84.8039 202.489 83.155 203.64C79.0557 206.424 74.5295 208.52 69.755 209.846C64.4127 211.386 58.9161 212.329 53.366 212.658C50.556 212.803 47.743 212.888 44.981 212.767C42.218 212.714 39.508 212.437 36.899 212.127C32.1318 211.534 27.4338 210.476 22.872 208.97C21.0465 208.36 19.2569 207.647 17.512 206.835C16.154 206.234 14.8363 205.546 13.567 204.775C12.7394 204.299 11.9425 203.771 11.181 203.195L10.375 202.586L11.375 202.708C12.013 202.818 12.968 202.908 14.15 203.051C15.332 203.194 16.778 203.293 18.403 203.445C20.036 203.575 21.874 203.664 23.867 203.755C33.5052 204.178 43.1589 204.1 52.789 203.521C55.395 203.383 57.989 203.142 60.527 202.902C63.062 202.622 65.557 202.338 67.938 201.954C70.338 201.601 72.603 201.137 74.756 200.662C76.7608 200.205 78.7394 199.64 80.683 198.969C82.3312 198.411 83.9376 197.736 85.49 196.949C86.6833 196.298 87.83 195.565 88.922 194.755C89.337 194.391 89.732 194.061 90.097 193.772C90.451 193.466 90.706 193.14 90.936 192.913L91.647 192.189Z" fill="#7D9E31"/>
  <path d="M54.257 205.094C58.067 205.558 63.588 204.479 68.088 203.826C72.588 203.173 83.701 201.079 86.315 197.917C87.9108 196.094 89.6391 194.392 91.486 192.824L91.647 192.189L90.947 192.913C90.717 193.14 90.462 193.466 90.108 193.772C89.743 194.061 89.348 194.391 88.933 194.755C87.841 195.565 86.6942 196.298 85.501 196.949C83.9486 197.736 82.3422 198.411 80.694 198.969C78.7504 199.64 76.7718 200.205 74.767 200.662C72.614 201.137 70.345 201.601 67.949 201.954C65.568 202.338 63.073 202.622 60.538 202.902C57.997 203.142 55.406 203.383 52.8 203.521C43.1699 204.1 33.5162 204.178 23.878 203.755C21.885 203.664 20.047 203.575 18.414 203.445C17.74 203.382 17.119 203.332 16.514 203.281C19.7718 204.372 23.0835 205.295 26.436 206.046C28.529 206.2 50.448 204.628 54.257 205.094Z" fill="#536629"/>
  <path d="M91.522 182.318C91.522 182.318 90.528 183.318 88.698 184.918C87.5452 185.86 86.3297 186.723 85.06 187.501C83.4286 188.551 81.7355 189.501 79.99 190.347C78.095 191.316 75.962 192.103 73.703 193.019C71.414 193.753 68.994 194.619 66.432 195.219C63.8119 195.895 61.1579 196.432 58.481 196.827C55.756 197.321 52.95 197.507 50.151 197.749C47.344 197.878 44.526 197.949 41.751 197.841C39.0255 197.749 36.3079 197.497 33.612 197.086C31.0723 196.735 28.5582 196.218 26.086 195.539C23.8629 194.908 21.6754 194.157 19.533 193.29C17.7473 192.462 16.0132 191.527 14.34 190.49C13.0774 189.66 11.8744 188.742 10.74 187.744C8.97197 185.91 8.13397 184.844 8.13397 184.844C8.13397 184.844 9.53397 185.318 11.675 186.18C12.765 186.58 14.225 186.803 15.722 187.266C17.258 187.654 19.114 187.799 20.984 188.184C22.966 188.325 25.019 188.659 27.264 188.748C29.504 188.856 31.834 189.018 34.288 188.992C36.717 189.092 39.254 188.956 41.816 188.958C44.38 188.858 46.996 188.78 49.603 188.611C52.21 188.442 54.827 188.293 57.396 188.022C58.676 187.88 59.964 187.838 61.219 187.678C62.474 187.518 63.719 187.373 64.947 187.261C67.403 187.013 69.747 186.611 72.013 186.361C74.223 185.95 76.393 185.719 78.334 185.328C80.247 184.906 82.162 184.719 83.669 184.302C85.209 183.882 86.657 183.719 87.817 183.333C90.142 182.628 91.522 182.318 91.522 182.318Z" fill="#7D9E31"/>
  <path d="M24.718 191.658C31.528 191.687 45.275 190.867 48.411 191.204C51.547 191.541 56.091 190.042 66.547 188.331C77.003 186.62 83.499 185.761 86.678 184.822C87.6943 184.501 88.5677 183.837 89.149 182.944C88.749 183.055 88.307 183.185 87.817 183.335C86.657 183.721 85.209 183.884 83.669 184.304C82.162 184.721 80.247 184.904 78.334 185.33C76.393 185.721 74.223 185.952 72.013 186.363C69.744 186.608 67.403 187.01 64.947 187.263C63.716 187.375 62.475 187.527 61.219 187.68C59.963 187.833 58.676 187.88 57.396 188.024C54.827 188.295 52.213 188.434 49.603 188.613C46.993 188.792 44.38 188.864 41.816 188.96C39.254 188.96 36.716 189.097 34.288 188.994C31.834 189.02 29.504 188.858 27.264 188.75C25.019 188.661 22.964 188.327 20.984 188.186C19.114 187.801 17.258 187.656 15.722 187.268C14.222 186.805 12.765 186.583 11.675 186.182C9.52997 185.32 8.13397 184.846 8.13397 184.846C8.13397 184.846 8.41097 185.19 8.92797 185.781C13.866 188.417 20.697 191.639 24.718 191.658Z" fill="#536629"/>
  <path d="M94.786 197.533L95.729 197.133C96.353 196.913 97.254 196.497 98.355 196.04C99.455 195.566 100.795 194.94 102.304 194.254C103.813 193.568 105.487 192.704 107.304 191.796C110.93 189.97 115.09 187.762 119.469 185.296C121.643 184.046 123.89 182.757 126.169 181.443C128.415 180.076 130.727 178.743 132.958 177.3C137.487 174.5 141.879 171.529 145.888 168.619C147.874 167.144 149.793 165.71 151.529 164.264C153.307 162.852 154.874 161.418 156.329 160.073C157.738 158.701 159.034 157.413 160.079 156.182C160.997 155.112 161.86 153.996 162.666 152.839C163.192 152.07 163.676 151.273 164.114 150.45C164.441 149.867 164.614 149.557 164.614 149.557C164.614 149.557 164.614 149.911 164.622 150.579C164.632 151.562 164.544 152.543 164.359 153.508C164.09 155.027 163.672 156.516 163.11 157.952C162.398 159.826 161.525 161.635 160.502 163.359C157.896 167.586 154.738 171.448 151.112 174.84C149.111 176.747 147.005 178.541 144.805 180.214C142.58 181.937 140.218 183.543 137.812 185.066C135.393 186.566 132.912 187.966 130.42 189.232C127.928 190.498 125.42 191.643 122.939 192.613C118.432 194.446 113.761 195.848 108.99 196.799C107.077 197.181 105.144 197.456 103.2 197.624C101.701 197.782 100.195 197.849 98.688 197.824C97.7228 197.83 96.7581 197.775 95.8 197.657L94.786 197.533Z" fill="#7D9E31"/>
  <path d="M109.678 193.427C119.878 188.645 128.278 182.272 131.334 180.696C134.39 179.12 142.096 175.048 147.562 170.572C153.028 166.096 158.38 162.501 160.562 158.372C162.072 155.729 163.43 153.003 164.629 150.205C164.629 149.816 164.622 149.554 164.622 149.554C164.622 149.554 164.447 149.864 164.122 150.447C163.681 151.271 163.195 152.069 162.666 152.839C161.862 153.998 160.999 155.115 160.082 156.187C159.037 157.418 157.741 158.706 156.332 160.078C154.873 161.423 153.306 162.857 151.532 164.269C149.796 165.715 147.877 167.149 145.891 168.624C141.882 171.534 137.491 174.505 132.961 177.305C130.73 178.752 128.418 180.081 126.172 181.448C123.889 182.762 121.642 184.048 119.472 185.301C115.093 187.764 110.933 189.972 107.307 191.801C105.494 192.709 103.82 193.563 102.307 194.259C100.794 194.955 99.46 195.571 98.358 196.045C97.258 196.502 96.358 196.918 95.732 197.138C95.685 197.158 95.65 197.174 95.609 197.19C98.076 197.169 102.886 196.607 109.678 193.427Z" fill="#536629"/>
  <path d="M86.54 161.461C86.54 161.461 85.78 162.628 84.33 164.525C83.456 165.697 82.459 166.773 81.356 167.733C80.7187 168.333 80.0417 168.97 79.325 169.645C78.579 170.235 77.764 170.817 76.925 171.445C76.073 172.059 75.187 172.733 74.23 173.333C73.25 173.898 72.238 174.481 71.194 175.084C68.9855 176.303 66.705 177.387 64.365 178.33C63.165 178.868 61.888 179.23 60.618 179.678C59.3392 180.148 58.0376 180.553 56.718 180.891C51.3647 182.348 45.8733 183.24 40.334 183.552C38.971 183.697 37.595 183.626 36.251 183.636C34.902 183.607 33.582 183.688 32.267 183.529C29.7413 183.385 27.228 183.072 24.744 182.593C22.5017 182.19 20.2924 181.622 18.134 180.893C16.3112 180.251 14.5301 179.496 12.801 178.632C11.281 177.755 10.035 176.894 9.036 176.214C7.169 174.507 6.289 173.514 6.289 173.514C6.289 173.514 7.699 173.889 9.839 174.584C10.998 174.79 12.386 174.996 13.892 175.308C15.509 175.389 17.223 175.653 19.155 175.691C21.087 175.729 23.136 175.848 25.355 175.725C27.539 175.749 29.862 175.532 32.246 175.409C34.631 175.231 37.098 174.962 39.592 174.7C42.083 174.337 44.624 174.109 47.135 173.615C49.673 173.296 52.156 172.709 54.635 172.269C57.094 171.754 59.502 171.181 61.835 170.636C64.117 169.95 66.435 169.507 68.494 168.767L71.58 167.828C72.58 167.528 73.48 167.112 74.407 166.8L77.057 165.871C77.857 165.526 78.616 165.2 79.328 164.892C80.6372 164.386 81.9149 163.802 83.154 163.143C85.266 162.022 86.54 161.461 86.54 161.461Z" fill="#7D9E31"/>
  <path d="M79.327 164.9C78.615 165.208 77.856 165.534 77.056 165.879L74.406 166.808C73.483 167.12 72.58 167.533 71.579 167.836L68.493 168.775C66.435 169.515 64.116 169.958 61.834 170.644C59.498 171.189 57.09 171.762 54.634 172.277C52.154 172.717 49.671 173.304 47.134 173.623C44.623 174.117 42.082 174.345 39.591 174.708C37.097 174.97 34.63 175.239 32.245 175.417C29.861 175.54 27.538 175.757 25.354 175.733C23.138 175.856 21.095 175.733 19.154 175.699C17.213 175.665 15.508 175.399 13.891 175.316C12.385 175.004 10.997 174.798 9.83796 174.592C7.69796 173.897 6.28796 173.522 6.28796 173.522C6.28796 173.522 6.79996 174.1 7.85796 175.122C13.441 177.066 19.802 178.722 24.158 178.1C33.534 176.773 48.417 178.2 55.037 176.223C61.657 174.246 69.191 170.488 72.623 168.823C75.529 167.41 83.786 163.883 86.393 161.537C86.008 161.711 84.863 162.246 83.159 163.155C81.9178 163.813 80.6381 164.396 79.327 164.9Z" fill="#536629"/>
  <path d="M82.509 136.906C82.509 136.906 81.785 138.049 80.397 139.906C79.5471 141.056 78.5609 142.099 77.46 143.012C76.83 143.565 76.16 144.254 75.405 144.812C74.65 145.37 73.827 145.9 72.966 146.49C71.1017 147.711 69.1413 148.777 67.104 149.68C66.036 150.224 64.886 150.544 63.731 151.002C62.5572 151.459 61.3586 151.85 60.141 152.173C57.6304 152.895 55.0766 153.457 52.495 153.856C49.871 154.368 47.213 154.51 44.546 154.792C41.895 154.877 39.226 155.06 36.632 154.97C34.032 154.97 31.485 154.819 29.032 154.634C24.126 154.262 19.604 153.626 15.749 152.953C11.894 152.262 8.69897 151.576 6.44897 151.053C4.20097 150.553 2.89697 150.161 2.89697 150.161C2.89697 150.161 4.17697 149.753 6.45297 149.231C8.72897 148.709 11.991 148.131 15.889 147.651C23.699 146.682 33.951 146.265 43.948 145.662C46.426 145.443 48.94 145.344 51.348 145.062C52.554 144.917 53.776 144.862 54.948 144.713C56.117 144.548 57.277 144.383 58.429 144.261C60.71 143.946 62.887 143.546 64.962 143.161C66.972 142.638 69.004 142.344 70.716 141.713L73.285 140.959C74.107 140.726 74.785 140.389 75.496 140.128C76.7734 139.69 78.0154 139.156 79.211 138.528C81.266 137.445 82.509 136.906 82.509 136.906Z" fill="#7D9E31"/>
  <path d="M28.454 149.227C33.964 149.781 32.047 149.653 39.47 148.599C46.893 147.545 45.591 149.128 55.248 147.236C61.2227 146.157 67.0833 144.521 72.753 142.349C75.427 141.329 81.193 138.585 81.553 137.349C80.99 137.617 80.203 138.007 79.214 138.528C78.0184 139.156 76.7764 139.691 75.499 140.128C74.786 140.389 74.11 140.728 73.288 140.959L70.719 141.713C69.007 142.344 66.975 142.638 64.965 143.161C62.89 143.55 60.713 143.95 58.432 144.261C57.28 144.383 56.12 144.548 54.951 144.713C53.775 144.863 52.551 144.913 51.351 145.062C48.942 145.342 46.428 145.441 43.951 145.662C33.951 146.262 23.702 146.682 15.892 147.651C15.081 147.751 14.316 147.858 13.562 147.965C10.176 148.582 7.25196 149.134 4.99996 149.582C3.64696 149.924 2.89996 150.161 2.89996 150.161L3.14896 150.233C6.88035 149.773 10.633 149.506 14.392 149.433C17.131 149.621 22.943 148.676 28.454 149.227Z" fill="#536629"/>
  <path d="M150.471 104.7C150.471 104.7 150.343 106.043 149.946 108.329C149.712 109.74 149.307 111.117 148.739 112.429C148.429 113.209 148.144 114.129 147.724 114.968C147.304 115.807 146.813 116.655 146.315 117.568C145.207 119.501 143.944 121.341 142.536 123.068C141.836 124.038 140.952 124.84 140.129 125.775C139.291 126.715 138.401 127.607 137.462 128.447C135.554 130.231 133.533 131.89 131.411 133.414C129.306 135.061 127.001 136.393 124.749 137.854C122.425 139.133 120.131 140.509 117.778 141.6C115.456 142.781 113.122 143.8 110.853 144.747C106.311 146.641 101.992 148.125 98.253 149.275C94.504 150.407 91.343 151.243 89.1 151.796C86.869 152.371 85.529 152.611 85.529 152.611C85.529 152.611 86.485 151.667 88.275 150.169C90.065 148.671 92.716 146.682 95.969 144.482C102.491 140.082 111.438 135.054 120.075 129.982C122.185 128.666 124.381 127.436 126.399 126.095C127.408 125.416 128.475 124.816 129.455 124.148C130.42 123.469 131.38 122.799 132.355 122.167C134.244 120.853 136.004 119.508 137.677 118.221C139.232 116.842 140.909 115.659 142.152 114.321C142.83 113.68 143.48 113.064 144.099 112.482C144.718 111.9 145.176 111.297 145.691 110.74C146.63 109.772 147.495 108.734 148.277 107.635C149.608 105.737 150.471 104.7 150.471 104.7Z" fill="#7D9E31"/>
  <path d="M106.88 139.522C108.925 138.661 113.618 135.054 116.452 133.862C123.164 130.54 129.638 126.759 135.828 122.544C141.067 118.764 145.658 113.651 146.711 111.888C147.852 110.14 148.723 108.23 149.294 106.223C148.994 106.623 148.663 107.08 148.272 107.634C147.49 108.733 146.625 109.771 145.686 110.739C145.171 111.296 144.72 111.899 144.094 112.481C143.468 113.063 142.825 113.681 142.147 114.32C140.904 115.657 139.227 116.84 137.672 118.22C135.999 119.507 134.239 120.852 132.35 122.166C131.379 122.798 130.419 123.466 129.45 124.147C128.47 124.815 127.403 125.415 126.394 126.094C124.376 127.435 122.18 128.665 120.07 129.981C111.433 135.052 102.486 140.076 95.964 144.481C92.711 146.681 90.057 148.675 88.27 150.168C87.778 150.58 87.37 150.936 87.002 151.258C89.033 150.277 92.184 148.725 92.771 148.266C93.659 147.572 104.835 140.382 106.88 139.522Z" fill="#536629"/>
  <path d="M87.486 163.706C87.486 163.706 88.724 163.183 90.911 162.451C92.1929 162.02 93.4513 161.521 94.681 160.958C95.381 160.658 96.113 160.375 96.876 160.023C97.645 159.642 98.456 159.243 99.298 158.823C100.993 158.088 102.75 157.046 104.621 156.068C106.487 155.074 108.4 153.879 110.395 152.732C112.36 151.477 114.412 150.277 116.455 148.915C118.518 147.615 120.594 146.215 122.679 144.837C131.002 139.272 139.479 133.544 146.357 129.783C149.132 128.238 151.985 126.838 154.906 125.59C157.052 124.7 158.324 124.29 158.324 124.29C158.324 124.29 157.496 125.366 155.965 127.067C155.192 127.902 154.306 128.998 153.211 130.129C152.134 131.281 150.935 132.622 149.578 134.001C146.87 136.782 143.623 139.939 139.935 143.121C138.096 144.721 136.155 146.332 134.102 147.883C132.086 149.483 129.907 150.96 127.749 152.458C125.516 153.868 123.313 155.317 120.988 156.536C118.743 157.79 116.435 158.927 114.074 159.945C111.842 160.89 109.56 161.714 107.24 162.415C105.149 163.049 103.017 163.534 100.858 163.868C99.85 164.013 98.897 164.168 97.986 164.277C97.047 164.345 96.135 164.353 95.306 164.383C93.8998 164.482 92.4871 164.438 91.09 164.25C88.803 163.971 87.486 163.706 87.486 163.706Z" fill="#7D9E31"/>
  <path d="M154.906 125.592C151.985 126.84 149.132 128.24 146.357 129.785C139.479 133.546 131.002 139.274 122.679 144.839C120.594 146.215 118.518 147.614 116.455 148.917C114.412 150.279 112.36 151.479 110.395 152.734C108.395 153.881 106.487 155.076 104.621 156.07C102.75 157.048 100.993 158.09 99.298 158.825C98.456 159.243 97.645 159.642 96.876 160.025C96.113 160.377 95.376 160.658 94.681 160.96C93.4513 161.523 92.1929 162.022 90.911 162.453C89.711 162.853 88.825 163.183 88.245 163.409C90.039 163.794 94.219 163.948 100.87 159.909C110.018 154.35 116.051 150.709 119.409 149.099C122.767 147.489 133.509 140.268 136.528 138.222C139.547 136.176 144.993 132.329 148.857 130.081C151.857 128.338 154.478 126.026 157.683 125.091C158.1 124.591 158.324 124.297 158.324 124.297C158.324 124.297 157.052 124.7 154.906 125.592Z" fill="#536629"/>
  <path d="M84.466 150.08C84.466 150.08 83.732 151.205 82.328 153.031C81.4336 154.142 80.4244 155.156 79.317 156.055C77.9165 157.303 76.4109 158.428 74.817 159.417C72.9476 160.566 71.0108 161.601 69.017 162.517C66.7915 163.482 64.5132 164.321 62.193 165.029C59.7406 165.802 57.2458 166.434 54.721 166.921C52.161 167.473 49.546 167.806 46.937 168.166C44.325 168.416 41.711 168.704 39.145 168.78C36.577 168.944 34.061 168.938 31.624 168.929C26.757 168.877 22.234 168.57 18.371 168.174C14.503 167.76 11.288 167.297 9.021 166.926C6.756 166.572 5.44 166.265 5.44 166.265C5.44 166.265 6.684 165.777 8.899 165.105C11.114 164.433 14.299 163.632 18.127 162.872C25.787 161.346 35.933 160.201 45.877 159.072C48.355 158.781 50.842 158.497 53.256 158.172C54.456 157.987 55.662 157.837 56.856 157.697C58.0313 157.513 59.1897 157.33 60.331 157.148C62.645 156.853 64.77 156.328 66.88 155.991C68.901 155.484 70.903 155.128 72.657 154.598C74.379 154.032 76.151 153.691 77.463 153.106C78.7259 152.687 79.9639 152.196 81.171 151.636C83.219 150.6 84.466 150.08 84.466 150.08Z" fill="#7D9E31"/>
  <path d="M77.457 153.107C76.145 153.692 74.373 154.033 72.651 154.599C70.897 155.129 68.895 155.485 66.874 155.992C64.764 156.329 62.639 156.854 60.325 157.149C59.183 157.33 58.0247 157.513 56.85 157.698C55.659 157.838 54.458 157.988 53.25 158.173C50.836 158.495 48.35 158.779 45.871 159.073C35.927 160.204 25.781 161.349 18.121 162.873C14.297 163.633 11.106 164.433 8.89301 165.106C8.44901 165.24 8.07601 165.36 7.71301 165.476C10.881 165.309 14.342 165.185 16.577 165.276C21.63 165.476 37.025 162.198 41.067 162.776C45.109 163.354 49.059 162.776 55.798 160.719C62.537 158.662 66.706 159.076 73.835 156.229C78.703 154.286 82.535 151.991 84.414 150.101C84.298 150.15 83.114 150.649 81.162 151.639C79.9558 152.198 78.7188 152.688 77.457 153.107Z" fill="#536629"/>
  <path d="M91.566 182.412C91.566 182.412 92.741 181.764 94.837 180.817C95.91 180.383 97.103 179.674 98.488 179.027C99.868 178.398 101.373 177.485 103.027 176.627C104.674 175.747 106.398 174.694 108.208 173.618L110.95 171.888L113.75 169.994C115.65 168.707 117.563 167.306 119.503 165.859C121.443 164.412 123.393 162.898 125.334 161.359C133.093 155.159 140.963 148.679 147.317 144.21C150.485 141.969 153.23 140.197 155.205 139.01C157.18 137.823 158.369 137.21 158.369 137.21C158.369 137.21 157.725 138.391 156.469 140.317C155.213 142.243 153.357 144.936 150.995 148.037C148.278 151.545 145.386 154.912 142.328 158.127C140.638 159.888 138.873 161.691 136.956 163.42C135.102 165.202 133.041 166.86 131.009 168.54C128.909 170.148 126.786 171.747 124.556 173.151C123.482 173.904 122.333 174.551 121.207 175.185C120.11 175.846 118.981 176.451 117.823 176.998C115.649 178.087 113.409 179.037 111.114 179.84C109.059 180.551 106.962 181.137 104.835 181.593C103.039 181.979 101.219 182.25 99.388 182.402C97.9971 182.568 96.5963 182.634 95.196 182.602C92.897 182.543 91.566 182.412 91.566 182.412Z" fill="#7D9E31"/>
  <path d="M117.707 169.661C118.793 168.739 127.754 161.307 129.473 160.179C132.878 157.94 140.607 150.86 141.052 150.441C141.497 150.022 151.013 142.088 152.488 140.707C150.96 141.692 149.23 142.851 147.316 144.207C140.962 148.676 133.092 155.161 125.333 161.356C123.392 162.9 121.433 164.413 119.502 165.856C117.571 167.299 115.645 168.704 113.749 169.991L110.949 171.885L108.207 173.615C106.397 174.691 104.673 175.744 103.026 176.624C101.372 177.483 99.867 178.396 98.487 179.024C97.102 179.671 95.909 180.38 94.836 180.814C92.736 181.761 91.565 182.409 91.565 182.409C91.565 182.409 91.653 182.419 91.82 182.43C93.3288 181.986 94.8081 181.448 96.249 180.818C104.374 177.449 116.62 170.585 117.707 169.661Z" fill="#536629"/>
  <path d="M77.93 127.265C76.822 127.527 75.488 127.734 74.081 128.091L69.03 128.908C67.144 129.108 65.18 129.468 63.036 129.682L56.336 130.443C51.68 130.934 46.713 131.459 41.748 131.981C31.789 132.981 21.807 134.062 14.248 135.001C12.363 135.212 10.627 135.425 9.07299 135.64C7.53899 135.756 6.17299 135.949 5.04399 136.088C2.81699 136.248 1.46399 136.434 1.46399 136.434C1.46399 136.434 2.62999 137.029 4.81599 137.897C5.90899 138.253 7.24699 138.715 8.81599 139.135C10.37 139.512 12.139 139.956 14.082 140.306C16.016 140.606 18.136 140.979 20.367 141.171C22.601 141.387 24.967 141.581 27.405 141.628C29.851 141.728 32.373 141.709 34.934 141.607C37.499 141.558 40.091 141.282 42.688 141.088C45.277 140.738 47.867 140.493 50.4 139.993C52.935 139.555 55.419 139.05 57.8 138.408C60.188 137.846 62.475 137.088 64.62 136.363C66.768 135.654 68.759 134.726 70.578 133.958C72.388 133.058 73.985 132.164 75.392 131.319C76.815 130.385 77.979 129.519 78.881 128.807C80.521 127.207 81.402 126.207 81.402 126.207C81.402 126.207 80.107 126.537 77.93 127.265Z" fill="#7D9E31"/>
  <path d="M74.081 128.091L69.03 128.908C67.144 129.108 65.18 129.468 63.036 129.682L56.336 130.443C51.68 130.934 46.713 131.459 41.748 131.981C31.789 132.981 21.807 134.062 14.248 135.001C12.363 135.212 10.627 135.425 9.07299 135.64C7.53899 135.756 6.17299 135.949 5.04399 136.088C2.81699 136.248 1.46399 136.434 1.46399 136.434C1.46399 136.434 1.59299 136.498 1.78899 136.592C5.25194 137.543 8.86791 137.806 12.432 137.365C20.782 136.179 19.111 137.731 28.392 136.737C37.673 135.743 40.574 132.659 48.224 133.32C55.874 133.981 56.59 133.057 64.81 131.771C73.03 130.485 74.784 129.862 78.773 128.043C79.5909 127.669 80.2989 127.091 80.829 126.365C80.258 126.523 79.291 126.807 77.929 127.265C76.822 127.527 75.488 127.734 74.081 128.091Z" fill="#536629"/>
  <path d="M83.237 136.455C83.237 136.455 84.421 135.83 86.529 134.92C87.529 134.374 88.658 133.637 89.943 132.962C91.225 132.137 92.669 131.211 94.243 130.196C95.781 129.083 97.485 128.044 99.222 126.768C100.968 125.526 102.808 124.215 104.714 122.861L116.596 114.261C124.677 108.354 132.823 102.488 139.075 98.1391C140.619 97.0391 142.053 96.0391 143.352 95.1571C144.572 94.2181 145.715 93.4511 146.652 92.8001C148.415 91.4311 149.552 90.6641 149.552 90.6641C149.552 90.6641 149.08 91.8881 148.031 93.9911C147.458 94.9911 146.77 96.2251 145.888 97.5821C144.982 98.8991 143.962 100.413 142.751 101.971C141.512 103.488 140.185 105.181 138.651 106.813C137.132 108.467 135.502 110.191 133.72 111.856C131.965 113.563 130.075 115.234 128.103 116.87C126.161 118.546 124.049 120.07 121.986 121.664C119.828 123.131 117.735 124.681 115.518 126.002C113.337 127.368 111.151 128.652 108.95 129.765C106.796 130.944 104.588 131.904 102.508 132.801C100.428 133.698 98.333 134.348 96.468 134.989C94.52 135.532 92.734 135.932 91.123 136.245C89.438 136.499 87.994 136.63 86.849 136.705C84.566 136.612 83.237 136.455 83.237 136.455Z" fill="#7D9E31"/>
  <path d="M149.551 90.6641C149.551 90.6641 148.418 91.4311 146.651 92.8001C145.715 93.4511 144.572 94.2181 143.351 95.1571C142.051 96.0351 140.618 97.0351 139.074 98.1391C132.822 102.488 124.674 108.354 116.595 114.261L104.713 122.861C102.807 124.215 100.967 125.526 99.221 126.768C97.484 128.044 95.78 129.083 94.242 130.196C92.664 131.211 91.22 132.137 89.942 132.962C88.657 133.637 87.528 134.374 86.528 134.92C85.702 135.277 85.064 135.571 84.538 135.82C87.0749 134.978 89.5418 133.938 91.916 132.71C95.345 130.872 103.873 124.82 106.506 123.204C109.614 121.081 112.575 118.748 115.366 116.223C116.549 115.105 128.157 109.24 130.259 107.349C132.361 105.458 143.511 97.8631 144.739 96.3111C145.339 95.5551 147.266 93.6421 149.052 91.8261C149.378 91.1001 149.551 90.6641 149.551 90.6641Z" fill="#536629"/>
  <path d="M80.281 112.974C80.281 112.974 80.049 113.195 79.612 113.601C78.991 114.192 78.3348 114.745 77.647 115.256C76.494 116.02 75.3002 116.721 74.071 117.356C72.671 117.995 71.071 118.856 69.278 119.476C65.2386 120.991 61.0821 122.173 56.85 123.01C54.55 123.523 52.168 123.883 49.736 124.245C47.304 124.607 44.836 124.833 42.36 125.077C39.882 125.229 37.407 125.446 34.966 125.477C32.527 125.565 30.121 125.559 27.794 125.497C23.5419 125.408 19.2981 125.082 15.082 124.523C12.068 124.117 9.07824 123.547 6.12601 122.816C3.97301 122.253 2.76801 121.816 2.76801 121.816C2.76801 121.816 4.01501 121.456 6.15401 120.996C8.29901 120.496 11.343 119.875 14.985 119.22C22.27 117.91 31.945 116.738 41.606 115.956L48.812 115.424C51.178 115.224 53.532 115.145 55.783 114.985L68.141 114.321C69.971 114.257 71.586 114.074 73.09 114.011C74.539 113.862 75.804 113.735 76.847 113.627C77.918 113.448 78.79 113.242 79.374 113.134L80.281 112.974Z" fill="#7D9E31"/>
  <path d="M80.281 112.974L79.374 113.137C78.79 113.245 77.918 113.451 76.847 113.63C75.804 113.738 74.539 113.865 73.09 114.014C71.59 114.077 69.971 114.26 68.141 114.324L55.783 114.988C53.532 115.148 51.183 115.226 48.812 115.427L41.606 115.959C31.945 116.741 22.27 117.913 14.985 119.223C11.343 119.878 8.29898 120.502 6.15398 120.999C4.63598 121.325 3.59298 121.599 3.09998 121.728C7.43498 121.977 11.823 122.049 13.613 121.5C17.657 120.264 18.775 121.812 24.451 121.285C30.127 120.758 48.681 116.518 53.603 116.775C58.525 117.032 59.115 117.704 66.103 115.859C73.091 114.014 80.281 112.974 80.281 112.974Z" fill="#536629"/>
  <path d="M139.141 60.1691C139.141 60.1691 139.115 60.4931 139.067 61.1021C139.011 61.9801 138.884 62.8523 138.688 63.7101C138.557 64.2691 138.424 64.9161 138.241 65.5981C138.041 66.2641 137.778 66.9671 137.512 67.7401C136.872 69.4375 136.103 71.0833 135.212 72.6631C134.712 73.5201 134.15 74.3851 133.58 75.3021C132.959 76.1581 132.329 77.0781 131.64 77.9721C130.191 79.8192 128.646 81.5884 127.01 83.2721C123.517 86.7907 119.817 90.0966 115.928 93.1721L114.486 94.3311L113.767 94.9091L113.296 95.2851L112.917 95.5581C111.917 96.2914 110.917 97.0191 109.917 97.7411C107.882 99.1411 105.582 100.566 103.492 101.741C101.378 102.888 99.321 103.972 97.323 104.854C95.338 105.784 93.437 106.57 91.669 107.261C89.904 107.978 88.269 108.52 86.811 109.044C85.379 109.581 84.094 109.975 83.037 110.333C80.967 111.063 79.705 111.456 79.705 111.456L80.311 110.756C80.725 110.328 81.296 109.611 82.119 108.839C82.941 108.087 83.919 107.102 85.119 106.116C86.298 105.126 87.637 103.968 89.11 102.811C90.583 101.654 92.18 100.422 93.87 99.1111C95.544 97.8311 97.308 96.4851 99.136 95.0891C100.924 93.6571 102.636 92.3801 104.514 90.8191C106.371 89.2681 108.257 87.6941 110.144 86.1191C114.006 82.9191 117.932 79.9601 121.494 77.1711C123.294 75.7911 124.982 74.4341 126.569 73.1261C128.156 71.8181 129.617 70.5551 130.934 69.3391C132.251 68.1231 133.421 66.9601 134.452 65.8891C135.426 64.7781 136.315 63.8221 136.979 62.9801C137.679 62.1581 138.199 61.3941 138.565 60.9231C138.931 60.4521 139.141 60.1691 139.141 60.1691Z" fill="#7D9E31"/>
  <path d="M93.874 101.066C94.994 100.283 104.14 93.0031 106.144 91.8661C108.148 90.7291 116.926 82.2661 118.817 80.4241C120.531 78.7561 129.786 71.5611 130.817 70.8171C131.848 70.0731 139.136 64.0491 139.01 61.6471C138.99 61.2771 138.947 60.8851 138.894 60.4871C138.804 60.6061 138.707 60.7241 138.563 60.9091C138.197 61.3801 137.679 62.1441 136.977 62.9661C136.313 63.8081 135.424 64.7661 134.45 65.8751C133.419 66.9461 132.243 68.1081 130.932 69.3251C129.621 70.5421 128.16 71.8161 126.567 73.1121C124.974 74.4081 123.292 75.7771 121.492 77.1571C117.93 79.9461 114.004 82.9081 110.142 86.1051C108.255 87.6821 106.369 89.2561 104.512 90.8051C102.633 92.3661 100.922 93.6431 99.134 95.0751C97.306 96.4751 95.542 97.8171 93.868 99.0971C92.178 100.412 90.581 101.656 89.108 102.797C87.635 103.938 86.296 105.112 85.117 106.102C83.917 107.088 82.943 108.073 82.117 108.825C81.577 109.332 81.176 109.779 80.826 110.172C81.646 109.697 82.742 109.051 83.306 108.663C84.273 108 92.752 101.847 93.874 101.066Z" fill="#536629"/>
  <path d="M82.312 123.408L83.151 122.969C83.9136 122.581 84.6531 122.15 85.366 121.677C86.259 121.05 87.345 120.288 88.588 119.412C89.805 118.507 91.158 117.457 92.631 116.312C95.586 114.033 99.031 111.373 102.731 108.524C104.6 107.124 106.531 105.663 108.531 104.23C110.509 102.766 112.569 101.344 114.631 99.9121C116.671 98.4941 118.831 97.0681 120.825 95.7731C122.977 94.3881 124.739 93.1601 126.667 91.8421C130.391 89.2211 133.821 86.6571 136.675 84.3301C138.1 83.1611 139.422 82.0891 140.533 81.0701C141.62 80.0401 142.633 79.1611 143.37 78.3551C144.12 77.5551 144.735 76.9211 145.099 76.4431C145.487 75.9731 145.693 75.7201 145.693 75.7201C145.693 75.7201 145.647 76.0461 145.558 76.6561C145.405 77.5406 145.176 78.4104 144.875 79.2561C144.431 80.5829 143.882 81.8726 143.235 83.1131C142.417 84.7249 141.498 86.2833 140.483 87.7791C137.936 91.4882 134.997 94.9125 131.718 97.9931C129.977 99.6541 127.878 101.42 125.974 102.9C123.917 104.479 121.944 105.936 119.851 107.406C111.576 113.248 102.624 118.336 95.241 121.042C92.2575 122.199 89.1486 123.003 85.978 123.436C85.0763 123.552 84.165 123.573 83.259 123.498L82.312 123.408Z" fill="#7D9E31"/>
  <path d="M145.551 76.654C145.64 76.044 145.686 75.718 145.686 75.718C145.686 75.718 145.48 75.971 145.092 76.441C144.728 76.919 144.113 77.557 143.363 78.353C142.631 79.159 141.613 80.038 140.526 81.068C139.415 82.087 138.093 83.159 136.668 84.328C133.814 86.655 130.384 89.219 126.66 91.84C124.732 93.158 122.97 94.386 120.818 95.771C118.829 97.071 116.664 98.492 114.624 99.91C112.566 101.342 110.506 102.764 108.524 104.228C106.524 105.661 104.595 107.128 102.724 108.522C99.024 111.371 95.58 114.031 92.624 116.31C91.151 117.457 89.798 118.51 88.581 119.41C87.338 120.286 86.252 121.048 85.359 121.675C84.816 121.997 84.348 122.291 83.921 122.548C85.335 122.229 87.981 121.014 92.989 117.556C103.86 110.051 110.476 104.956 115 101.956C119.524 98.956 128.981 93.574 130.834 92.447C132.687 91.32 140.459 82.718 142.516 80.737C143.674 79.4908 144.691 78.1216 145.551 76.654Z" fill="#536629"/>
  <path d="M79.491 100.28C79.491 100.28 78.414 101.058 76.473 102.246C75.501 102.83 74.324 103.57 72.943 104.31C71.412 105.21 69.8274 106.014 68.198 106.72C66.2668 107.65 64.2624 108.419 62.205 109.02C61.093 109.357 59.934 109.651 58.745 109.98L57.845 110.222C57.668 110.264 57.598 110.295 57.335 110.342L56.903 110.414L55.162 110.714C54.007 110.931 52.793 111.096 51.508 111.234C50.244 111.386 48.951 111.546 47.683 111.613C45.129 111.836 42.531 111.886 39.931 111.919C37.331 111.882 34.731 111.801 32.178 111.577C29.625 111.353 27.121 111.044 24.706 110.627C22.291 110.21 19.97 109.709 17.789 109.103C15.7287 108.555 13.7022 107.888 11.72 107.103C10.0309 106.432 8.38506 105.658 6.79199 104.783C5.55145 104.099 4.3718 103.31 3.26599 102.425C2.53755 101.885 1.87235 101.264 1.28299 100.575C0.882987 100.112 0.661987 99.8661 0.661987 99.8661L1.57299 100.136C2.38786 100.409 3.22004 100.627 4.06399 100.789C5.10399 101.072 6.46399 101.189 7.91599 101.463C9.43099 101.622 11.102 101.807 12.95 101.936C14.798 102.065 16.776 102.222 18.892 102.297C20.992 102.421 23.228 102.47 25.526 102.548L32.626 102.708C35.045 102.725 37.501 102.744 39.959 102.764C42.417 102.764 44.874 102.755 47.294 102.753C49.746 102.716 51.956 102.731 54.394 102.653L56.163 102.616L56.598 102.607L56.942 102.576L57.742 102.513C58.797 102.435 59.835 102.335 60.86 102.287C62.903 102.259 64.892 101.834 66.741 101.643C68.59 101.452 70.336 101.215 71.883 100.99C73.43 100.765 74.791 100.639 75.918 100.521C78.166 100.305 79.491 100.28 79.491 100.28Z" fill="#7D9E31"/>
  <path d="M71.88 100.991C70.333 101.216 68.58 101.447 66.738 101.644C64.896 101.841 62.9 102.26 60.857 102.288C59.832 102.336 58.794 102.436 57.739 102.514L56.939 102.577L56.595 102.608L56.16 102.617L54.391 102.654C51.955 102.731 49.745 102.716 47.291 102.754C44.871 102.754 42.414 102.762 39.956 102.765C37.498 102.745 35.042 102.726 32.623 102.709L25.523 102.549C23.223 102.471 20.992 102.422 18.889 102.298C16.773 102.223 14.789 102.081 12.947 101.937C11.105 101.793 9.42802 101.623 7.91302 101.464C6.85202 101.264 5.84402 101.145 4.96802 100.988C8.51776 102.475 12.2947 103.347 16.137 103.566C25.548 103.744 32.695 104.611 36.256 104.9C39.817 105.189 47.298 104.108 53.389 104.649C59.48 105.19 62.415 106.259 66.381 104.368C69.715 102.781 75.765 101.63 79.008 100.299C78.451 100.323 77.408 100.377 75.908 100.523C74.788 100.64 73.419 100.753 71.88 100.991Z" fill="#536629"/>
  <path d="M78.7 91.084C78.7 91.084 78.423 91.223 77.9 91.484C77.1315 91.8413 76.3344 92.1334 75.517 92.357C72.641 93.1585 69.6937 93.678 66.717 93.908C57.8461 94.5292 48.9319 93.9004 40.236 92.04C37.874 91.522 35.516 90.982 33.222 90.312C30.922 89.668 28.684 88.935 26.541 88.124C22.5702 86.6899 18.7639 84.8357 15.187 82.593C13.7299 81.67 12.3515 80.6281 11.066 79.478C10.0332 78.6046 9.10953 77.6097 8.31499 76.515C8.00404 76.1198 7.73587 75.6928 7.51499 75.241C7.32561 74.9247 7.17454 74.587 7.06499 74.235C6.89299 73.677 6.79999 73.379 6.79999 73.379L7.49199 73.929C8.11829 74.4033 8.79345 74.8092 9.50599 75.14C10.5919 75.6522 11.7091 76.0951 12.851 76.466C14.151 76.922 15.696 77.306 17.351 77.743C23.997 79.433 33.046 81.183 42.105 83.076C46.635 84.03 51.173 84.996 55.43 85.948L67.088 88.634C70.514 89.463 73.388 90.134 75.427 90.543C76.446 90.723 77.234 90.918 77.821 90.963C78.394 91.044 78.7 91.084 78.7 91.084Z" fill="#7D9E31"/>
  <path d="M78.044 90.994C77.961 90.984 77.917 90.977 77.817 90.963C77.23 90.918 76.442 90.723 75.423 90.543C73.38 90.133 70.51 89.463 67.084 88.634L55.426 85.948C51.166 85 46.631 84.03 42.101 83.076C33.042 81.183 23.993 79.433 17.347 77.743C15.696 77.306 14.152 76.922 12.847 76.466C11.7065 76.0949 10.5906 75.652 9.50601 75.14C8.79105 74.8097 8.11351 74.4037 7.48501 73.929C7.23401 73.729 7.06601 73.596 6.95001 73.504C7.60746 74.864 8.54656 76.0686 9.70501 77.038C12.53 78.954 32.405 82.656 37.141 83.943C41.877 85.23 42.494 86.677 49.087 87.783C55.68 88.889 75.639 91.961 77.903 91.483C78.157 91.427 78.177 91.248 78.044 90.994Z" fill="#536629"/>
  <path d="M80.046 94.282L80.752 93.742C81.243 93.407 81.828 92.849 82.626 92.19C84.195 90.821 86.357 88.814 88.926 86.4L97.726 78.289C100.952 75.354 104.414 72.264 107.878 69.189C114.809 63.058 121.802 57.055 126.739 52.289C127.955 51.089 129.106 49.989 130.009 48.952C130.817 48.0644 131.569 47.1269 132.259 46.145C132.716 45.5033 133.103 44.8139 133.412 44.089C133.629 43.554 133.742 43.27 133.742 43.27C133.742 43.27 133.811 43.57 133.942 44.143C134.02 44.5043 134.056 44.8735 134.048 45.243C134.081 45.7439 134.059 46.2469 133.982 46.743C133.835 48.0871 133.527 49.4086 133.064 50.679C132.515 52.3156 131.832 53.9043 131.022 55.429C129.026 59.1487 126.639 62.6446 123.9 65.857C122.438 67.626 120.857 69.373 119.178 71.069C117.519 72.789 115.737 74.427 113.944 76.045C107.308 81.9754 99.8703 86.9425 91.85 90.8C89.1512 92.0762 86.3342 93.0853 83.439 93.813C82.6168 94.0232 81.7786 94.165 80.933 94.237C80.355 94.267 80.046 94.282 80.046 94.282Z" fill="#7D9E31"/>
  <path d="M132.252 46.153C131.562 47.1349 130.81 48.0724 130.002 48.96C129.102 50 127.948 51.098 126.732 52.297C121.795 57.059 114.802 63.062 107.871 69.197C104.407 72.268 100.945 75.358 97.719 78.297L88.919 86.408C86.354 88.822 84.192 90.829 82.619 92.198C81.819 92.857 81.236 93.415 80.745 93.75C80.72 93.771 80.708 93.779 80.683 93.799C84.0121 92.3712 87.1719 90.5771 90.104 88.45C94.06 85.31 97.722 81.285 100.016 79.542C102.31 77.799 107.665 71.897 108.997 70.642C110.329 69.387 120.584 61.106 122.976 58.857C126.205 55.4756 129.243 51.9167 132.076 48.197C132.866 46.7474 133.393 45.1689 133.631 43.535C133.577 43.673 133.503 43.858 133.401 44.109C133.092 44.8296 132.707 45.5149 132.252 46.153Z" fill="#536629"/>
  <path d="M79.42 85.3111C78.3584 85.2513 77.3007 85.1365 76.251 84.9671C73.4992 84.5419 70.7761 83.9484 68.097 83.1901C59.9893 80.9391 52.1685 77.7597 44.79 73.7151C36.744 69.3091 29.106 63.7061 24.746 57.8791C23.7228 56.5611 22.8626 55.1244 22.184 53.6001C21.6176 52.4203 21.2748 51.1458 21.173 49.8411C21.0892 49.0153 21.1774 48.1811 21.432 47.3911C21.615 46.8751 21.713 46.6011 21.713 46.6011C21.713 46.6011 21.753 46.8871 21.827 47.4241C21.9302 48.1514 22.1575 48.8556 22.499 49.5061C23.0064 50.4914 23.65 51.4003 24.411 52.2061C25.4023 53.2575 26.4645 54.2398 27.59 55.1461C32.68 59.0971 40.319 63.4461 48.09 67.6941C55.845 71.9681 63.741 76.1511 69.59 79.5581C72.535 81.2141 74.975 82.6691 76.698 83.6851C78.434 84.7201 79.42 85.3111 79.42 85.3111Z" fill="#7D9E31"/>
  <path d="M30.366 60.111C32.539 61.211 37.266 63.572 39.425 64.836C41.584 66.1 44.553 66.887 48.317 69.321C52.488 72.014 53.135 73.621 57.517 75.365C60.989 76.75 73.373 82.782 78.366 85.231C78.966 85.288 79.32 85.306 79.377 85.31C79.347 85.283 79.319 85.258 79.289 85.233C79.005 85.065 78.123 84.533 76.703 83.687C74.98 82.671 72.54 81.216 69.595 79.56C63.743 76.153 55.847 71.97 48.095 67.696C40.321 63.449 32.682 59.096 27.595 55.148C26.4695 54.2417 25.4073 53.2594 24.416 52.208C23.655 51.4023 23.0114 50.4934 22.504 49.508C22.1625 48.8576 21.9352 48.1534 21.832 47.426C21.794 47.1594 21.7657 46.9544 21.747 46.811C21.4941 47.9178 21.5759 49.0748 21.982 50.135C23.087 52.775 28.196 59.007 30.366 60.111Z" fill="#536629"/>
  <path d="M79.928 86.5161C79.928 86.5161 80.55 85.5491 81.637 83.8531C82.729 82.1781 84.266 79.7891 86.172 77.0001C89.899 71.3451 95.111 64.0891 100.164 56.8121C105.235 49.5551 110.148 42.2611 112.95 36.4601C113.557 35.1476 114.073 33.7947 114.493 32.4111C114.815 31.3523 114.988 30.2536 115.005 29.1471C115.022 28.4126 114.913 27.6807 114.683 26.9831C114.509 26.4691 114.418 26.1951 114.418 26.1951L115.018 26.7781C115.598 27.3713 116.049 28.079 116.34 28.8561C116.829 30.0705 117.089 31.365 117.106 32.6741C117.175 34.3393 117.042 36.0067 116.711 37.6401C115.393 44.7991 111.042 53.2141 105.796 60.7401C100.981 67.6395 95.3879 73.9618 89.127 79.5821C87.0652 81.4535 84.89 83.1961 82.614 84.8001C81.7492 85.4186 80.8527 85.9914 79.928 86.5161Z" fill="#7D9E31"/>
  <path d="M88.455 75.1601C92.029 72.5871 100.9 61.1131 102.671 58.7541C104.679 56.0761 108.394 47.5541 113.641 37.8881C116.484 32.6551 116.056 29.0511 115.07 26.8361C115.054 26.8211 115.036 26.7911 115.02 26.7771L114.42 26.1941C114.42 26.1941 114.511 26.4681 114.685 26.9821C114.915 27.6798 115.024 28.4117 115.007 29.1461C114.99 30.2527 114.817 31.3514 114.495 32.4101C114.075 33.7937 113.559 35.1466 112.952 36.4591C110.152 42.2591 105.237 49.5591 100.166 56.8111C95.111 64.0881 89.899 71.3441 86.172 77.0001C84.272 79.7901 82.729 82.1791 81.637 83.8541C81.478 84.1041 81.352 84.3041 81.212 84.5191C83.003 83.7251 84.88 77.7321 88.455 75.1601Z" fill="#536629"/>
  <path d="M79.877 83.319C79.877 83.319 79.619 83.186 79.134 82.933C78.433 82.5752 77.7565 82.1714 77.109 81.724C76.0756 81.0435 75.0844 80.3008 74.141 79.5C72.9166 78.4799 71.7482 77.3943 70.641 76.2481C69.426 74.9901 68.135 73.6 66.878 72.048C65.621 70.496 64.348 68.827 63.121 67.0401C61.894 65.2531 60.664 63.385 59.521 61.431C58.344 59.4911 57.265 57.461 56.191 55.431C52.288 47.9387 49.3384 39.9872 47.411 31.762C46.7409 29.0171 46.3565 26.2101 46.264 23.386C46.2302 22.5775 46.295 21.7679 46.457 20.975C46.5212 20.6979 46.6183 20.4293 46.746 20.175C46.7566 20.4467 46.7918 20.7168 46.851 20.982C47.0433 21.7132 47.2955 22.4273 47.605 23.1171C48.356 24.9261 49.628 27.433 51.128 30.442C54.166 36.405 58.233 44.353 62.295 52.3C66.339 60.225 70.453 68.065 73.757 73.864C74.618 75.3 75.409 76.613 76.107 77.7771C76.859 78.903 77.474 79.95 78.043 80.739C78.593 81.548 79.066 82.21 79.393 82.639L79.877 83.319Z" fill="#7D9E31"/>
  <path d="M73.757 73.8641C70.457 68.0641 66.339 60.2251 62.295 52.3001C58.233 44.3531 54.166 36.4051 51.122 30.4451C49.622 27.4361 48.35 24.9291 47.599 23.1201C47.2894 22.4304 47.0372 21.7163 46.845 20.9851C46.7857 20.7198 46.7506 20.4497 46.74 20.1781C46.752 20.1781 46.71 20.2461 46.663 20.3431C47.293 24.4981 48.334 29.8761 49.803 32.5231C52.385 37.1801 56.166 43.9701 57.009 46.8781C57.852 49.7861 66.926 64.4361 68.82 69.0731C70.163 72.3601 74.415 76.9831 77.42 79.8041C77.02 79.1851 76.597 78.5161 76.105 77.7771C75.409 76.6131 74.618 75.3001 73.757 73.8641Z" fill="#536629"/>
  <path d="M79.625 84.0461C77.704 79.9337 76.1538 75.658 74.993 71.2701C73.755 66.7975 72.7796 62.2565 72.072 57.6701C71.2679 52.4128 70.7611 47.1144 70.554 41.8001C70.3502 36.4852 70.4544 31.1629 70.866 25.8601C71.2277 21.2089 71.9211 16.5895 72.941 12.0371C73.6043 8.75229 74.6882 5.56672 76.166 2.55906C76.5809 1.67157 77.1887 0.887864 77.945 0.265057C78.0786 0.148314 78.239 0.066481 78.4119 0.0268694C78.5848 -0.0127422 78.7649 -0.00889855 78.936 0.0380569C78.7839 0.0577757 78.6391 0.114737 78.5144 0.203881C78.3897 0.293026 78.2889 0.411595 78.221 0.549057C77.816 1.31595 77.5573 2.1515 77.458 3.01306C77.0494 6.16611 76.849 9.34266 76.858 12.5221C76.824 16.4831 76.834 21.1021 76.958 26.0521C77.058 30.9971 77.204 36.2721 77.415 41.5441C77.603 46.8161 77.853 52.0891 78.115 57.0441C78.389 62.0131 78.648 66.6441 78.865 70.6221C79.108 74.6341 79.309 77.98 79.45 80.3221C79.587 82.6701 79.625 84.0461 79.625 84.0461Z" fill="#7D9E31"/>
  <path d="M78.866 70.6181C78.649 66.6431 78.39 62.0091 78.116 57.0401C77.858 52.0891 77.608 46.8161 77.416 41.5401C77.205 36.2681 77.057 30.9931 76.959 26.0481C76.833 21.0981 76.823 16.4791 76.859 12.5181C76.85 9.33867 77.0505 6.16213 77.459 3.00908C77.5584 2.14896 77.8168 1.3148 78.221 0.549076C78.2889 0.411614 78.3897 0.293045 78.5144 0.203901C78.6391 0.114756 78.784 0.057795 78.936 0.0380761C78.6499 -0.0219631 78.3516 0.0303104 78.103 0.184076C77.0845 2.27216 76.4314 4.51936 76.172 6.82808C74.416 17.9701 76.388 28.0601 75.886 31.7881C75.448 35.0541 75.169 58.4821 75.703 60.1201C76.237 61.7581 79.587 82.6701 79.447 80.3201C79.306 77.9761 79.105 74.6301 78.866 70.6181Z" fill="#536629"/>
  <path d="M78.874 84.013C78.874 84.013 79.047 82.851 79.474 80.873C79.863 78.893 80.461 76.107 81.196 72.79C82.641 66.213 84.568 57.444 86.496 48.677C88.41 39.944 90.235 31.188 91.504 24.586C92.0353 21.9436 92.4116 19.2724 92.631 16.586C92.6899 15.8561 92.6254 15.1215 92.44 14.413C92.3513 14.1716 92.1719 13.9742 91.94 13.863C92.0914 13.8559 92.2427 13.8803 92.3842 13.9347C92.5257 13.9891 92.6543 14.0723 92.762 14.179C93.3207 14.812 93.7371 15.5574 93.983 16.365C94.8417 19.0996 95.334 21.936 95.447 24.8C95.989 31.819 95.179 41.107 93.206 50.136C91.4435 58.438 88.6533 66.4881 84.9 74.1C83.6595 76.6164 82.2659 79.0543 80.727 81.4C79.594 83.085 78.874 84.013 78.874 84.013Z" fill="#7D9E31"/>
  <path d="M91.22 37.724C91.52 35.241 93.576 24.393 93.214 18.124C93.1443 16.6998 92.8778 15.2921 92.422 13.941C92.2668 13.8859 92.1036 13.8565 91.939 13.854C92.1709 13.9652 92.3503 14.1625 92.439 14.404C92.6244 15.1124 92.689 15.8471 92.63 16.577C92.4106 19.2634 92.0343 21.9346 91.503 24.577C90.234 31.177 88.409 39.935 86.495 48.668C84.568 57.435 82.641 66.204 81.195 72.781C80.7796 74.6563 80.413 76.337 80.095 77.823C80.395 76.411 83.195 70.045 84.279 66.484C85.363 62.923 90.918 40.208 91.22 37.724Z" fill="#536629"/>
  <path d="M180.235 440.606C180.235 440.606 179.693 439.246 178.673 436.691C177.645 434.23 176.073 430.547 173.981 425.846C169.826 416.454 163.74 403.046 156.704 386.825C149.65 370.619 141.704 351.574 133.713 330.962C129.758 320.641 125.727 309.954 121.885 299C117.978 288.072 114.275 276.873 110.675 265.643C107.175 254.387 103.741 243.101 100.725 231.888C97.615 220.705 94.902 209.603 92.416 198.832C91.165 193.448 90.111 188.111 88.982 182.912C87.988 177.685 87.0163 172.579 86.067 167.594C85.245 162.594 84.4466 157.736 83.672 153.02C83.0213 148.297 82.3943 143.74 81.791 139.351C80.771 130.564 79.878 122.503 79.405 115.328C78.745 108.172 78.645 101.897 78.364 96.7481C78.177 91.5911 78.235 87.5321 78.179 84.7711C78.15 82.0081 77.844 81.7391 78.589 80.9891C78.6458 80.9098 78.7201 80.8446 78.806 80.7984C78.892 80.7523 78.9874 80.7264 79.0849 80.7228C79.1824 80.7193 79.2794 80.7381 79.3685 80.7778C79.4576 80.8175 79.5365 80.8772 79.599 80.9521C80.271 81.7661 79.965 82.0031 80.029 84.7521C80.129 87.5021 80.122 91.5411 80.374 96.6691C80.726 101.791 80.907 108.027 81.661 115.142C82.228 122.273 83.225 130.283 84.355 139.013C85.015 143.363 85.7003 147.888 86.411 152.587C87.243 157.258 88.1023 162.079 88.989 167.052C89.9983 171.994 91.0343 177.063 92.097 182.26C93.289 187.418 94.409 192.714 95.728 198.06C98.345 208.746 101.192 219.76 104.44 230.849C107.591 241.967 111.16 253.155 114.797 264.316C118.531 275.443 122.366 286.54 126.402 297.369C130.375 308.225 134.534 318.813 138.608 329.037C146.844 349.455 155.008 368.313 162.262 384.374C169.493 400.443 175.742 413.737 180.043 423.117C182.197 427.795 183.858 431.527 184.987 434.14L186.611 438.059L180.235 440.606Z" fill="#7D9E31"/>
  <path d="M159.044 388.622C159.044 388.622 148.938 365.191 146.42 358.8C143.902 352.409 131.227 322.478 130.296 319.843C129.365 317.208 120.282 292.387 117.54 284.504C111.281 266.504 101.117 231.066 99.034 223.304C96.787 214.923 89.996 184.838 88.164 176.004C86.28 166.927 82.687 142.339 81.907 134.592C81.127 126.845 79.096 107.679 79.066 102.95C79.036 98.2211 78.151 82.0081 78.18 84.7711C78.236 87.5321 78.18 91.5911 78.365 96.7481C78.646 101.897 78.746 108.172 79.406 115.328C79.879 122.503 80.772 130.564 81.792 139.351C82.392 143.733 83.019 148.289 83.673 153.02C84.447 157.725 85.2454 162.583 86.068 167.594C87.014 172.569 87.9857 177.675 88.983 182.912C90.112 188.112 91.166 193.448 92.417 198.832C94.903 209.603 97.617 220.705 100.726 231.888C103.742 243.101 107.173 254.388 110.676 265.643C114.276 276.873 117.976 288.072 121.886 299C125.728 309.954 129.759 320.641 133.714 330.962C141.706 351.574 149.651 370.619 156.705 386.825C163.741 403.042 169.827 416.454 173.982 425.846C176.071 430.546 180.236 440.606 180.236 440.606L181.458 440.117C179.042 434.717 171.314 417.452 168.872 411.964C165.966 405.426 159.044 388.622 159.044 388.622Z" fill="#536629"/>
</svg>
