<svg width="24" height="24" viewBox="0 0 24 24" fill="none" xmlns="http://www.w3.org/2000/svg">
<g id="WhatsApp">
<path id="Vector" d="M19.1117 4.91892C17.2589 3.02703 14.6975 2 12.0817 2C6.52316 2 2.0545 6.48649 2.10899 11.9459C2.10899 13.6757 2.59945 15.3514 3.41689 16.8649L2 22L7.2861 20.6486C8.75749 21.4595 10.3924 21.8378 12.0272 21.8378C17.5313 21.8378 22 17.3514 22 11.8919C22 9.24324 20.9646 6.75676 19.1117 4.91892ZM12.0817 20.1622C10.6104 20.1622 9.13896 19.7838 7.88556 19.027L7.55858 18.8649L4.39782 19.6757L5.21526 16.5946L4.99728 16.2703C2.59945 12.4324 3.74387 7.35135 7.66757 4.97297C11.5913 2.59459 16.6594 3.72973 19.0572 7.62162C21.455 11.5135 20.3106 16.5405 16.3869 18.9189C15.1335 19.7297 13.6076 20.1622 12.0817 20.1622ZM16.8774 14.1622L16.2779 13.8919C16.2779 13.8919 15.406 13.5135 14.861 13.2432C14.8065 13.2432 14.752 13.1892 14.6975 13.1892C14.5341 13.1892 14.4251 13.2432 14.3161 13.2973C14.3161 13.2973 14.2616 13.3514 13.4986 14.2162C13.4441 14.3243 13.3351 14.3784 13.2262 14.3784H13.1717C13.1172 14.3784 13.0082 14.3243 12.9537 14.2703L12.6812 14.1622C12.0817 13.8919 11.5368 13.5676 11.1008 13.1351C10.9918 13.027 10.8283 12.9189 10.7193 12.8108C10.3379 12.4324 9.9564 12 9.68392 11.5135L9.62943 11.4054C9.57493 11.3514 9.57493 11.2973 9.52044 11.1892C9.52044 11.0811 9.52044 10.973 9.57493 10.9189C9.57493 10.9189 9.79292 10.6486 9.9564 10.4865C10.0654 10.3784 10.1199 10.2162 10.2289 10.1081C10.3379 9.94595 10.3924 9.72973 10.3379 9.56757C10.2834 9.2973 9.62943 7.83784 9.46594 7.51351C9.35695 7.35135 9.24796 7.2973 9.08447 7.24324H8.92098C8.81199 7.24324 8.6485 7.24324 8.48501 7.24324C8.37602 7.24324 8.26703 7.2973 8.15804 7.2973L8.10354 7.35135C7.99455 7.40541 7.88556 7.51351 7.77657 7.56757C7.66758 7.67568 7.61308 7.78378 7.50409 7.89189C7.12262 8.37838 6.90463 8.97297 6.90463 9.56757C6.90463 10 7.01362 10.4324 7.17711 10.8108L7.23161 10.973C7.72207 12 8.37602 12.9189 9.24796 13.7297L9.46594 13.9459C9.62943 14.1081 9.79292 14.2162 9.90191 14.3784C11.0463 15.3514 12.3542 16.0541 13.8256 16.4324C13.9891 16.4865 14.2071 16.4865 14.3706 16.5405C14.5341 16.5405 14.752 16.5405 14.9155 16.5405C15.188 16.5405 15.515 16.4324 15.733 16.3243C15.8965 16.2162 16.0054 16.2162 16.1144 16.1081L16.2234 16C16.3324 15.8919 16.4414 15.8378 16.5504 15.7297C16.6594 15.6216 16.7684 15.5135 16.8229 15.4054C16.9319 15.1892 16.9864 14.9189 17.0409 14.6486C17.0409 14.5405 17.0409 14.3784 17.0409 14.2703C17.0409 14.2703 16.9864 14.2162 16.8774 14.1622Z" fill="#181A18"/>
</g>
</svg>
