<svg width="24" height="24" viewBox="0 0 24 24" fill="none" xmlns="http://www.w3.org/2000/svg">
<rect width="24" height="24" fill="#7B11F9"/>
<path d="M12 24L7 19V5L15.5 6L24 14.5V24H12Z" fill="#620EC7"/>
<path d="M13.8476 12.8325C13.4121 12.6767 12.7852 12.7101 11.9669 12.7101H8.6792V17.3768H12.1951C12.7444 17.3768 13.1302 17.3129 13.3524 17.2683C13.744 17.192 14.0715 17.0443 14.3346 16.8661C14.5974 16.6884 14.8137 16.4187 14.9835 16.0787C15.1529 15.7386 15.2378 15.3407 15.2378 14.8958C15.2378 14.3747 15.115 13.9746 14.8693 13.5899C14.6237 13.2052 14.2832 12.9883 13.8476 12.8325ZM13.3963 10.6988C13.8286 10.5592 14.1545 10.3153 14.3737 9.9913C14.5931 9.66707 14.7027 9.25458 14.7027 8.76499C14.7027 8.30116 14.6002 7.88968 14.3956 7.53664C14.1909 7.18359 13.8989 7.04704 13.5188 6.91658C13.1388 6.78652 12.4871 6.82609 11.5635 6.82609H8.6792V10.8841H11.774C12.5281 10.8841 13.0686 10.807 13.3963 10.6988ZM16.6186 16.7164C16.3645 17.279 16.0501 17.7128 15.676 18.018C15.3018 18.3231 14.8325 18.582 14.2685 18.7379C13.7047 18.8939 13.0132 19 12.1951 19H7V5H12.116C13.0981 5 13.8856 5.12357 14.479 5.4062C15.0725 5.68925 15.537 6.11574 15.8734 6.70374C16.2095 7.29174 16.3776 7.90226 16.3776 8.54423C16.3776 9.14177 16.2283 9.70238 15.9303 10.2299C15.6322 10.7579 15.182 11.1823 14.5801 11.5066C15.3574 11.7545 15.9552 12.1769 16.3731 12.7743C16.791 13.3718 17 14.0773 17 14.8909C17 15.5457 16.8729 16.1539 16.6186 16.7164Z" fill="white"/>
</svg>
