<svg width="24" height="24" viewBox="0 0 24 24" fill="none" xmlns="http://www.w3.org/2000/svg">
<rect width="24" height="24" fill="#333333"/>
<path d="M24 11.5L15.5 3L7 20L11 24H13H24V11.5Z" fill="#212121"/>
<path d="M9 21C10.6569 21 12 19.6569 12 18V15H9C7.34315 15 6 16.3431 6 18C6 19.6569 7.34315 21 9 21Z" fill="#0ACF83"/>
<path d="M6 12C6 10.3431 7.34315 9 9 9H12V15H9C7.34315 15 6 13.6569 6 12Z" fill="#A259FF"/>
<path d="M6 6C6 4.34315 7.34315 3 9 3H12V9H9C7.34315 9 6 7.65686 6 6Z" fill="#F24E1E"/>
<path d="M12 3H15C16.6569 3 18 4.34315 18 6C18 7.65686 16.6569 9 15 9H12V3Z" fill="#FF7262"/>
<path d="M18 12C18 13.6569 16.6569 15 15 15C13.3431 15 12 13.6569 12 12C12 10.3431 13.3431 9 15 9C16.6569 9 18 10.3431 18 12Z" fill="#1ABCFE"/>
</svg>
