<svg width="24" height="24" viewBox="0 0 24 24" fill="none" xmlns="http://www.w3.org/2000/svg">
<rect width="24" height="24" fill="#F16529"/>
<path d="M12 24L4.5 19L21 3L24 5.5V24H12Z" fill="#C94422"/>
<path d="M3 3L4.63894 19.2003L11.9955 21L19.3582 19.2011L21 3H3Z" fill="white"/>
<path d="M16.8221 8.1177H12.0005H9.18191L9.36405 10.2878H12.0005H16.6407L16.0932 16.7957L12.0005 17.999L11.9973 18L7.90722 16.7957L7.62192 13.3919H9.62571L9.77424 15.1576L11.9978 15.7953L12.001 15.7944L14.2266 15.1567L14.4585 12.4081H12.001H7.5391L7 6H12.0005H17L16.8221 8.1177Z" fill="#E44D26"/>
</svg>
