<svg width="24" height="24" viewBox="0 0 24 24" fill="none" xmlns="http://www.w3.org/2000/svg">
<rect width="24" height="24" fill="#46483E"/>
<path d="M11.5 24L4 16.5L4.5 8.5L5.5 7L12 3.5L19 7L24 12V24H11.5Z" fill="#2D2E28"/>
<path d="M11.9577 21C11.7037 21 11.478 20.9437 11.2522 20.8028L9.05115 19.507C8.71252 19.3099 8.88183 19.2535 8.99471 19.2254C9.44621 19.0563 9.53086 19.0282 9.98236 18.7746C10.0388 18.7465 10.0952 18.7465 10.1517 18.8028L11.8448 19.8169C11.9012 19.8451 11.9859 19.8451 12.0423 19.8169L18.6455 16.0141C18.7019 15.9859 18.7584 15.9014 18.7584 15.8451V8.23944C18.7584 8.15493 18.7302 8.09859 18.6455 8.07042L12.0705 4.23944C12.0141 4.21127 11.9295 4.21127 11.873 4.23944L5.26984 8.01408C5.2134 8.04225 5.15697 8.12676 5.15697 8.1831V15.7887C5.15697 15.8451 5.18519 15.9296 5.26984 15.9577L7.07584 17C8.06349 17.4789 8.65608 16.9155 8.65608 16.3239V8.85915C8.65608 8.74648 8.74074 8.66197 8.85362 8.66197H9.70018C9.81305 8.66197 9.89771 8.74648 9.89771 8.85915V16.3521C9.89771 17.6761 9.19224 18.4084 7.95062 18.4084C7.55556 18.4084 7.27337 18.4084 6.42681 17.9859L4.70547 17C4.28219 16.7465 4 16.2958 4 15.7887V8.1831C4 7.70423 4.25397 7.22535 4.70547 6.97183L11.3086 3.16901C11.7319 2.94366 12.2963 2.94366 12.6914 3.16901L19.2945 6.97183C19.7178 7.22535 20 7.67606 20 8.1831V15.7887C20 16.2676 19.746 16.7465 19.2945 17L12.6631 20.831C12.4374 20.9437 12.2116 21 11.9577 21Z" fill="#81CF08"/>
<path d="M14.0177 15.761C11.1394 15.761 10.5186 14.437 10.5186 13.3384C10.5186 13.2258 10.6032 13.1413 10.7161 13.1413H11.5626C11.6473 13.1413 11.732 13.1976 11.7602 13.3103C11.8731 14.1835 12.2681 14.6061 14.0177 14.6061C15.4004 14.6061 15.993 14.2962 15.993 13.5638C15.993 13.1413 15.8237 12.8314 13.6508 12.6061C11.8448 12.437 10.7161 12.0427 10.7161 10.5779C10.7161 9.25394 11.8448 8.46521 13.7355 8.46521C15.8519 8.46521 16.896 9.1976 17.0371 10.7751C17.0371 10.8314 17.0089 10.8877 16.9806 10.9159C16.9524 10.9441 16.896 10.9723 16.8395 10.9723H15.993C15.9083 10.9723 15.8237 10.9159 15.7954 10.8314C15.5979 9.93 15.09 9.62014 13.7355 9.62014C12.2117 9.62014 12.0424 10.1554 12.0424 10.5497C12.0424 11.0286 12.2399 11.1694 14.2999 11.4511C16.3316 11.7046 17.291 12.099 17.291 13.5075C17.291 14.9441 16.1059 15.761 14.0177 15.761Z" fill="#81CF08"/>
</svg>
