<svg width="24" height="24" viewBox="0 0 24 24" fill="none" xmlns="http://www.w3.org/2000/svg">
<path d="M23.993 0H0.00703125C0.003148 0 0 0.003148 0 0.00703125V23.993C0 23.9969 0.003148 24 0.00703125 24H23.993C23.9969 24 24 23.9969 24 23.993V0.00703125C24 0.003148 23.9969 0 23.993 0Z" fill="#CC6699"/>
<path d="M10 24L6 20L6.5 18L8.5 16L10 15L8 13.5L6 11L6.5 8.5L12 5L18.5 4.5L24 10.107V24H10Z" fill="#B3477D"/>
<path d="M12.0935 4.12493C7.59346 5.6718 4.68721 8.81243 4.96846 10.6874C5.24971 12.5624 8.06221 14.0624 9.32783 15.0468C7.68721 15.8906 5.62471 17.1562 5.67158 18.7968C5.76533 21.0468 8.20283 20.3437 9.23408 19.6874C10.2653 19.0312 11.2966 17.2031 10.6403 15.2812C12.0935 14.9062 13.3591 15.3749 13.7341 15.6562C15.1872 16.6874 14.4372 17.8593 13.9216 18.0468C13.406 18.2343 13.7341 18.3281 14.0622 18.2343C14.3903 18.1406 15.0935 17.6718 15.0935 16.8749C15.0935 14.8593 12.9372 13.9218 10.2653 14.6249C8.71846 12.9843 6.60908 12.2343 6.70283 10.4531C6.74971 9.79681 6.98408 8.1093 11.156 5.99993C15.3278 3.89056 18.281 4.73431 17.906 6.65618C17.3435 9.56243 12.281 11.5312 10.4997 9.84368C10.406 9.65618 10.0778 9.51556 10.2653 10.0312C11.2028 12.3749 18.7966 11.2968 19.1247 6.32805C19.2185 3.70306 15.4216 2.99993 12.0935 4.12493ZM8.06221 19.1249C6.89033 19.4999 6.93721 18.7499 6.98408 18.4687C7.12471 17.6718 7.78096 16.6874 9.74971 15.7031C10.3122 17.4843 9.04658 18.8437 8.06221 19.1249Z" fill="white"/>
</svg>
