<svg width="24" height="24" viewBox="0 0 24 24" fill="none" xmlns="http://www.w3.org/2000/svg">
<rect width="24" height="24" fill="#007ACC"/>
<path d="M9 12V22L11 24H24V22L14 12H9Z" fill="#005B99"/>
<path d="M24 16L20.5 12.5H17V21L24 24V16Z" fill="#005B99"/>
<path d="M19.3835 12.0832C19.9296 12.2037 20.4259 12.4752 20.8099 12.8636C21.0213 13.0729 21.205 13.3058 21.3571 13.5574C21.3571 13.5851 20.3721 14.2182 19.772 14.572C19.7501 14.5858 19.6625 14.4957 19.5659 14.3586C19.4563 14.1789 19.3007 14.0285 19.1134 13.9214C18.9262 13.8144 18.7135 13.7542 18.4951 13.7464C17.8038 13.7013 17.3587 14.0465 17.3624 14.6136C17.3567 14.7548 17.3907 14.8949 17.4609 15.0194C17.6123 15.3195 17.895 15.4981 18.7815 15.8623C20.4141 16.5301 21.1127 16.9706 21.5468 17.5967C22.032 18.2904 22.1396 19.4108 21.8113 20.2398C21.4465 21.1417 20.5527 21.7539 19.2886 21.9568C18.7113 22.0197 18.1279 22.0139 17.5521 21.9395C16.6695 21.8012 15.8566 21.3983 15.2319 20.7896C15.0221 20.5693 14.6135 19.9953 14.639 19.9537C14.7056 19.9067 14.7757 19.8643 14.8488 19.827L15.6934 19.3831L16.3482 19.0223L16.485 19.2148C16.7159 19.5288 17.0097 19.7964 17.3496 20.0022C18.0792 20.3664 19.0752 20.3161 19.5677 19.8947C19.733 19.7403 19.8362 19.5356 19.8592 19.3163C19.8822 19.097 19.8236 18.877 19.6935 18.6945C19.5111 18.4534 19.1463 18.2505 18.1267 17.8273C16.9501 17.3452 16.443 17.0469 15.9797 16.5717C15.6905 16.2581 15.4769 15.8881 15.3541 15.4877C15.2624 15.0303 15.2489 14.5618 15.3139 14.1002C15.5565 13.0197 16.4084 12.2653 17.6524 12.0416C18.2285 11.9738 18.8121 11.989 19.3835 12.0866V12.0832ZM14.0316 12.992V13.88H11.0712V21.8979H8.97164V13.8782H6.00387V13.0111C5.99463 12.712 6.00194 12.4127 6.02576 12.1144C6.04035 12.0988 7.84984 12.0988 10.0387 12.0988H14.0207L14.0316 12.992Z" fill="white"/>
</svg>
